<mxfile host="Electron" modified="2023-11-02T16:05:49.255Z" agent="Mozilla/5.0 (Windows NT 10.0; Win64; x64) AppleWebKit/537.36 (KHTML, like Gecko) draw.io/22.0.2 Chrome/114.0.5735.289 Electron/25.8.4 Safari/537.36" etag="zpQ_TTuNc6iNl9n9gMDp" version="22.0.2" type="device">
  <diagram name="PÃ¡gina-1" id="zR7nPVd1N1F6_qf0BKFL">
    <mxGraphModel dx="2200" dy="1330" grid="1" gridSize="10" guides="1" tooltips="1" connect="1" arrows="1" fold="1" page="1" pageScale="1" pageWidth="1400" pageHeight="850" math="0" shadow="0">
      <root>
        <mxCell id="0" />
        <mxCell id="1" parent="0" />
        <mxCell id="aiIJosweRKsWauaOWvsQ-3" value="" style="endArrow=none;html=1;rounded=0;exitX=0.013;exitY=-0.071;exitDx=0;exitDy=0;exitPerimeter=0;entryX=0;entryY=0.5;entryDx=0;entryDy=0;" edge="1" parent="1" source="aiIJosweRKsWauaOWvsQ-66" target="aiIJosweRKsWauaOWvsQ-53">
          <mxGeometry width="50" height="50" relative="1" as="geometry">
            <mxPoint x="2730" y="260" as="sourcePoint" />
            <mxPoint x="2780" y="210" as="targetPoint" />
          </mxGeometry>
        </mxCell>
        <mxCell id="aiIJosweRKsWauaOWvsQ-5" value="" style="shape=table;startSize=0;container=1;collapsible=0;childLayout=tableLayout;fontSize=16;strokeColor=#00FF00;" vertex="1" parent="1">
          <mxGeometry x="2660" y="80" width="660" height="40" as="geometry" />
        </mxCell>
        <mxCell id="aiIJosweRKsWauaOWvsQ-6" value="" style="shape=tableRow;horizontal=0;startSize=0;swimlaneHead=0;swimlaneBody=0;strokeColor=inherit;top=0;left=0;bottom=0;right=0;collapsible=0;dropTarget=0;fillColor=none;points=[[0,0.5],[1,0.5]];portConstraint=eastwest;fontSize=16;enumerate=0;expand=1;part=0;" vertex="1" parent="aiIJosweRKsWauaOWvsQ-5">
          <mxGeometry width="660" height="40" as="geometry" />
        </mxCell>
        <mxCell id="aiIJosweRKsWauaOWvsQ-7" value="+" style="shape=partialRectangle;html=1;whiteSpace=wrap;connectable=0;strokeColor=inherit;overflow=hidden;fillColor=none;top=0;left=0;bottom=0;right=0;pointerEvents=1;fontSize=16;" vertex="1" parent="aiIJosweRKsWauaOWvsQ-6">
          <mxGeometry width="60" height="40" as="geometry">
            <mxRectangle width="60" height="40" as="alternateBounds" />
          </mxGeometry>
        </mxCell>
        <mxCell id="aiIJosweRKsWauaOWvsQ-8" value="Y" style="shape=partialRectangle;html=1;whiteSpace=wrap;connectable=0;strokeColor=inherit;overflow=hidden;fillColor=none;top=0;left=0;bottom=0;right=0;pointerEvents=1;fontSize=16;" vertex="1" parent="aiIJosweRKsWauaOWvsQ-6">
          <mxGeometry x="60" width="60" height="40" as="geometry">
            <mxRectangle width="60" height="40" as="alternateBounds" />
          </mxGeometry>
        </mxCell>
        <mxCell id="aiIJosweRKsWauaOWvsQ-30" value="F" style="shape=partialRectangle;html=1;whiteSpace=wrap;connectable=0;strokeColor=inherit;overflow=hidden;fillColor=none;top=0;left=0;bottom=0;right=0;pointerEvents=1;fontSize=16;" vertex="1" parent="aiIJosweRKsWauaOWvsQ-6">
          <mxGeometry x="120" width="60" height="40" as="geometry">
            <mxRectangle width="60" height="40" as="alternateBounds" />
          </mxGeometry>
        </mxCell>
        <mxCell id="aiIJosweRKsWauaOWvsQ-31" value="-" style="shape=partialRectangle;html=1;whiteSpace=wrap;connectable=0;strokeColor=inherit;overflow=hidden;fillColor=none;top=0;left=0;bottom=0;right=0;pointerEvents=1;fontSize=16;" vertex="1" parent="aiIJosweRKsWauaOWvsQ-6">
          <mxGeometry x="180" width="60" height="40" as="geometry">
            <mxRectangle width="60" height="40" as="alternateBounds" />
          </mxGeometry>
        </mxCell>
        <mxCell id="aiIJosweRKsWauaOWvsQ-32" value="X" style="shape=partialRectangle;html=1;whiteSpace=wrap;connectable=0;strokeColor=inherit;overflow=hidden;fillColor=none;top=0;left=0;bottom=0;right=0;pointerEvents=1;fontSize=16;" vertex="1" parent="aiIJosweRKsWauaOWvsQ-6">
          <mxGeometry x="240" width="60" height="40" as="geometry">
            <mxRectangle width="60" height="40" as="alternateBounds" />
          </mxGeometry>
        </mxCell>
        <mxCell id="aiIJosweRKsWauaOWvsQ-33" value="F" style="shape=partialRectangle;html=1;whiteSpace=wrap;connectable=0;strokeColor=inherit;overflow=hidden;fillColor=none;top=0;left=0;bottom=0;right=0;pointerEvents=1;fontSize=16;" vertex="1" parent="aiIJosweRKsWauaOWvsQ-6">
          <mxGeometry x="300" width="60" height="40" as="geometry">
            <mxRectangle width="60" height="40" as="alternateBounds" />
          </mxGeometry>
        </mxCell>
        <mxCell id="aiIJosweRKsWauaOWvsQ-34" value="X" style="shape=partialRectangle;html=1;whiteSpace=wrap;connectable=0;strokeColor=inherit;overflow=hidden;fillColor=none;top=0;left=0;bottom=0;right=0;pointerEvents=1;fontSize=16;" vertex="1" parent="aiIJosweRKsWauaOWvsQ-6">
          <mxGeometry x="360" width="60" height="40" as="geometry">
            <mxRectangle width="60" height="40" as="alternateBounds" />
          </mxGeometry>
        </mxCell>
        <mxCell id="aiIJosweRKsWauaOWvsQ-35" value="-" style="shape=partialRectangle;html=1;whiteSpace=wrap;connectable=0;strokeColor=inherit;overflow=hidden;fillColor=none;top=0;left=0;bottom=0;right=0;pointerEvents=1;fontSize=16;" vertex="1" parent="aiIJosweRKsWauaOWvsQ-6">
          <mxGeometry x="420" width="60" height="40" as="geometry">
            <mxRectangle width="60" height="40" as="alternateBounds" />
          </mxGeometry>
        </mxCell>
        <mxCell id="aiIJosweRKsWauaOWvsQ-36" value="F" style="shape=partialRectangle;html=1;whiteSpace=wrap;connectable=0;strokeColor=inherit;overflow=hidden;fillColor=none;top=0;left=0;bottom=0;right=0;pointerEvents=1;fontSize=16;" vertex="1" parent="aiIJosweRKsWauaOWvsQ-6">
          <mxGeometry x="480" width="60" height="40" as="geometry">
            <mxRectangle width="60" height="40" as="alternateBounds" />
          </mxGeometry>
        </mxCell>
        <mxCell id="aiIJosweRKsWauaOWvsQ-37" value="Y" style="shape=partialRectangle;html=1;whiteSpace=wrap;connectable=0;strokeColor=inherit;overflow=hidden;fillColor=none;top=0;left=0;bottom=0;right=0;pointerEvents=1;fontSize=16;" vertex="1" parent="aiIJosweRKsWauaOWvsQ-6">
          <mxGeometry x="540" width="60" height="40" as="geometry">
            <mxRectangle width="60" height="40" as="alternateBounds" />
          </mxGeometry>
        </mxCell>
        <mxCell id="aiIJosweRKsWauaOWvsQ-38" value="+" style="shape=partialRectangle;html=1;whiteSpace=wrap;connectable=0;strokeColor=inherit;overflow=hidden;fillColor=none;top=0;left=0;bottom=0;right=0;pointerEvents=1;fontSize=16;" vertex="1" parent="aiIJosweRKsWauaOWvsQ-6">
          <mxGeometry x="600" width="60" height="40" as="geometry">
            <mxRectangle width="60" height="40" as="alternateBounds" />
          </mxGeometry>
        </mxCell>
        <mxCell id="aiIJosweRKsWauaOWvsQ-52" value="" style="shape=table;startSize=0;container=1;collapsible=0;childLayout=tableLayout;fontSize=16;strokeColor=#00FF00;" vertex="1" parent="1">
          <mxGeometry x="2860" y="160" width="660" height="40" as="geometry" />
        </mxCell>
        <mxCell id="aiIJosweRKsWauaOWvsQ-53" value="" style="shape=tableRow;horizontal=0;startSize=0;swimlaneHead=0;swimlaneBody=0;strokeColor=inherit;top=0;left=0;bottom=0;right=0;collapsible=0;dropTarget=0;fillColor=none;points=[[0,0.5],[1,0.5]];portConstraint=eastwest;fontSize=16;enumerate=0;expand=1;part=0;" vertex="1" parent="aiIJosweRKsWauaOWvsQ-52">
          <mxGeometry width="660" height="40" as="geometry" />
        </mxCell>
        <mxCell id="aiIJosweRKsWauaOWvsQ-54" value="+" style="shape=partialRectangle;html=1;whiteSpace=wrap;connectable=0;strokeColor=inherit;overflow=hidden;fillColor=none;top=0;left=0;bottom=0;right=0;pointerEvents=1;fontSize=16;" vertex="1" parent="aiIJosweRKsWauaOWvsQ-53">
          <mxGeometry width="60" height="40" as="geometry">
            <mxRectangle width="60" height="40" as="alternateBounds" />
          </mxGeometry>
        </mxCell>
        <mxCell id="aiIJosweRKsWauaOWvsQ-55" value="Y" style="shape=partialRectangle;html=1;whiteSpace=wrap;connectable=0;strokeColor=inherit;overflow=hidden;fillColor=none;top=0;left=0;bottom=0;right=0;pointerEvents=1;fontSize=16;" vertex="1" parent="aiIJosweRKsWauaOWvsQ-53">
          <mxGeometry x="60" width="60" height="40" as="geometry">
            <mxRectangle width="60" height="40" as="alternateBounds" />
          </mxGeometry>
        </mxCell>
        <mxCell id="aiIJosweRKsWauaOWvsQ-56" value="F" style="shape=partialRectangle;html=1;whiteSpace=wrap;connectable=0;strokeColor=inherit;overflow=hidden;fillColor=none;top=0;left=0;bottom=0;right=0;pointerEvents=1;fontSize=16;" vertex="1" parent="aiIJosweRKsWauaOWvsQ-53">
          <mxGeometry x="120" width="60" height="40" as="geometry">
            <mxRectangle width="60" height="40" as="alternateBounds" />
          </mxGeometry>
        </mxCell>
        <mxCell id="aiIJosweRKsWauaOWvsQ-57" value="-" style="shape=partialRectangle;html=1;whiteSpace=wrap;connectable=0;strokeColor=inherit;overflow=hidden;fillColor=none;top=0;left=0;bottom=0;right=0;pointerEvents=1;fontSize=16;" vertex="1" parent="aiIJosweRKsWauaOWvsQ-53">
          <mxGeometry x="180" width="60" height="40" as="geometry">
            <mxRectangle width="60" height="40" as="alternateBounds" />
          </mxGeometry>
        </mxCell>
        <mxCell id="aiIJosweRKsWauaOWvsQ-58" value="X" style="shape=partialRectangle;html=1;whiteSpace=wrap;connectable=0;strokeColor=inherit;overflow=hidden;fillColor=none;top=0;left=0;bottom=0;right=0;pointerEvents=1;fontSize=16;" vertex="1" parent="aiIJosweRKsWauaOWvsQ-53">
          <mxGeometry x="240" width="60" height="40" as="geometry">
            <mxRectangle width="60" height="40" as="alternateBounds" />
          </mxGeometry>
        </mxCell>
        <mxCell id="aiIJosweRKsWauaOWvsQ-59" value="F" style="shape=partialRectangle;html=1;whiteSpace=wrap;connectable=0;strokeColor=inherit;overflow=hidden;fillColor=none;top=0;left=0;bottom=0;right=0;pointerEvents=1;fontSize=16;" vertex="1" parent="aiIJosweRKsWauaOWvsQ-53">
          <mxGeometry x="300" width="60" height="40" as="geometry">
            <mxRectangle width="60" height="40" as="alternateBounds" />
          </mxGeometry>
        </mxCell>
        <mxCell id="aiIJosweRKsWauaOWvsQ-60" value="X" style="shape=partialRectangle;html=1;whiteSpace=wrap;connectable=0;strokeColor=inherit;overflow=hidden;fillColor=none;top=0;left=0;bottom=0;right=0;pointerEvents=1;fontSize=16;" vertex="1" parent="aiIJosweRKsWauaOWvsQ-53">
          <mxGeometry x="360" width="60" height="40" as="geometry">
            <mxRectangle width="60" height="40" as="alternateBounds" />
          </mxGeometry>
        </mxCell>
        <mxCell id="aiIJosweRKsWauaOWvsQ-61" value="-" style="shape=partialRectangle;html=1;whiteSpace=wrap;connectable=0;strokeColor=inherit;overflow=hidden;fillColor=none;top=0;left=0;bottom=0;right=0;pointerEvents=1;fontSize=16;" vertex="1" parent="aiIJosweRKsWauaOWvsQ-53">
          <mxGeometry x="420" width="60" height="40" as="geometry">
            <mxRectangle width="60" height="40" as="alternateBounds" />
          </mxGeometry>
        </mxCell>
        <mxCell id="aiIJosweRKsWauaOWvsQ-62" value="F" style="shape=partialRectangle;html=1;whiteSpace=wrap;connectable=0;strokeColor=inherit;overflow=hidden;fillColor=none;top=0;left=0;bottom=0;right=0;pointerEvents=1;fontSize=16;" vertex="1" parent="aiIJosweRKsWauaOWvsQ-53">
          <mxGeometry x="480" width="60" height="40" as="geometry">
            <mxRectangle width="60" height="40" as="alternateBounds" />
          </mxGeometry>
        </mxCell>
        <mxCell id="aiIJosweRKsWauaOWvsQ-63" value="Y" style="shape=partialRectangle;html=1;whiteSpace=wrap;connectable=0;strokeColor=inherit;overflow=hidden;fillColor=none;top=0;left=0;bottom=0;right=0;pointerEvents=1;fontSize=16;" vertex="1" parent="aiIJosweRKsWauaOWvsQ-53">
          <mxGeometry x="540" width="60" height="40" as="geometry">
            <mxRectangle width="60" height="40" as="alternateBounds" />
          </mxGeometry>
        </mxCell>
        <mxCell id="aiIJosweRKsWauaOWvsQ-64" value="+" style="shape=partialRectangle;html=1;whiteSpace=wrap;connectable=0;strokeColor=inherit;overflow=hidden;fillColor=none;top=0;left=0;bottom=0;right=0;pointerEvents=1;fontSize=16;" vertex="1" parent="aiIJosweRKsWauaOWvsQ-53">
          <mxGeometry x="600" width="60" height="40" as="geometry">
            <mxRectangle width="60" height="40" as="alternateBounds" />
          </mxGeometry>
        </mxCell>
        <mxCell id="aiIJosweRKsWauaOWvsQ-65" value="" style="shape=table;startSize=0;container=1;collapsible=0;childLayout=tableLayout;fontSize=16;strokeColor=#00FFFF;" vertex="1" parent="1">
          <mxGeometry x="2530" y="270" width="1530" height="40" as="geometry" />
        </mxCell>
        <mxCell id="aiIJosweRKsWauaOWvsQ-66" value="" style="shape=tableRow;horizontal=0;startSize=0;swimlaneHead=0;swimlaneBody=0;strokeColor=inherit;top=0;left=0;bottom=0;right=0;collapsible=0;dropTarget=0;fillColor=none;points=[[0,0.5],[1,0.5]];portConstraint=eastwest;fontSize=16;enumerate=0;expand=1;part=0;" vertex="1" parent="aiIJosweRKsWauaOWvsQ-65">
          <mxGeometry width="1530" height="40" as="geometry" />
        </mxCell>
        <mxCell id="aiIJosweRKsWauaOWvsQ-67" value="&lt;font&gt;+&lt;/font&gt;" style="shape=partialRectangle;html=1;whiteSpace=wrap;connectable=0;strokeColor=inherit;overflow=hidden;fillColor=none;top=0;left=0;bottom=0;right=0;pointerEvents=1;fontSize=16;fontStyle=1;fontColor=#FF8000;" vertex="1" parent="aiIJosweRKsWauaOWvsQ-66">
          <mxGeometry width="30" height="40" as="geometry">
            <mxRectangle width="30" height="40" as="alternateBounds" />
          </mxGeometry>
        </mxCell>
        <mxCell id="aiIJosweRKsWauaOWvsQ-86" value="-" style="shape=partialRectangle;html=1;whiteSpace=wrap;connectable=0;strokeColor=inherit;overflow=hidden;fillColor=none;top=0;left=0;bottom=0;right=0;pointerEvents=1;fontSize=16;fontColor=#FF3399;" vertex="1" parent="aiIJosweRKsWauaOWvsQ-66">
          <mxGeometry x="30" width="30" height="40" as="geometry">
            <mxRectangle width="30" height="40" as="alternateBounds" />
          </mxGeometry>
        </mxCell>
        <mxCell id="aiIJosweRKsWauaOWvsQ-87" value="X" style="shape=partialRectangle;html=1;whiteSpace=wrap;connectable=0;strokeColor=inherit;overflow=hidden;fillColor=none;top=0;left=0;bottom=0;right=0;pointerEvents=1;fontSize=16;fontColor=#FF3399;" vertex="1" parent="aiIJosweRKsWauaOWvsQ-66">
          <mxGeometry x="60" width="30" height="40" as="geometry">
            <mxRectangle width="30" height="40" as="alternateBounds" />
          </mxGeometry>
        </mxCell>
        <mxCell id="aiIJosweRKsWauaOWvsQ-88" value="F" style="shape=partialRectangle;html=1;whiteSpace=wrap;connectable=0;strokeColor=inherit;overflow=hidden;fillColor=none;top=0;left=0;bottom=0;right=0;pointerEvents=1;fontSize=16;fontColor=#FF3399;" vertex="1" parent="aiIJosweRKsWauaOWvsQ-66">
          <mxGeometry x="90" width="30" height="40" as="geometry">
            <mxRectangle width="30" height="40" as="alternateBounds" />
          </mxGeometry>
        </mxCell>
        <mxCell id="aiIJosweRKsWauaOWvsQ-89" value="+" style="shape=partialRectangle;html=1;whiteSpace=wrap;connectable=0;strokeColor=inherit;overflow=hidden;fillColor=none;top=0;left=0;bottom=0;right=0;pointerEvents=1;fontSize=16;fontColor=#FF3399;" vertex="1" parent="aiIJosweRKsWauaOWvsQ-66">
          <mxGeometry x="120" width="30" height="40" as="geometry">
            <mxRectangle width="30" height="40" as="alternateBounds" />
          </mxGeometry>
        </mxCell>
        <mxCell id="aiIJosweRKsWauaOWvsQ-90" value="Y" style="shape=partialRectangle;html=1;whiteSpace=wrap;connectable=0;strokeColor=inherit;overflow=hidden;fillColor=none;top=0;left=0;bottom=0;right=0;pointerEvents=1;fontSize=16;fontColor=#FF3399;" vertex="1" parent="aiIJosweRKsWauaOWvsQ-66">
          <mxGeometry x="150" width="30" height="40" as="geometry">
            <mxRectangle width="30" height="40" as="alternateBounds" />
          </mxGeometry>
        </mxCell>
        <mxCell id="aiIJosweRKsWauaOWvsQ-91" value="F" style="shape=partialRectangle;html=1;whiteSpace=wrap;connectable=0;strokeColor=inherit;overflow=hidden;fillColor=none;top=0;left=0;bottom=0;right=0;pointerEvents=1;fontSize=16;fontColor=#FF3399;" vertex="1" parent="aiIJosweRKsWauaOWvsQ-66">
          <mxGeometry x="180" width="30" height="40" as="geometry">
            <mxRectangle width="30" height="40" as="alternateBounds" />
          </mxGeometry>
        </mxCell>
        <mxCell id="aiIJosweRKsWauaOWvsQ-92" value="Y" style="shape=partialRectangle;html=1;whiteSpace=wrap;connectable=0;strokeColor=inherit;overflow=hidden;fillColor=none;top=0;left=0;bottom=0;right=0;pointerEvents=1;fontSize=16;fontColor=#FF3399;" vertex="1" parent="aiIJosweRKsWauaOWvsQ-66">
          <mxGeometry x="210" width="30" height="40" as="geometry">
            <mxRectangle width="30" height="40" as="alternateBounds" />
          </mxGeometry>
        </mxCell>
        <mxCell id="aiIJosweRKsWauaOWvsQ-93" value="+" style="shape=partialRectangle;html=1;whiteSpace=wrap;connectable=0;strokeColor=inherit;overflow=hidden;fillColor=none;top=0;left=0;bottom=0;right=0;pointerEvents=1;fontSize=16;fontColor=#FF3399;" vertex="1" parent="aiIJosweRKsWauaOWvsQ-66">
          <mxGeometry x="240" width="30" height="40" as="geometry">
            <mxRectangle width="30" height="40" as="alternateBounds" />
          </mxGeometry>
        </mxCell>
        <mxCell id="aiIJosweRKsWauaOWvsQ-94" value="F" style="shape=partialRectangle;html=1;whiteSpace=wrap;connectable=0;strokeColor=inherit;overflow=hidden;fillColor=none;top=0;left=0;bottom=0;right=0;pointerEvents=1;fontSize=16;fontColor=#FF3399;" vertex="1" parent="aiIJosweRKsWauaOWvsQ-66">
          <mxGeometry x="270" width="30" height="40" as="geometry">
            <mxRectangle width="30" height="40" as="alternateBounds" />
          </mxGeometry>
        </mxCell>
        <mxCell id="aiIJosweRKsWauaOWvsQ-95" value="X" style="shape=partialRectangle;html=1;whiteSpace=wrap;connectable=0;strokeColor=inherit;overflow=hidden;fillColor=none;top=0;left=0;bottom=0;right=0;pointerEvents=1;fontSize=16;fontColor=#FF3399;" vertex="1" parent="aiIJosweRKsWauaOWvsQ-66">
          <mxGeometry x="300" width="30" height="40" as="geometry">
            <mxRectangle width="30" height="40" as="alternateBounds" />
          </mxGeometry>
        </mxCell>
        <mxCell id="aiIJosweRKsWauaOWvsQ-96" value="-" style="shape=partialRectangle;html=1;whiteSpace=wrap;connectable=0;strokeColor=inherit;overflow=hidden;fillColor=none;top=0;left=0;bottom=0;right=0;pointerEvents=1;fontSize=16;fontColor=#FF3399;" vertex="1" parent="aiIJosweRKsWauaOWvsQ-66">
          <mxGeometry x="330" width="30" height="40" as="geometry">
            <mxRectangle width="30" height="40" as="alternateBounds" />
          </mxGeometry>
        </mxCell>
        <mxCell id="aiIJosweRKsWauaOWvsQ-97" value="F" style="shape=partialRectangle;html=1;whiteSpace=wrap;connectable=0;strokeColor=inherit;overflow=hidden;fillColor=none;top=0;left=0;bottom=0;right=0;pointerEvents=1;fontSize=16;fontColor=#FF8000;fontStyle=1" vertex="1" parent="aiIJosweRKsWauaOWvsQ-66">
          <mxGeometry x="360" width="30" height="40" as="geometry">
            <mxRectangle width="30" height="40" as="alternateBounds" />
          </mxGeometry>
        </mxCell>
        <mxCell id="aiIJosweRKsWauaOWvsQ-98" value="-" style="shape=partialRectangle;html=1;whiteSpace=wrap;connectable=0;strokeColor=inherit;overflow=hidden;fillColor=none;top=0;left=0;bottom=0;right=0;pointerEvents=1;fontSize=16;fontColor=#FF8000;fontStyle=1" vertex="1" parent="aiIJosweRKsWauaOWvsQ-66">
          <mxGeometry x="390" width="30" height="40" as="geometry">
            <mxRectangle width="30" height="40" as="alternateBounds" />
          </mxGeometry>
        </mxCell>
        <mxCell id="aiIJosweRKsWauaOWvsQ-99" value="+" style="shape=partialRectangle;html=1;whiteSpace=wrap;connectable=0;strokeColor=inherit;overflow=hidden;fillColor=none;top=0;left=0;bottom=0;right=0;pointerEvents=1;fontSize=16;fontColor=#00FF00;" vertex="1" parent="aiIJosweRKsWauaOWvsQ-66">
          <mxGeometry x="420" width="30" height="40" as="geometry">
            <mxRectangle width="30" height="40" as="alternateBounds" />
          </mxGeometry>
        </mxCell>
        <mxCell id="aiIJosweRKsWauaOWvsQ-100" value="Y" style="shape=partialRectangle;html=1;whiteSpace=wrap;connectable=0;strokeColor=inherit;overflow=hidden;fillColor=none;top=0;left=0;bottom=0;right=0;pointerEvents=1;fontSize=16;fontColor=#00FF00;" vertex="1" parent="aiIJosweRKsWauaOWvsQ-66">
          <mxGeometry x="450" width="30" height="40" as="geometry">
            <mxRectangle width="30" height="40" as="alternateBounds" />
          </mxGeometry>
        </mxCell>
        <mxCell id="aiIJosweRKsWauaOWvsQ-101" value="F" style="shape=partialRectangle;html=1;whiteSpace=wrap;connectable=0;strokeColor=inherit;overflow=hidden;fillColor=none;top=0;left=0;bottom=0;right=0;pointerEvents=1;fontSize=16;fontColor=#00FF00;" vertex="1" parent="aiIJosweRKsWauaOWvsQ-66">
          <mxGeometry x="480" width="30" height="40" as="geometry">
            <mxRectangle width="30" height="40" as="alternateBounds" />
          </mxGeometry>
        </mxCell>
        <mxCell id="aiIJosweRKsWauaOWvsQ-102" value="-" style="shape=partialRectangle;html=1;whiteSpace=wrap;connectable=0;strokeColor=inherit;overflow=hidden;fillColor=none;top=0;left=0;bottom=0;right=0;pointerEvents=1;fontSize=16;fontColor=#00FF00;" vertex="1" parent="aiIJosweRKsWauaOWvsQ-66">
          <mxGeometry x="510" width="30" height="40" as="geometry">
            <mxRectangle width="30" height="40" as="alternateBounds" />
          </mxGeometry>
        </mxCell>
        <mxCell id="aiIJosweRKsWauaOWvsQ-103" value="X" style="shape=partialRectangle;html=1;whiteSpace=wrap;connectable=0;strokeColor=inherit;overflow=hidden;fillColor=none;top=0;left=0;bottom=0;right=0;pointerEvents=1;fontSize=16;fontColor=#00FF00;" vertex="1" parent="aiIJosweRKsWauaOWvsQ-66">
          <mxGeometry x="540" width="30" height="40" as="geometry">
            <mxRectangle width="30" height="40" as="alternateBounds" />
          </mxGeometry>
        </mxCell>
        <mxCell id="aiIJosweRKsWauaOWvsQ-104" value="F" style="shape=partialRectangle;html=1;whiteSpace=wrap;connectable=0;strokeColor=inherit;overflow=hidden;fillColor=none;top=0;left=0;bottom=0;right=0;pointerEvents=1;fontSize=16;fontColor=#00FF00;" vertex="1" parent="aiIJosweRKsWauaOWvsQ-66">
          <mxGeometry x="570" width="30" height="40" as="geometry">
            <mxRectangle width="30" height="40" as="alternateBounds" />
          </mxGeometry>
        </mxCell>
        <mxCell id="aiIJosweRKsWauaOWvsQ-105" value="X" style="shape=partialRectangle;html=1;whiteSpace=wrap;connectable=0;strokeColor=inherit;overflow=hidden;fillColor=none;top=0;left=0;bottom=0;right=0;pointerEvents=1;fontSize=16;fontColor=#00FF00;" vertex="1" parent="aiIJosweRKsWauaOWvsQ-66">
          <mxGeometry x="600" width="30" height="40" as="geometry">
            <mxRectangle width="30" height="40" as="alternateBounds" />
          </mxGeometry>
        </mxCell>
        <mxCell id="aiIJosweRKsWauaOWvsQ-106" value="-" style="shape=partialRectangle;html=1;whiteSpace=wrap;connectable=0;strokeColor=inherit;overflow=hidden;fillColor=none;top=0;left=0;bottom=0;right=0;pointerEvents=1;fontSize=16;fontColor=#00FF00;" vertex="1" parent="aiIJosweRKsWauaOWvsQ-66">
          <mxGeometry x="630" width="30" height="40" as="geometry">
            <mxRectangle width="30" height="40" as="alternateBounds" />
          </mxGeometry>
        </mxCell>
        <mxCell id="aiIJosweRKsWauaOWvsQ-107" value="F" style="shape=partialRectangle;html=1;whiteSpace=wrap;connectable=0;strokeColor=inherit;overflow=hidden;fillColor=none;top=0;left=0;bottom=0;right=0;pointerEvents=1;fontSize=16;fontColor=#00FF00;" vertex="1" parent="aiIJosweRKsWauaOWvsQ-66">
          <mxGeometry x="660" width="30" height="40" as="geometry">
            <mxRectangle width="30" height="40" as="alternateBounds" />
          </mxGeometry>
        </mxCell>
        <mxCell id="aiIJosweRKsWauaOWvsQ-108" value="Y" style="shape=partialRectangle;html=1;whiteSpace=wrap;connectable=0;strokeColor=inherit;overflow=hidden;fillColor=none;top=0;left=0;bottom=0;right=0;pointerEvents=1;fontSize=16;fontColor=#00FF00;" vertex="1" parent="aiIJosweRKsWauaOWvsQ-66">
          <mxGeometry x="690" width="30" height="40" as="geometry">
            <mxRectangle width="30" height="40" as="alternateBounds" />
          </mxGeometry>
        </mxCell>
        <mxCell id="aiIJosweRKsWauaOWvsQ-109" value="+" style="shape=partialRectangle;html=1;whiteSpace=wrap;connectable=0;strokeColor=inherit;overflow=hidden;fillColor=none;top=0;left=0;bottom=0;right=0;pointerEvents=1;fontSize=16;fontColor=#00FF00;" vertex="1" parent="aiIJosweRKsWauaOWvsQ-66">
          <mxGeometry x="720" width="30" height="40" as="geometry">
            <mxRectangle width="30" height="40" as="alternateBounds" />
          </mxGeometry>
        </mxCell>
        <mxCell id="aiIJosweRKsWauaOWvsQ-110" value="F" style="shape=partialRectangle;html=1;whiteSpace=wrap;connectable=0;strokeColor=inherit;overflow=hidden;fillColor=none;top=0;left=0;bottom=0;right=0;pointerEvents=1;fontSize=16;fontColor=#FF8000;fontStyle=1" vertex="1" parent="aiIJosweRKsWauaOWvsQ-66">
          <mxGeometry x="750" width="30" height="40" as="geometry">
            <mxRectangle width="30" height="40" as="alternateBounds" />
          </mxGeometry>
        </mxCell>
        <mxCell id="aiIJosweRKsWauaOWvsQ-111" value="+" style="shape=partialRectangle;html=1;whiteSpace=wrap;connectable=0;strokeColor=inherit;overflow=hidden;fillColor=none;top=0;left=0;bottom=0;right=0;pointerEvents=1;fontSize=16;fontColor=#00FF00;" vertex="1" parent="aiIJosweRKsWauaOWvsQ-66">
          <mxGeometry x="780" width="30" height="40" as="geometry">
            <mxRectangle width="30" height="40" as="alternateBounds" />
          </mxGeometry>
        </mxCell>
        <mxCell id="aiIJosweRKsWauaOWvsQ-112" value="Y" style="shape=partialRectangle;html=1;whiteSpace=wrap;connectable=0;strokeColor=inherit;overflow=hidden;fillColor=none;top=0;left=0;bottom=0;right=0;pointerEvents=1;fontSize=16;fontColor=#00FF00;" vertex="1" parent="aiIJosweRKsWauaOWvsQ-66">
          <mxGeometry x="810" width="30" height="40" as="geometry">
            <mxRectangle width="30" height="40" as="alternateBounds" />
          </mxGeometry>
        </mxCell>
        <mxCell id="aiIJosweRKsWauaOWvsQ-113" value="F" style="shape=partialRectangle;html=1;whiteSpace=wrap;connectable=0;strokeColor=inherit;overflow=hidden;fillColor=none;top=0;left=0;bottom=0;right=0;pointerEvents=1;fontSize=16;fontColor=#00FF00;" vertex="1" parent="aiIJosweRKsWauaOWvsQ-66">
          <mxGeometry x="840" width="30" height="40" as="geometry">
            <mxRectangle width="30" height="40" as="alternateBounds" />
          </mxGeometry>
        </mxCell>
        <mxCell id="aiIJosweRKsWauaOWvsQ-114" value="-" style="shape=partialRectangle;html=1;whiteSpace=wrap;connectable=0;strokeColor=inherit;overflow=hidden;fillColor=none;top=0;left=0;bottom=0;right=0;pointerEvents=1;fontSize=16;fontColor=#00FF00;" vertex="1" parent="aiIJosweRKsWauaOWvsQ-66">
          <mxGeometry x="870" width="30" height="40" as="geometry">
            <mxRectangle width="30" height="40" as="alternateBounds" />
          </mxGeometry>
        </mxCell>
        <mxCell id="aiIJosweRKsWauaOWvsQ-115" value="X" style="shape=partialRectangle;html=1;whiteSpace=wrap;connectable=0;strokeColor=inherit;overflow=hidden;fillColor=none;top=0;left=0;bottom=0;right=0;pointerEvents=1;fontSize=16;fontColor=#00FF00;" vertex="1" parent="aiIJosweRKsWauaOWvsQ-66">
          <mxGeometry x="900" width="30" height="40" as="geometry">
            <mxRectangle width="30" height="40" as="alternateBounds" />
          </mxGeometry>
        </mxCell>
        <mxCell id="aiIJosweRKsWauaOWvsQ-116" value="F" style="shape=partialRectangle;html=1;whiteSpace=wrap;connectable=0;strokeColor=inherit;overflow=hidden;fillColor=none;top=0;left=0;bottom=0;right=0;pointerEvents=1;fontSize=16;fontColor=#00FF00;" vertex="1" parent="aiIJosweRKsWauaOWvsQ-66">
          <mxGeometry x="930" width="30" height="40" as="geometry">
            <mxRectangle width="30" height="40" as="alternateBounds" />
          </mxGeometry>
        </mxCell>
        <mxCell id="aiIJosweRKsWauaOWvsQ-117" value="X" style="shape=partialRectangle;html=1;whiteSpace=wrap;connectable=0;strokeColor=inherit;overflow=hidden;fillColor=none;top=0;left=0;bottom=0;right=0;pointerEvents=1;fontSize=16;fontColor=#00FF00;" vertex="1" parent="aiIJosweRKsWauaOWvsQ-66">
          <mxGeometry x="960" width="30" height="40" as="geometry">
            <mxRectangle width="30" height="40" as="alternateBounds" />
          </mxGeometry>
        </mxCell>
        <mxCell id="aiIJosweRKsWauaOWvsQ-149" value="-" style="shape=partialRectangle;html=1;whiteSpace=wrap;connectable=0;strokeColor=inherit;overflow=hidden;fillColor=none;top=0;left=0;bottom=0;right=0;pointerEvents=1;fontSize=16;fontColor=#00FF00;" vertex="1" parent="aiIJosweRKsWauaOWvsQ-66">
          <mxGeometry x="990" width="30" height="40" as="geometry">
            <mxRectangle width="30" height="40" as="alternateBounds" />
          </mxGeometry>
        </mxCell>
        <mxCell id="aiIJosweRKsWauaOWvsQ-150" value="F" style="shape=partialRectangle;html=1;whiteSpace=wrap;connectable=0;strokeColor=inherit;overflow=hidden;fillColor=none;top=0;left=0;bottom=0;right=0;pointerEvents=1;fontSize=16;fontColor=#00FF00;" vertex="1" parent="aiIJosweRKsWauaOWvsQ-66">
          <mxGeometry x="1020" width="30" height="40" as="geometry">
            <mxRectangle width="30" height="40" as="alternateBounds" />
          </mxGeometry>
        </mxCell>
        <mxCell id="aiIJosweRKsWauaOWvsQ-151" value="Y" style="shape=partialRectangle;html=1;whiteSpace=wrap;connectable=0;strokeColor=inherit;overflow=hidden;fillColor=none;top=0;left=0;bottom=0;right=0;pointerEvents=1;fontSize=16;fontColor=#00FF00;" vertex="1" parent="aiIJosweRKsWauaOWvsQ-66">
          <mxGeometry x="1050" width="30" height="40" as="geometry">
            <mxRectangle width="30" height="40" as="alternateBounds" />
          </mxGeometry>
        </mxCell>
        <mxCell id="aiIJosweRKsWauaOWvsQ-152" value="+" style="shape=partialRectangle;html=1;whiteSpace=wrap;connectable=0;strokeColor=inherit;overflow=hidden;fillColor=none;top=0;left=0;bottom=0;right=0;pointerEvents=1;fontSize=16;fontColor=#00FF00;" vertex="1" parent="aiIJosweRKsWauaOWvsQ-66">
          <mxGeometry x="1080" width="30" height="40" as="geometry">
            <mxRectangle width="30" height="40" as="alternateBounds" />
          </mxGeometry>
        </mxCell>
        <mxCell id="aiIJosweRKsWauaOWvsQ-153" value="-" style="shape=partialRectangle;html=1;whiteSpace=wrap;connectable=0;strokeColor=inherit;overflow=hidden;fillColor=none;top=0;left=0;bottom=0;right=0;pointerEvents=1;fontSize=16;fontColor=#FF8000;fontStyle=1" vertex="1" parent="aiIJosweRKsWauaOWvsQ-66">
          <mxGeometry x="1110" width="30" height="40" as="geometry">
            <mxRectangle width="30" height="40" as="alternateBounds" />
          </mxGeometry>
        </mxCell>
        <mxCell id="aiIJosweRKsWauaOWvsQ-154" value="F" style="shape=partialRectangle;html=1;whiteSpace=wrap;connectable=0;strokeColor=inherit;overflow=hidden;fillColor=none;top=0;left=0;bottom=0;right=0;pointerEvents=1;fontSize=16;fontColor=#FF8000;fontStyle=1" vertex="1" parent="aiIJosweRKsWauaOWvsQ-66">
          <mxGeometry x="1140" width="30" height="40" as="geometry">
            <mxRectangle width="30" height="40" as="alternateBounds" />
          </mxGeometry>
        </mxCell>
        <mxCell id="aiIJosweRKsWauaOWvsQ-155" value="-" style="shape=partialRectangle;html=1;whiteSpace=wrap;connectable=0;strokeColor=inherit;overflow=hidden;fillColor=none;top=0;left=0;bottom=0;right=0;pointerEvents=1;fontSize=16;fontColor=#FF3399;" vertex="1" parent="aiIJosweRKsWauaOWvsQ-66">
          <mxGeometry x="1170" width="30" height="40" as="geometry">
            <mxRectangle width="30" height="40" as="alternateBounds" />
          </mxGeometry>
        </mxCell>
        <mxCell id="aiIJosweRKsWauaOWvsQ-156" value="X" style="shape=partialRectangle;html=1;whiteSpace=wrap;connectable=0;strokeColor=inherit;overflow=hidden;fillColor=none;top=0;left=0;bottom=0;right=0;pointerEvents=1;fontSize=16;fontColor=#FF3399;" vertex="1" parent="aiIJosweRKsWauaOWvsQ-66">
          <mxGeometry x="1200" width="30" height="40" as="geometry">
            <mxRectangle width="30" height="40" as="alternateBounds" />
          </mxGeometry>
        </mxCell>
        <mxCell id="aiIJosweRKsWauaOWvsQ-157" value="F" style="shape=partialRectangle;html=1;whiteSpace=wrap;connectable=0;strokeColor=inherit;overflow=hidden;fillColor=none;top=0;left=0;bottom=0;right=0;pointerEvents=1;fontSize=16;fontColor=#FF3399;" vertex="1" parent="aiIJosweRKsWauaOWvsQ-66">
          <mxGeometry x="1230" width="30" height="40" as="geometry">
            <mxRectangle width="30" height="40" as="alternateBounds" />
          </mxGeometry>
        </mxCell>
        <mxCell id="aiIJosweRKsWauaOWvsQ-158" value="+" style="shape=partialRectangle;html=1;whiteSpace=wrap;connectable=0;strokeColor=inherit;overflow=hidden;fillColor=none;top=0;left=0;bottom=0;right=0;pointerEvents=1;fontSize=16;fontColor=#FF3399;" vertex="1" parent="aiIJosweRKsWauaOWvsQ-66">
          <mxGeometry x="1260" width="30" height="40" as="geometry">
            <mxRectangle width="30" height="40" as="alternateBounds" />
          </mxGeometry>
        </mxCell>
        <mxCell id="aiIJosweRKsWauaOWvsQ-159" value="Y" style="shape=partialRectangle;html=1;whiteSpace=wrap;connectable=0;strokeColor=inherit;overflow=hidden;fillColor=none;top=0;left=0;bottom=0;right=0;pointerEvents=1;fontSize=16;fontColor=#FF3399;" vertex="1" parent="aiIJosweRKsWauaOWvsQ-66">
          <mxGeometry x="1290" width="30" height="40" as="geometry">
            <mxRectangle width="30" height="40" as="alternateBounds" />
          </mxGeometry>
        </mxCell>
        <mxCell id="aiIJosweRKsWauaOWvsQ-160" value="F" style="shape=partialRectangle;html=1;whiteSpace=wrap;connectable=0;strokeColor=inherit;overflow=hidden;fillColor=none;top=0;left=0;bottom=0;right=0;pointerEvents=1;fontSize=16;fontColor=#FF3399;" vertex="1" parent="aiIJosweRKsWauaOWvsQ-66">
          <mxGeometry x="1320" width="30" height="40" as="geometry">
            <mxRectangle width="30" height="40" as="alternateBounds" />
          </mxGeometry>
        </mxCell>
        <mxCell id="aiIJosweRKsWauaOWvsQ-161" value="Y" style="shape=partialRectangle;html=1;whiteSpace=wrap;connectable=0;strokeColor=inherit;overflow=hidden;fillColor=none;top=0;left=0;bottom=0;right=0;pointerEvents=1;fontSize=16;fontColor=#FF3399;" vertex="1" parent="aiIJosweRKsWauaOWvsQ-66">
          <mxGeometry x="1350" width="30" height="40" as="geometry">
            <mxRectangle width="30" height="40" as="alternateBounds" />
          </mxGeometry>
        </mxCell>
        <mxCell id="aiIJosweRKsWauaOWvsQ-162" value="+" style="shape=partialRectangle;html=1;whiteSpace=wrap;connectable=0;strokeColor=inherit;overflow=hidden;fillColor=none;top=0;left=0;bottom=0;right=0;pointerEvents=1;fontSize=16;fontColor=#FF3399;" vertex="1" parent="aiIJosweRKsWauaOWvsQ-66">
          <mxGeometry x="1380" width="30" height="40" as="geometry">
            <mxRectangle width="30" height="40" as="alternateBounds" />
          </mxGeometry>
        </mxCell>
        <mxCell id="aiIJosweRKsWauaOWvsQ-163" value="F" style="shape=partialRectangle;html=1;whiteSpace=wrap;connectable=0;strokeColor=inherit;overflow=hidden;fillColor=none;top=0;left=0;bottom=0;right=0;pointerEvents=1;fontSize=16;fontColor=#FF3399;" vertex="1" parent="aiIJosweRKsWauaOWvsQ-66">
          <mxGeometry x="1410" width="30" height="40" as="geometry">
            <mxRectangle width="30" height="40" as="alternateBounds" />
          </mxGeometry>
        </mxCell>
        <mxCell id="aiIJosweRKsWauaOWvsQ-164" value="X" style="shape=partialRectangle;html=1;whiteSpace=wrap;connectable=0;strokeColor=inherit;overflow=hidden;fillColor=none;top=0;left=0;bottom=0;right=0;pointerEvents=1;fontSize=16;fontColor=#FF3399;" vertex="1" parent="aiIJosweRKsWauaOWvsQ-66">
          <mxGeometry x="1440" width="30" height="40" as="geometry">
            <mxRectangle width="30" height="40" as="alternateBounds" />
          </mxGeometry>
        </mxCell>
        <mxCell id="aiIJosweRKsWauaOWvsQ-165" value="-" style="shape=partialRectangle;html=1;whiteSpace=wrap;connectable=0;strokeColor=inherit;overflow=hidden;fillColor=none;top=0;left=0;bottom=0;right=0;pointerEvents=1;fontSize=16;fontColor=#FF3399;" vertex="1" parent="aiIJosweRKsWauaOWvsQ-66">
          <mxGeometry x="1470" width="30" height="40" as="geometry">
            <mxRectangle width="30" height="40" as="alternateBounds" />
          </mxGeometry>
        </mxCell>
        <mxCell id="aiIJosweRKsWauaOWvsQ-166" value="+" style="shape=partialRectangle;html=1;whiteSpace=wrap;connectable=0;strokeColor=inherit;overflow=hidden;fillColor=none;top=0;left=0;bottom=0;right=0;pointerEvents=1;fontSize=16;fontColor=#FF8000;fontStyle=1" vertex="1" parent="aiIJosweRKsWauaOWvsQ-66">
          <mxGeometry x="1500" width="30" height="40" as="geometry">
            <mxRectangle width="30" height="40" as="alternateBounds" />
          </mxGeometry>
        </mxCell>
        <mxCell id="aiIJosweRKsWauaOWvsQ-140" value="" style="endArrow=none;html=1;rounded=0;entryX=0.214;entryY=1.041;entryDx=0;entryDy=0;entryPerimeter=0;exitX=0.246;exitY=-0.02;exitDx=0;exitDy=0;exitPerimeter=0;" edge="1" parent="1" source="aiIJosweRKsWauaOWvsQ-66" target="aiIJosweRKsWauaOWvsQ-53">
          <mxGeometry width="50" height="50" relative="1" as="geometry">
            <mxPoint x="2890" y="270" as="sourcePoint" />
            <mxPoint x="2940" y="220" as="targetPoint" />
          </mxGeometry>
        </mxCell>
        <mxCell id="aiIJosweRKsWauaOWvsQ-141" value="" style="endArrow=none;html=1;rounded=0;entryX=0.314;entryY=1.012;entryDx=0;entryDy=0;entryPerimeter=0;exitX=0.266;exitY=0.049;exitDx=0;exitDy=0;exitPerimeter=0;" edge="1" parent="1" source="aiIJosweRKsWauaOWvsQ-66" target="aiIJosweRKsWauaOWvsQ-53">
          <mxGeometry width="50" height="50" relative="1" as="geometry">
            <mxPoint x="2990" y="260" as="sourcePoint" />
            <mxPoint x="3040" y="210" as="targetPoint" />
          </mxGeometry>
        </mxCell>
        <mxCell id="aiIJosweRKsWauaOWvsQ-142" value="" style="endArrow=none;html=1;rounded=0;entryX=0.496;entryY=-0.02;entryDx=0;entryDy=0;entryPerimeter=0;exitX=0.501;exitY=1.071;exitDx=0;exitDy=0;exitPerimeter=0;" edge="1" parent="1" source="aiIJosweRKsWauaOWvsQ-53" target="aiIJosweRKsWauaOWvsQ-66">
          <mxGeometry width="50" height="50" relative="1" as="geometry">
            <mxPoint x="3190" y="260" as="sourcePoint" />
            <mxPoint x="3240" y="210" as="targetPoint" />
          </mxGeometry>
        </mxCell>
        <mxCell id="aiIJosweRKsWauaOWvsQ-171" value="" style="endArrow=none;html=1;rounded=0;entryX=0.733;entryY=-0.037;entryDx=0;entryDy=0;entryPerimeter=0;exitX=0.68;exitY=1.012;exitDx=0;exitDy=0;exitPerimeter=0;" edge="1" parent="1" source="aiIJosweRKsWauaOWvsQ-53" target="aiIJosweRKsWauaOWvsQ-66">
          <mxGeometry width="50" height="50" relative="1" as="geometry">
            <mxPoint x="3390" y="213" as="sourcePoint" />
            <mxPoint x="3493" y="279" as="targetPoint" />
          </mxGeometry>
        </mxCell>
        <mxCell id="aiIJosweRKsWauaOWvsQ-172" value="" style="endArrow=none;html=1;rounded=0;entryX=0.753;entryY=-0.037;entryDx=0;entryDy=0;entryPerimeter=0;exitX=0.68;exitY=1.012;exitDx=0;exitDy=0;exitPerimeter=0;" edge="1" parent="1" target="aiIJosweRKsWauaOWvsQ-66">
          <mxGeometry width="50" height="50" relative="1" as="geometry">
            <mxPoint x="3370" y="200" as="sourcePoint" />
            <mxPoint x="3720" y="270" as="targetPoint" />
          </mxGeometry>
        </mxCell>
        <mxCell id="aiIJosweRKsWauaOWvsQ-39" value="" style="shape=table;startSize=0;container=1;collapsible=0;childLayout=tableLayout;fontSize=16;strokeColor=#FF3399;" vertex="1" parent="1">
          <mxGeometry x="3355" y="80" width="660" height="40" as="geometry" />
        </mxCell>
        <mxCell id="aiIJosweRKsWauaOWvsQ-40" value="" style="shape=tableRow;horizontal=0;startSize=0;swimlaneHead=0;swimlaneBody=0;strokeColor=inherit;top=0;left=0;bottom=0;right=0;collapsible=0;dropTarget=0;fillColor=none;points=[[0,0.5],[1,0.5]];portConstraint=eastwest;fontSize=16;enumerate=0;expand=1;part=0;" vertex="1" parent="aiIJosweRKsWauaOWvsQ-39">
          <mxGeometry width="660" height="40" as="geometry" />
        </mxCell>
        <mxCell id="aiIJosweRKsWauaOWvsQ-41" value="-" style="shape=partialRectangle;html=1;whiteSpace=wrap;connectable=0;strokeColor=inherit;overflow=hidden;fillColor=none;top=0;left=0;bottom=0;right=0;pointerEvents=1;fontSize=16;" vertex="1" parent="aiIJosweRKsWauaOWvsQ-40">
          <mxGeometry width="60" height="40" as="geometry">
            <mxRectangle width="60" height="40" as="alternateBounds" />
          </mxGeometry>
        </mxCell>
        <mxCell id="aiIJosweRKsWauaOWvsQ-42" value="X" style="shape=partialRectangle;html=1;whiteSpace=wrap;connectable=0;strokeColor=inherit;overflow=hidden;fillColor=none;top=0;left=0;bottom=0;right=0;pointerEvents=1;fontSize=16;" vertex="1" parent="aiIJosweRKsWauaOWvsQ-40">
          <mxGeometry x="60" width="60" height="40" as="geometry">
            <mxRectangle width="60" height="40" as="alternateBounds" />
          </mxGeometry>
        </mxCell>
        <mxCell id="aiIJosweRKsWauaOWvsQ-43" value="F" style="shape=partialRectangle;html=1;whiteSpace=wrap;connectable=0;strokeColor=inherit;overflow=hidden;fillColor=none;top=0;left=0;bottom=0;right=0;pointerEvents=1;fontSize=16;" vertex="1" parent="aiIJosweRKsWauaOWvsQ-40">
          <mxGeometry x="120" width="60" height="40" as="geometry">
            <mxRectangle width="60" height="40" as="alternateBounds" />
          </mxGeometry>
        </mxCell>
        <mxCell id="aiIJosweRKsWauaOWvsQ-44" value="+" style="shape=partialRectangle;html=1;whiteSpace=wrap;connectable=0;strokeColor=inherit;overflow=hidden;fillColor=none;top=0;left=0;bottom=0;right=0;pointerEvents=1;fontSize=16;" vertex="1" parent="aiIJosweRKsWauaOWvsQ-40">
          <mxGeometry x="180" width="60" height="40" as="geometry">
            <mxRectangle width="60" height="40" as="alternateBounds" />
          </mxGeometry>
        </mxCell>
        <mxCell id="aiIJosweRKsWauaOWvsQ-45" value="Y" style="shape=partialRectangle;html=1;whiteSpace=wrap;connectable=0;strokeColor=inherit;overflow=hidden;fillColor=none;top=0;left=0;bottom=0;right=0;pointerEvents=1;fontSize=16;" vertex="1" parent="aiIJosweRKsWauaOWvsQ-40">
          <mxGeometry x="240" width="60" height="40" as="geometry">
            <mxRectangle width="60" height="40" as="alternateBounds" />
          </mxGeometry>
        </mxCell>
        <mxCell id="aiIJosweRKsWauaOWvsQ-46" value="F" style="shape=partialRectangle;html=1;whiteSpace=wrap;connectable=0;strokeColor=inherit;overflow=hidden;fillColor=none;top=0;left=0;bottom=0;right=0;pointerEvents=1;fontSize=16;" vertex="1" parent="aiIJosweRKsWauaOWvsQ-40">
          <mxGeometry x="300" width="60" height="40" as="geometry">
            <mxRectangle width="60" height="40" as="alternateBounds" />
          </mxGeometry>
        </mxCell>
        <mxCell id="aiIJosweRKsWauaOWvsQ-47" value="Y" style="shape=partialRectangle;html=1;whiteSpace=wrap;connectable=0;strokeColor=inherit;overflow=hidden;fillColor=none;top=0;left=0;bottom=0;right=0;pointerEvents=1;fontSize=16;" vertex="1" parent="aiIJosweRKsWauaOWvsQ-40">
          <mxGeometry x="360" width="60" height="40" as="geometry">
            <mxRectangle width="60" height="40" as="alternateBounds" />
          </mxGeometry>
        </mxCell>
        <mxCell id="aiIJosweRKsWauaOWvsQ-48" value="+" style="shape=partialRectangle;html=1;whiteSpace=wrap;connectable=0;strokeColor=inherit;overflow=hidden;fillColor=none;top=0;left=0;bottom=0;right=0;pointerEvents=1;fontSize=16;" vertex="1" parent="aiIJosweRKsWauaOWvsQ-40">
          <mxGeometry x="420" width="60" height="40" as="geometry">
            <mxRectangle width="60" height="40" as="alternateBounds" />
          </mxGeometry>
        </mxCell>
        <mxCell id="aiIJosweRKsWauaOWvsQ-49" value="F" style="shape=partialRectangle;html=1;whiteSpace=wrap;connectable=0;strokeColor=inherit;overflow=hidden;fillColor=none;top=0;left=0;bottom=0;right=0;pointerEvents=1;fontSize=16;" vertex="1" parent="aiIJosweRKsWauaOWvsQ-40">
          <mxGeometry x="480" width="60" height="40" as="geometry">
            <mxRectangle width="60" height="40" as="alternateBounds" />
          </mxGeometry>
        </mxCell>
        <mxCell id="aiIJosweRKsWauaOWvsQ-50" value="X" style="shape=partialRectangle;html=1;whiteSpace=wrap;connectable=0;strokeColor=inherit;overflow=hidden;fillColor=none;top=0;left=0;bottom=0;right=0;pointerEvents=1;fontSize=16;" vertex="1" parent="aiIJosweRKsWauaOWvsQ-40">
          <mxGeometry x="540" width="60" height="40" as="geometry">
            <mxRectangle width="60" height="40" as="alternateBounds" />
          </mxGeometry>
        </mxCell>
        <mxCell id="aiIJosweRKsWauaOWvsQ-51" value="-" style="shape=partialRectangle;html=1;whiteSpace=wrap;connectable=0;strokeColor=inherit;overflow=hidden;fillColor=none;top=0;left=0;bottom=0;right=0;pointerEvents=1;fontSize=16;" vertex="1" parent="aiIJosweRKsWauaOWvsQ-40">
          <mxGeometry x="600" width="60" height="40" as="geometry">
            <mxRectangle width="60" height="40" as="alternateBounds" />
          </mxGeometry>
        </mxCell>
        <mxCell id="aiIJosweRKsWauaOWvsQ-399" value="" style="endArrow=none;html=1;rounded=0;entryX=0.989;entryY=-0.003;entryDx=0;entryDy=0;entryPerimeter=0;exitX=1;exitY=0.5;exitDx=0;exitDy=0;" edge="1" parent="1" source="aiIJosweRKsWauaOWvsQ-53" target="aiIJosweRKsWauaOWvsQ-66">
          <mxGeometry width="50" height="50" relative="1" as="geometry">
            <mxPoint x="3540" y="180" as="sourcePoint" />
            <mxPoint x="3852" y="249" as="targetPoint" />
          </mxGeometry>
        </mxCell>
        <mxCell id="aiIJosweRKsWauaOWvsQ-400" value="" style="shape=table;startSize=0;container=1;collapsible=0;childLayout=tableLayout;fontSize=16;strokeColor=#00FFFF;" vertex="1" parent="1">
          <mxGeometry x="40" y="440" width="1650" height="40" as="geometry" />
        </mxCell>
        <mxCell id="aiIJosweRKsWauaOWvsQ-401" value="" style="shape=tableRow;horizontal=0;startSize=0;swimlaneHead=0;swimlaneBody=0;strokeColor=inherit;top=0;left=0;bottom=0;right=0;collapsible=0;dropTarget=0;fillColor=none;points=[[0,0.5],[1,0.5]];portConstraint=eastwest;fontSize=16;enumerate=0;expand=1;part=0;" vertex="1" parent="aiIJosweRKsWauaOWvsQ-400">
          <mxGeometry width="1650" height="40" as="geometry" />
        </mxCell>
        <mxCell id="aiIJosweRKsWauaOWvsQ-402" value="+" style="shape=partialRectangle;html=1;whiteSpace=wrap;connectable=0;strokeColor=inherit;overflow=hidden;fillColor=none;top=0;left=0;bottom=0;right=0;pointerEvents=1;fontSize=16;fontStyle=1;fontColor=#FF8000;" vertex="1" parent="aiIJosweRKsWauaOWvsQ-401">
          <mxGeometry width="30" height="40" as="geometry">
            <mxRectangle width="30" height="40" as="alternateBounds" />
          </mxGeometry>
        </mxCell>
        <mxCell id="aiIJosweRKsWauaOWvsQ-403" value="-" style="shape=partialRectangle;html=1;whiteSpace=wrap;connectable=0;strokeColor=inherit;overflow=hidden;fillColor=none;top=0;left=0;bottom=0;right=0;pointerEvents=1;fontSize=16;fontColor=#FF8000;fontStyle=1" vertex="1" parent="aiIJosweRKsWauaOWvsQ-401">
          <mxGeometry x="30" width="30" height="40" as="geometry">
            <mxRectangle width="30" height="40" as="alternateBounds" />
          </mxGeometry>
        </mxCell>
        <mxCell id="aiIJosweRKsWauaOWvsQ-404" value="+" style="shape=partialRectangle;html=1;whiteSpace=wrap;connectable=0;strokeColor=inherit;overflow=hidden;fillColor=none;top=0;left=0;bottom=0;right=0;pointerEvents=1;fontSize=16;fontColor=#00FF00;" vertex="1" parent="aiIJosweRKsWauaOWvsQ-401">
          <mxGeometry x="60" width="30" height="40" as="geometry">
            <mxRectangle width="30" height="40" as="alternateBounds" />
          </mxGeometry>
        </mxCell>
        <mxCell id="aiIJosweRKsWauaOWvsQ-405" value="Y" style="shape=partialRectangle;html=1;whiteSpace=wrap;connectable=0;strokeColor=inherit;overflow=hidden;fillColor=none;top=0;left=0;bottom=0;right=0;pointerEvents=1;fontSize=16;fontColor=#00FF00;" vertex="1" parent="aiIJosweRKsWauaOWvsQ-401">
          <mxGeometry x="90" width="30" height="40" as="geometry">
            <mxRectangle width="30" height="40" as="alternateBounds" />
          </mxGeometry>
        </mxCell>
        <mxCell id="aiIJosweRKsWauaOWvsQ-406" value="F" style="shape=partialRectangle;html=1;whiteSpace=wrap;connectable=0;strokeColor=inherit;overflow=hidden;fillColor=none;top=0;left=0;bottom=0;right=0;pointerEvents=1;fontSize=16;fontColor=#00FF00;" vertex="1" parent="aiIJosweRKsWauaOWvsQ-401">
          <mxGeometry x="120" width="30" height="40" as="geometry">
            <mxRectangle width="30" height="40" as="alternateBounds" />
          </mxGeometry>
        </mxCell>
        <mxCell id="aiIJosweRKsWauaOWvsQ-407" value="-" style="shape=partialRectangle;html=1;whiteSpace=wrap;connectable=0;strokeColor=inherit;overflow=hidden;fillColor=none;top=0;left=0;bottom=0;right=0;pointerEvents=1;fontSize=16;fontColor=#00FF00;" vertex="1" parent="aiIJosweRKsWauaOWvsQ-401">
          <mxGeometry x="150" width="30" height="40" as="geometry">
            <mxRectangle width="30" height="40" as="alternateBounds" />
          </mxGeometry>
        </mxCell>
        <mxCell id="aiIJosweRKsWauaOWvsQ-408" value="X" style="shape=partialRectangle;html=1;whiteSpace=wrap;connectable=0;strokeColor=inherit;overflow=hidden;fillColor=none;top=0;left=0;bottom=0;right=0;pointerEvents=1;fontSize=16;fontColor=#00FF00;" vertex="1" parent="aiIJosweRKsWauaOWvsQ-401">
          <mxGeometry x="180" width="30" height="40" as="geometry">
            <mxRectangle width="30" height="40" as="alternateBounds" />
          </mxGeometry>
        </mxCell>
        <mxCell id="aiIJosweRKsWauaOWvsQ-409" value="F" style="shape=partialRectangle;html=1;whiteSpace=wrap;connectable=0;strokeColor=inherit;overflow=hidden;fillColor=none;top=0;left=0;bottom=0;right=0;pointerEvents=1;fontSize=16;fontColor=#00FF00;" vertex="1" parent="aiIJosweRKsWauaOWvsQ-401">
          <mxGeometry x="210" width="30" height="40" as="geometry">
            <mxRectangle width="30" height="40" as="alternateBounds" />
          </mxGeometry>
        </mxCell>
        <mxCell id="aiIJosweRKsWauaOWvsQ-410" value="X" style="shape=partialRectangle;html=1;whiteSpace=wrap;connectable=0;strokeColor=inherit;overflow=hidden;fillColor=none;top=0;left=0;bottom=0;right=0;pointerEvents=1;fontSize=16;fontColor=#00FF00;" vertex="1" parent="aiIJosweRKsWauaOWvsQ-401">
          <mxGeometry x="240" width="30" height="40" as="geometry">
            <mxRectangle width="30" height="40" as="alternateBounds" />
          </mxGeometry>
        </mxCell>
        <mxCell id="aiIJosweRKsWauaOWvsQ-411" value="-" style="shape=partialRectangle;html=1;whiteSpace=wrap;connectable=0;strokeColor=inherit;overflow=hidden;fillColor=none;top=0;left=0;bottom=0;right=0;pointerEvents=1;fontSize=16;fontColor=#00FF00;" vertex="1" parent="aiIJosweRKsWauaOWvsQ-401">
          <mxGeometry x="270" width="30" height="40" as="geometry">
            <mxRectangle width="30" height="40" as="alternateBounds" />
          </mxGeometry>
        </mxCell>
        <mxCell id="aiIJosweRKsWauaOWvsQ-412" value="F" style="shape=partialRectangle;html=1;whiteSpace=wrap;connectable=0;strokeColor=inherit;overflow=hidden;fillColor=none;top=0;left=0;bottom=0;right=0;pointerEvents=1;fontSize=16;fontColor=#00FF00;" vertex="1" parent="aiIJosweRKsWauaOWvsQ-401">
          <mxGeometry x="300" width="30" height="40" as="geometry">
            <mxRectangle width="30" height="40" as="alternateBounds" />
          </mxGeometry>
        </mxCell>
        <mxCell id="aiIJosweRKsWauaOWvsQ-413" value="Y" style="shape=partialRectangle;html=1;whiteSpace=wrap;connectable=0;strokeColor=inherit;overflow=hidden;fillColor=none;top=0;left=0;bottom=0;right=0;pointerEvents=1;fontSize=16;fontColor=#00FF00;" vertex="1" parent="aiIJosweRKsWauaOWvsQ-401">
          <mxGeometry x="330" width="30" height="40" as="geometry">
            <mxRectangle width="30" height="40" as="alternateBounds" />
          </mxGeometry>
        </mxCell>
        <mxCell id="aiIJosweRKsWauaOWvsQ-414" value="+" style="shape=partialRectangle;html=1;whiteSpace=wrap;connectable=0;strokeColor=inherit;overflow=hidden;fillColor=none;top=0;left=0;bottom=0;right=0;pointerEvents=1;fontSize=16;fontColor=#00FF00;" vertex="1" parent="aiIJosweRKsWauaOWvsQ-401">
          <mxGeometry x="360" width="30" height="40" as="geometry">
            <mxRectangle width="30" height="40" as="alternateBounds" />
          </mxGeometry>
        </mxCell>
        <mxCell id="aiIJosweRKsWauaOWvsQ-415" value="F" style="shape=partialRectangle;html=1;whiteSpace=wrap;connectable=0;strokeColor=inherit;overflow=hidden;fillColor=none;top=0;left=0;bottom=0;right=0;pointerEvents=1;fontSize=16;fontStyle=1;fontColor=#FF8000;" vertex="1" parent="aiIJosweRKsWauaOWvsQ-401">
          <mxGeometry x="390" width="30" height="40" as="geometry">
            <mxRectangle width="30" height="40" as="alternateBounds" />
          </mxGeometry>
        </mxCell>
        <mxCell id="aiIJosweRKsWauaOWvsQ-416" value="+" style="shape=partialRectangle;html=1;whiteSpace=wrap;connectable=0;strokeColor=inherit;overflow=hidden;fillColor=none;top=0;left=0;bottom=0;right=0;pointerEvents=1;fontSize=16;fontStyle=1;fontColor=#FF8000;" vertex="1" parent="aiIJosweRKsWauaOWvsQ-401">
          <mxGeometry x="420" width="30" height="40" as="geometry">
            <mxRectangle width="30" height="40" as="alternateBounds" />
          </mxGeometry>
        </mxCell>
        <mxCell id="aiIJosweRKsWauaOWvsQ-417" value="-" style="shape=partialRectangle;html=1;whiteSpace=wrap;connectable=0;strokeColor=inherit;overflow=hidden;fillColor=none;top=0;left=0;bottom=0;right=0;pointerEvents=1;fontSize=16;fontColor=#FF3399;" vertex="1" parent="aiIJosweRKsWauaOWvsQ-401">
          <mxGeometry x="450" width="30" height="40" as="geometry">
            <mxRectangle width="30" height="40" as="alternateBounds" />
          </mxGeometry>
        </mxCell>
        <mxCell id="aiIJosweRKsWauaOWvsQ-418" value="X" style="shape=partialRectangle;html=1;whiteSpace=wrap;connectable=0;strokeColor=inherit;overflow=hidden;fillColor=none;top=0;left=0;bottom=0;right=0;pointerEvents=1;fontSize=16;fontColor=#FF3399;" vertex="1" parent="aiIJosweRKsWauaOWvsQ-401">
          <mxGeometry x="480" width="30" height="40" as="geometry">
            <mxRectangle width="30" height="40" as="alternateBounds" />
          </mxGeometry>
        </mxCell>
        <mxCell id="aiIJosweRKsWauaOWvsQ-419" value="F" style="shape=partialRectangle;html=1;whiteSpace=wrap;connectable=0;strokeColor=inherit;overflow=hidden;fillColor=none;top=0;left=0;bottom=0;right=0;pointerEvents=1;fontSize=16;fontColor=#FF3399;" vertex="1" parent="aiIJosweRKsWauaOWvsQ-401">
          <mxGeometry x="510" width="30" height="40" as="geometry">
            <mxRectangle width="30" height="40" as="alternateBounds" />
          </mxGeometry>
        </mxCell>
        <mxCell id="aiIJosweRKsWauaOWvsQ-420" value="+" style="shape=partialRectangle;html=1;whiteSpace=wrap;connectable=0;strokeColor=inherit;overflow=hidden;fillColor=none;top=0;left=0;bottom=0;right=0;pointerEvents=1;fontSize=16;fontColor=#FF3399;" vertex="1" parent="aiIJosweRKsWauaOWvsQ-401">
          <mxGeometry x="540" width="30" height="40" as="geometry">
            <mxRectangle width="30" height="40" as="alternateBounds" />
          </mxGeometry>
        </mxCell>
        <mxCell id="aiIJosweRKsWauaOWvsQ-421" value="Y" style="shape=partialRectangle;html=1;whiteSpace=wrap;connectable=0;strokeColor=inherit;overflow=hidden;fillColor=none;top=0;left=0;bottom=0;right=0;pointerEvents=1;fontSize=16;fontColor=#FF3399;" vertex="1" parent="aiIJosweRKsWauaOWvsQ-401">
          <mxGeometry x="570" width="30" height="40" as="geometry">
            <mxRectangle width="30" height="40" as="alternateBounds" />
          </mxGeometry>
        </mxCell>
        <mxCell id="aiIJosweRKsWauaOWvsQ-422" value="F" style="shape=partialRectangle;html=1;whiteSpace=wrap;connectable=0;strokeColor=inherit;overflow=hidden;fillColor=none;top=0;left=0;bottom=0;right=0;pointerEvents=1;fontSize=16;fontColor=#FF3399;" vertex="1" parent="aiIJosweRKsWauaOWvsQ-401">
          <mxGeometry x="600" width="30" height="40" as="geometry">
            <mxRectangle width="30" height="40" as="alternateBounds" />
          </mxGeometry>
        </mxCell>
        <mxCell id="aiIJosweRKsWauaOWvsQ-423" value="Y" style="shape=partialRectangle;html=1;whiteSpace=wrap;connectable=0;strokeColor=inherit;overflow=hidden;fillColor=none;top=0;left=0;bottom=0;right=0;pointerEvents=1;fontSize=16;fontColor=#FF3399;" vertex="1" parent="aiIJosweRKsWauaOWvsQ-401">
          <mxGeometry x="630" width="30" height="40" as="geometry">
            <mxRectangle width="30" height="40" as="alternateBounds" />
          </mxGeometry>
        </mxCell>
        <mxCell id="aiIJosweRKsWauaOWvsQ-424" value="+" style="shape=partialRectangle;html=1;whiteSpace=wrap;connectable=0;strokeColor=inherit;overflow=hidden;fillColor=none;top=0;left=0;bottom=0;right=0;pointerEvents=1;fontSize=16;fontColor=#FF3399;" vertex="1" parent="aiIJosweRKsWauaOWvsQ-401">
          <mxGeometry x="660" width="30" height="40" as="geometry">
            <mxRectangle width="30" height="40" as="alternateBounds" />
          </mxGeometry>
        </mxCell>
        <mxCell id="aiIJosweRKsWauaOWvsQ-425" value="F" style="shape=partialRectangle;html=1;whiteSpace=wrap;connectable=0;strokeColor=inherit;overflow=hidden;fillColor=none;top=0;left=0;bottom=0;right=0;pointerEvents=1;fontSize=16;fontColor=#FF3399;" vertex="1" parent="aiIJosweRKsWauaOWvsQ-401">
          <mxGeometry x="690" width="30" height="40" as="geometry">
            <mxRectangle width="30" height="40" as="alternateBounds" />
          </mxGeometry>
        </mxCell>
        <mxCell id="aiIJosweRKsWauaOWvsQ-426" value="X" style="shape=partialRectangle;html=1;whiteSpace=wrap;connectable=0;strokeColor=inherit;overflow=hidden;fillColor=none;top=0;left=0;bottom=0;right=0;pointerEvents=1;fontSize=16;fontColor=#FF3399;" vertex="1" parent="aiIJosweRKsWauaOWvsQ-401">
          <mxGeometry x="720" width="30" height="40" as="geometry">
            <mxRectangle width="30" height="40" as="alternateBounds" />
          </mxGeometry>
        </mxCell>
        <mxCell id="aiIJosweRKsWauaOWvsQ-427" value="-" style="shape=partialRectangle;html=1;whiteSpace=wrap;connectable=0;strokeColor=inherit;overflow=hidden;fillColor=none;top=0;left=0;bottom=0;right=0;pointerEvents=1;fontSize=16;fontColor=#FF3399;" vertex="1" parent="aiIJosweRKsWauaOWvsQ-401">
          <mxGeometry x="750" width="30" height="40" as="geometry">
            <mxRectangle width="30" height="40" as="alternateBounds" />
          </mxGeometry>
        </mxCell>
        <mxCell id="aiIJosweRKsWauaOWvsQ-428" value="F" style="shape=partialRectangle;html=1;whiteSpace=wrap;connectable=0;strokeColor=inherit;overflow=hidden;fillColor=none;top=0;left=0;bottom=0;right=0;pointerEvents=1;fontSize=16;fontStyle=1;fontColor=#FF8000;" vertex="1" parent="aiIJosweRKsWauaOWvsQ-401">
          <mxGeometry x="780" width="30" height="40" as="geometry">
            <mxRectangle width="30" height="40" as="alternateBounds" />
          </mxGeometry>
        </mxCell>
        <mxCell id="aiIJosweRKsWauaOWvsQ-429" value="-" style="shape=partialRectangle;html=1;whiteSpace=wrap;connectable=0;strokeColor=inherit;overflow=hidden;fillColor=none;top=0;left=0;bottom=0;right=0;pointerEvents=1;fontSize=16;fontColor=#FF3399;" vertex="1" parent="aiIJosweRKsWauaOWvsQ-401">
          <mxGeometry x="810" width="30" height="40" as="geometry">
            <mxRectangle width="30" height="40" as="alternateBounds" />
          </mxGeometry>
        </mxCell>
        <mxCell id="aiIJosweRKsWauaOWvsQ-430" value="X" style="shape=partialRectangle;html=1;whiteSpace=wrap;connectable=0;strokeColor=inherit;overflow=hidden;fillColor=none;top=0;left=0;bottom=0;right=0;pointerEvents=1;fontSize=16;fontColor=#FF3399;" vertex="1" parent="aiIJosweRKsWauaOWvsQ-401">
          <mxGeometry x="840" width="30" height="40" as="geometry">
            <mxRectangle width="30" height="40" as="alternateBounds" />
          </mxGeometry>
        </mxCell>
        <mxCell id="aiIJosweRKsWauaOWvsQ-431" value="F" style="shape=partialRectangle;html=1;whiteSpace=wrap;connectable=0;strokeColor=inherit;overflow=hidden;fillColor=none;top=0;left=0;bottom=0;right=0;pointerEvents=1;fontSize=16;fontColor=#FF3399;" vertex="1" parent="aiIJosweRKsWauaOWvsQ-401">
          <mxGeometry x="870" width="30" height="40" as="geometry">
            <mxRectangle width="30" height="40" as="alternateBounds" />
          </mxGeometry>
        </mxCell>
        <mxCell id="aiIJosweRKsWauaOWvsQ-432" value="+" style="shape=partialRectangle;html=1;whiteSpace=wrap;connectable=0;strokeColor=inherit;overflow=hidden;fillColor=none;top=0;left=0;bottom=0;right=0;pointerEvents=1;fontSize=16;fontColor=#FF3399;" vertex="1" parent="aiIJosweRKsWauaOWvsQ-401">
          <mxGeometry x="900" width="30" height="40" as="geometry">
            <mxRectangle width="30" height="40" as="alternateBounds" />
          </mxGeometry>
        </mxCell>
        <mxCell id="aiIJosweRKsWauaOWvsQ-433" value="Y" style="shape=partialRectangle;html=1;whiteSpace=wrap;connectable=0;strokeColor=inherit;overflow=hidden;fillColor=none;top=0;left=0;bottom=0;right=0;pointerEvents=1;fontSize=16;fontColor=#FF3399;" vertex="1" parent="aiIJosweRKsWauaOWvsQ-401">
          <mxGeometry x="930" width="30" height="40" as="geometry">
            <mxRectangle width="30" height="40" as="alternateBounds" />
          </mxGeometry>
        </mxCell>
        <mxCell id="aiIJosweRKsWauaOWvsQ-434" value="F" style="shape=partialRectangle;html=1;whiteSpace=wrap;connectable=0;strokeColor=inherit;overflow=hidden;fillColor=none;top=0;left=0;bottom=0;right=0;pointerEvents=1;fontSize=16;fontColor=#FF3399;" vertex="1" parent="aiIJosweRKsWauaOWvsQ-401">
          <mxGeometry x="960" width="30" height="40" as="geometry">
            <mxRectangle width="30" height="40" as="alternateBounds" />
          </mxGeometry>
        </mxCell>
        <mxCell id="aiIJosweRKsWauaOWvsQ-435" value="Y" style="shape=partialRectangle;html=1;whiteSpace=wrap;connectable=0;strokeColor=inherit;overflow=hidden;fillColor=none;top=0;left=0;bottom=0;right=0;pointerEvents=1;fontSize=16;fontColor=#FF3399;" vertex="1" parent="aiIJosweRKsWauaOWvsQ-401">
          <mxGeometry x="990" width="30" height="40" as="geometry">
            <mxRectangle width="30" height="40" as="alternateBounds" />
          </mxGeometry>
        </mxCell>
        <mxCell id="aiIJosweRKsWauaOWvsQ-436" value="+" style="shape=partialRectangle;html=1;whiteSpace=wrap;connectable=0;strokeColor=inherit;overflow=hidden;fillColor=none;top=0;left=0;bottom=0;right=0;pointerEvents=1;fontSize=16;fontColor=#FF3399;" vertex="1" parent="aiIJosweRKsWauaOWvsQ-401">
          <mxGeometry x="1020" width="30" height="40" as="geometry">
            <mxRectangle width="30" height="40" as="alternateBounds" />
          </mxGeometry>
        </mxCell>
        <mxCell id="aiIJosweRKsWauaOWvsQ-437" value="F" style="shape=partialRectangle;html=1;whiteSpace=wrap;connectable=0;strokeColor=inherit;overflow=hidden;fillColor=none;top=0;left=0;bottom=0;right=0;pointerEvents=1;fontSize=16;fontColor=#FF3399;" vertex="1" parent="aiIJosweRKsWauaOWvsQ-401">
          <mxGeometry x="1050" width="30" height="40" as="geometry">
            <mxRectangle width="30" height="40" as="alternateBounds" />
          </mxGeometry>
        </mxCell>
        <mxCell id="aiIJosweRKsWauaOWvsQ-438" value="X" style="shape=partialRectangle;html=1;whiteSpace=wrap;connectable=0;strokeColor=inherit;overflow=hidden;fillColor=none;top=0;left=0;bottom=0;right=0;pointerEvents=1;fontSize=16;fontColor=#FF3399;" vertex="1" parent="aiIJosweRKsWauaOWvsQ-401">
          <mxGeometry x="1080" width="30" height="40" as="geometry">
            <mxRectangle width="30" height="40" as="alternateBounds" />
          </mxGeometry>
        </mxCell>
        <mxCell id="aiIJosweRKsWauaOWvsQ-439" value="-" style="shape=partialRectangle;html=1;whiteSpace=wrap;connectable=0;strokeColor=inherit;overflow=hidden;fillColor=none;top=0;left=0;bottom=0;right=0;pointerEvents=1;fontSize=16;fontColor=#FF3399;" vertex="1" parent="aiIJosweRKsWauaOWvsQ-401">
          <mxGeometry x="1110" width="30" height="40" as="geometry">
            <mxRectangle width="30" height="40" as="alternateBounds" />
          </mxGeometry>
        </mxCell>
        <mxCell id="aiIJosweRKsWauaOWvsQ-440" value="+" style="shape=partialRectangle;html=1;whiteSpace=wrap;connectable=0;strokeColor=inherit;overflow=hidden;fillColor=none;top=0;left=0;bottom=0;right=0;pointerEvents=1;fontSize=16;fontStyle=1;fontColor=#FF8000;" vertex="1" parent="aiIJosweRKsWauaOWvsQ-401">
          <mxGeometry x="1140" width="30" height="40" as="geometry">
            <mxRectangle width="30" height="40" as="alternateBounds" />
          </mxGeometry>
        </mxCell>
        <mxCell id="aiIJosweRKsWauaOWvsQ-441" value="F" style="shape=partialRectangle;html=1;whiteSpace=wrap;connectable=0;strokeColor=inherit;overflow=hidden;fillColor=none;top=0;left=0;bottom=0;right=0;pointerEvents=1;fontSize=16;fontStyle=1;fontColor=#FF8000;" vertex="1" parent="aiIJosweRKsWauaOWvsQ-401">
          <mxGeometry x="1170" width="30" height="40" as="geometry">
            <mxRectangle width="30" height="40" as="alternateBounds" />
          </mxGeometry>
        </mxCell>
        <mxCell id="aiIJosweRKsWauaOWvsQ-442" value="+" style="shape=partialRectangle;html=1;whiteSpace=wrap;connectable=0;strokeColor=inherit;overflow=hidden;fillColor=none;top=0;left=0;bottom=0;right=0;pointerEvents=1;fontSize=16;fontColor=#00FF00;" vertex="1" parent="aiIJosweRKsWauaOWvsQ-401">
          <mxGeometry x="1200" width="30" height="40" as="geometry">
            <mxRectangle width="30" height="40" as="alternateBounds" />
          </mxGeometry>
        </mxCell>
        <mxCell id="aiIJosweRKsWauaOWvsQ-443" value="Y" style="shape=partialRectangle;html=1;whiteSpace=wrap;connectable=0;strokeColor=inherit;overflow=hidden;fillColor=none;top=0;left=0;bottom=0;right=0;pointerEvents=1;fontSize=16;fontColor=#00FF00;" vertex="1" parent="aiIJosweRKsWauaOWvsQ-401">
          <mxGeometry x="1230" width="30" height="40" as="geometry">
            <mxRectangle width="30" height="40" as="alternateBounds" />
          </mxGeometry>
        </mxCell>
        <mxCell id="aiIJosweRKsWauaOWvsQ-444" value="F" style="shape=partialRectangle;html=1;whiteSpace=wrap;connectable=0;strokeColor=inherit;overflow=hidden;fillColor=none;top=0;left=0;bottom=0;right=0;pointerEvents=1;fontSize=16;fontColor=#00FF00;" vertex="1" parent="aiIJosweRKsWauaOWvsQ-401">
          <mxGeometry x="1260" width="30" height="40" as="geometry">
            <mxRectangle width="30" height="40" as="alternateBounds" />
          </mxGeometry>
        </mxCell>
        <mxCell id="aiIJosweRKsWauaOWvsQ-517" value="-" style="shape=partialRectangle;html=1;whiteSpace=wrap;connectable=0;strokeColor=inherit;overflow=hidden;fillColor=none;top=0;left=0;bottom=0;right=0;pointerEvents=1;fontSize=16;fontColor=#00FF00;" vertex="1" parent="aiIJosweRKsWauaOWvsQ-401">
          <mxGeometry x="1290" width="30" height="40" as="geometry">
            <mxRectangle width="30" height="40" as="alternateBounds" />
          </mxGeometry>
        </mxCell>
        <mxCell id="aiIJosweRKsWauaOWvsQ-445" value="X" style="shape=partialRectangle;html=1;whiteSpace=wrap;connectable=0;strokeColor=inherit;overflow=hidden;fillColor=none;top=0;left=0;bottom=0;right=0;pointerEvents=1;fontSize=16;fontColor=#00FF00;" vertex="1" parent="aiIJosweRKsWauaOWvsQ-401">
          <mxGeometry x="1320" width="30" height="40" as="geometry">
            <mxRectangle width="30" height="40" as="alternateBounds" />
          </mxGeometry>
        </mxCell>
        <mxCell id="aiIJosweRKsWauaOWvsQ-446" value="F" style="shape=partialRectangle;html=1;whiteSpace=wrap;connectable=0;strokeColor=inherit;overflow=hidden;fillColor=none;top=0;left=0;bottom=0;right=0;pointerEvents=1;fontSize=16;fontColor=#00FF00;" vertex="1" parent="aiIJosweRKsWauaOWvsQ-401">
          <mxGeometry x="1350" width="30" height="40" as="geometry">
            <mxRectangle width="30" height="40" as="alternateBounds" />
          </mxGeometry>
        </mxCell>
        <mxCell id="aiIJosweRKsWauaOWvsQ-447" value="X" style="shape=partialRectangle;html=1;whiteSpace=wrap;connectable=0;strokeColor=inherit;overflow=hidden;fillColor=none;top=0;left=0;bottom=0;right=0;pointerEvents=1;fontSize=16;fontColor=#00FF00;" vertex="1" parent="aiIJosweRKsWauaOWvsQ-401">
          <mxGeometry x="1380" width="30" height="40" as="geometry">
            <mxRectangle width="30" height="40" as="alternateBounds" />
          </mxGeometry>
        </mxCell>
        <mxCell id="aiIJosweRKsWauaOWvsQ-448" value="-" style="shape=partialRectangle;html=1;whiteSpace=wrap;connectable=0;strokeColor=inherit;overflow=hidden;fillColor=none;top=0;left=0;bottom=0;right=0;pointerEvents=1;fontSize=16;fontColor=#00FF00;" vertex="1" parent="aiIJosweRKsWauaOWvsQ-401">
          <mxGeometry x="1410" width="30" height="40" as="geometry">
            <mxRectangle width="30" height="40" as="alternateBounds" />
          </mxGeometry>
        </mxCell>
        <mxCell id="aiIJosweRKsWauaOWvsQ-449" value="F" style="shape=partialRectangle;html=1;whiteSpace=wrap;connectable=0;strokeColor=inherit;overflow=hidden;fillColor=none;top=0;left=0;bottom=0;right=0;pointerEvents=1;fontSize=16;fontColor=#00FF00;" vertex="1" parent="aiIJosweRKsWauaOWvsQ-401">
          <mxGeometry x="1440" width="30" height="40" as="geometry">
            <mxRectangle width="30" height="40" as="alternateBounds" />
          </mxGeometry>
        </mxCell>
        <mxCell id="aiIJosweRKsWauaOWvsQ-450" value="Y" style="shape=partialRectangle;html=1;whiteSpace=wrap;connectable=0;strokeColor=inherit;overflow=hidden;fillColor=none;top=0;left=0;bottom=0;right=0;pointerEvents=1;fontSize=16;fontColor=#00FF00;" vertex="1" parent="aiIJosweRKsWauaOWvsQ-401">
          <mxGeometry x="1470" width="30" height="40" as="geometry">
            <mxRectangle width="30" height="40" as="alternateBounds" />
          </mxGeometry>
        </mxCell>
        <mxCell id="aiIJosweRKsWauaOWvsQ-451" value="+" style="shape=partialRectangle;html=1;whiteSpace=wrap;connectable=0;strokeColor=inherit;overflow=hidden;fillColor=none;top=0;left=0;bottom=0;right=0;pointerEvents=1;fontSize=16;fontColor=#00FF00;" vertex="1" parent="aiIJosweRKsWauaOWvsQ-401">
          <mxGeometry x="1500" width="30" height="40" as="geometry">
            <mxRectangle width="30" height="40" as="alternateBounds" />
          </mxGeometry>
        </mxCell>
        <mxCell id="aiIJosweRKsWauaOWvsQ-452" value="-" style="shape=partialRectangle;html=1;whiteSpace=wrap;connectable=0;strokeColor=inherit;overflow=hidden;fillColor=none;top=0;left=0;bottom=0;right=0;pointerEvents=1;fontSize=16;fontColor=#FF8000;fontStyle=1" vertex="1" parent="aiIJosweRKsWauaOWvsQ-401">
          <mxGeometry x="1530" width="30" height="40" as="geometry">
            <mxRectangle width="30" height="40" as="alternateBounds" />
          </mxGeometry>
        </mxCell>
        <mxCell id="aiIJosweRKsWauaOWvsQ-453" value="F" style="shape=partialRectangle;html=1;whiteSpace=wrap;connectable=0;strokeColor=inherit;overflow=hidden;fillColor=none;top=0;left=0;bottom=0;right=0;pointerEvents=1;fontSize=16;fontColor=#FF8000;fontStyle=1" vertex="1" parent="aiIJosweRKsWauaOWvsQ-401">
          <mxGeometry x="1560" width="30" height="40" as="geometry">
            <mxRectangle width="30" height="40" as="alternateBounds" />
          </mxGeometry>
        </mxCell>
        <mxCell id="aiIJosweRKsWauaOWvsQ-454" value="-" style="shape=partialRectangle;html=1;whiteSpace=wrap;connectable=0;strokeColor=inherit;overflow=hidden;fillColor=none;top=0;left=0;bottom=0;right=0;pointerEvents=1;fontSize=16;fontColor=#FF8000;fontStyle=1" vertex="1" parent="aiIJosweRKsWauaOWvsQ-401">
          <mxGeometry x="1590" width="30" height="40" as="geometry">
            <mxRectangle width="30" height="40" as="alternateBounds" />
          </mxGeometry>
        </mxCell>
        <mxCell id="aiIJosweRKsWauaOWvsQ-455" value="+" style="shape=partialRectangle;html=1;whiteSpace=wrap;connectable=0;strokeColor=inherit;overflow=hidden;fillColor=none;top=0;left=0;bottom=0;right=0;pointerEvents=1;fontSize=16;fontColor=#FF8000;fontStyle=1" vertex="1" parent="aiIJosweRKsWauaOWvsQ-401">
          <mxGeometry x="1620" width="30" height="40" as="geometry">
            <mxRectangle width="30" height="40" as="alternateBounds" />
          </mxGeometry>
        </mxCell>
        <mxCell id="aiIJosweRKsWauaOWvsQ-516" value="" style="verticalLabelPosition=bottom;verticalAlign=top;html=1;shape=mxgraph.basic.drop;fontColor=none;labelBackgroundColor=none;noLabel=1;fillColor=#FF0000;" vertex="1" parent="1">
          <mxGeometry x="3380" y="335" width="30" height="50" as="geometry" />
        </mxCell>
        <mxCell id="aiIJosweRKsWauaOWvsQ-542" value="" style="shape=table;startSize=0;container=1;collapsible=0;childLayout=tableLayout;fontSize=16;strokeColor=#00FFFF;fontColor=#FF3399;" vertex="1" parent="1">
          <mxGeometry x="4430" y="330" width="330" height="40" as="geometry" />
        </mxCell>
        <mxCell id="aiIJosweRKsWauaOWvsQ-543" value="" style="shape=tableRow;horizontal=0;startSize=0;swimlaneHead=0;swimlaneBody=0;strokeColor=inherit;top=0;left=0;bottom=0;right=0;collapsible=0;dropTarget=0;fillColor=none;points=[[0,0.5],[1,0.5]];portConstraint=eastwest;fontSize=16;enumerate=0;expand=1;part=0;" vertex="1" parent="aiIJosweRKsWauaOWvsQ-542">
          <mxGeometry width="330" height="40" as="geometry" />
        </mxCell>
        <mxCell id="aiIJosweRKsWauaOWvsQ-544" value="+" style="shape=partialRectangle;html=1;whiteSpace=wrap;connectable=0;strokeColor=inherit;overflow=hidden;fillColor=none;top=0;left=0;bottom=0;right=0;pointerEvents=1;fontSize=16;fontColor=#00FF00;" vertex="1" parent="aiIJosweRKsWauaOWvsQ-543">
          <mxGeometry width="30" height="40" as="geometry">
            <mxRectangle width="30" height="40" as="alternateBounds" />
          </mxGeometry>
        </mxCell>
        <mxCell id="aiIJosweRKsWauaOWvsQ-545" value="Y" style="shape=partialRectangle;html=1;whiteSpace=wrap;connectable=0;strokeColor=inherit;overflow=hidden;fillColor=none;top=0;left=0;bottom=0;right=0;pointerEvents=1;fontSize=16;fontColor=#00FF00;" vertex="1" parent="aiIJosweRKsWauaOWvsQ-543">
          <mxGeometry x="30" width="30" height="40" as="geometry">
            <mxRectangle width="30" height="40" as="alternateBounds" />
          </mxGeometry>
        </mxCell>
        <mxCell id="aiIJosweRKsWauaOWvsQ-546" value="F" style="shape=partialRectangle;html=1;whiteSpace=wrap;connectable=0;strokeColor=inherit;overflow=hidden;fillColor=none;top=0;left=0;bottom=0;right=0;pointerEvents=1;fontSize=16;fontColor=#00FF00;" vertex="1" parent="aiIJosweRKsWauaOWvsQ-543">
          <mxGeometry x="60" width="30" height="40" as="geometry">
            <mxRectangle width="30" height="40" as="alternateBounds" />
          </mxGeometry>
        </mxCell>
        <mxCell id="aiIJosweRKsWauaOWvsQ-547" value="-" style="shape=partialRectangle;html=1;whiteSpace=wrap;connectable=0;strokeColor=inherit;overflow=hidden;fillColor=none;top=0;left=0;bottom=0;right=0;pointerEvents=1;fontSize=16;fontColor=#00FF00;" vertex="1" parent="aiIJosweRKsWauaOWvsQ-543">
          <mxGeometry x="90" width="30" height="40" as="geometry">
            <mxRectangle width="30" height="40" as="alternateBounds" />
          </mxGeometry>
        </mxCell>
        <mxCell id="aiIJosweRKsWauaOWvsQ-548" value="X" style="shape=partialRectangle;html=1;whiteSpace=wrap;connectable=0;strokeColor=inherit;overflow=hidden;fillColor=none;top=0;left=0;bottom=0;right=0;pointerEvents=1;fontSize=16;fontColor=#00FF00;" vertex="1" parent="aiIJosweRKsWauaOWvsQ-543">
          <mxGeometry x="120" width="30" height="40" as="geometry">
            <mxRectangle width="30" height="40" as="alternateBounds" />
          </mxGeometry>
        </mxCell>
        <mxCell id="aiIJosweRKsWauaOWvsQ-549" value="F" style="shape=partialRectangle;html=1;whiteSpace=wrap;connectable=0;strokeColor=inherit;overflow=hidden;fillColor=none;top=0;left=0;bottom=0;right=0;pointerEvents=1;fontSize=16;fontColor=#00FF00;" vertex="1" parent="aiIJosweRKsWauaOWvsQ-543">
          <mxGeometry x="150" width="30" height="40" as="geometry">
            <mxRectangle width="30" height="40" as="alternateBounds" />
          </mxGeometry>
        </mxCell>
        <mxCell id="aiIJosweRKsWauaOWvsQ-550" value="X" style="shape=partialRectangle;html=1;whiteSpace=wrap;connectable=0;strokeColor=inherit;overflow=hidden;fillColor=none;top=0;left=0;bottom=0;right=0;pointerEvents=1;fontSize=16;fontColor=#00FF00;" vertex="1" parent="aiIJosweRKsWauaOWvsQ-543">
          <mxGeometry x="180" width="30" height="40" as="geometry">
            <mxRectangle width="30" height="40" as="alternateBounds" />
          </mxGeometry>
        </mxCell>
        <mxCell id="aiIJosweRKsWauaOWvsQ-551" value="-" style="shape=partialRectangle;html=1;whiteSpace=wrap;connectable=0;strokeColor=inherit;overflow=hidden;fillColor=none;top=0;left=0;bottom=0;right=0;pointerEvents=1;fontSize=16;fontColor=#00FF00;" vertex="1" parent="aiIJosweRKsWauaOWvsQ-543">
          <mxGeometry x="210" width="30" height="40" as="geometry">
            <mxRectangle width="30" height="40" as="alternateBounds" />
          </mxGeometry>
        </mxCell>
        <mxCell id="aiIJosweRKsWauaOWvsQ-552" value="F" style="shape=partialRectangle;html=1;whiteSpace=wrap;connectable=0;strokeColor=inherit;overflow=hidden;fillColor=none;top=0;left=0;bottom=0;right=0;pointerEvents=1;fontSize=16;fontColor=#00FF00;" vertex="1" parent="aiIJosweRKsWauaOWvsQ-543">
          <mxGeometry x="240" width="30" height="40" as="geometry">
            <mxRectangle width="30" height="40" as="alternateBounds" />
          </mxGeometry>
        </mxCell>
        <mxCell id="aiIJosweRKsWauaOWvsQ-553" value="Y" style="shape=partialRectangle;html=1;whiteSpace=wrap;connectable=0;strokeColor=inherit;overflow=hidden;fillColor=none;top=0;left=0;bottom=0;right=0;pointerEvents=1;fontSize=16;fontColor=#00FF00;" vertex="1" parent="aiIJosweRKsWauaOWvsQ-543">
          <mxGeometry x="270" width="30" height="40" as="geometry">
            <mxRectangle width="30" height="40" as="alternateBounds" />
          </mxGeometry>
        </mxCell>
        <mxCell id="aiIJosweRKsWauaOWvsQ-554" value="+" style="shape=partialRectangle;html=1;whiteSpace=wrap;connectable=0;strokeColor=inherit;overflow=hidden;fillColor=none;top=0;left=0;bottom=0;right=0;pointerEvents=1;fontSize=16;fontColor=#00FF00;" vertex="1" parent="aiIJosweRKsWauaOWvsQ-543">
          <mxGeometry x="300" width="30" height="40" as="geometry">
            <mxRectangle width="30" height="40" as="alternateBounds" />
          </mxGeometry>
        </mxCell>
        <mxCell id="aiIJosweRKsWauaOWvsQ-555" value="" style="shape=table;startSize=0;container=1;collapsible=0;childLayout=tableLayout;fontSize=16;strokeColor=#00FFFF;fontColor=#FF3399;" vertex="1" parent="1">
          <mxGeometry x="1690" y="440" width="390" height="40" as="geometry" />
        </mxCell>
        <mxCell id="aiIJosweRKsWauaOWvsQ-556" value="" style="shape=tableRow;horizontal=0;startSize=0;swimlaneHead=0;swimlaneBody=0;strokeColor=inherit;top=0;left=0;bottom=0;right=0;collapsible=0;dropTarget=0;fillColor=none;points=[[0,0.5],[1,0.5]];portConstraint=eastwest;fontSize=16;enumerate=0;expand=1;part=0;" vertex="1" parent="aiIJosweRKsWauaOWvsQ-555">
          <mxGeometry width="390" height="40" as="geometry" />
        </mxCell>
        <mxCell id="aiIJosweRKsWauaOWvsQ-557" value="-" style="shape=partialRectangle;html=1;whiteSpace=wrap;connectable=0;strokeColor=inherit;overflow=hidden;fillColor=none;top=0;left=0;bottom=0;right=0;pointerEvents=1;fontSize=16;fontColor=#FF3399;" vertex="1" parent="aiIJosweRKsWauaOWvsQ-556">
          <mxGeometry width="30" height="40" as="geometry">
            <mxRectangle width="30" height="40" as="alternateBounds" />
          </mxGeometry>
        </mxCell>
        <mxCell id="aiIJosweRKsWauaOWvsQ-558" value="X" style="shape=partialRectangle;html=1;whiteSpace=wrap;connectable=0;strokeColor=inherit;overflow=hidden;fillColor=none;top=0;left=0;bottom=0;right=0;pointerEvents=1;fontSize=16;fontColor=#FF3399;" vertex="1" parent="aiIJosweRKsWauaOWvsQ-556">
          <mxGeometry x="30" width="30" height="40" as="geometry">
            <mxRectangle width="30" height="40" as="alternateBounds" />
          </mxGeometry>
        </mxCell>
        <mxCell id="aiIJosweRKsWauaOWvsQ-559" value="F" style="shape=partialRectangle;html=1;whiteSpace=wrap;connectable=0;strokeColor=inherit;overflow=hidden;fillColor=none;top=0;left=0;bottom=0;right=0;pointerEvents=1;fontSize=16;fontColor=#FF3399;" vertex="1" parent="aiIJosweRKsWauaOWvsQ-556">
          <mxGeometry x="60" width="30" height="40" as="geometry">
            <mxRectangle width="30" height="40" as="alternateBounds" />
          </mxGeometry>
        </mxCell>
        <mxCell id="aiIJosweRKsWauaOWvsQ-560" value="+" style="shape=partialRectangle;html=1;whiteSpace=wrap;connectable=0;strokeColor=inherit;overflow=hidden;fillColor=none;top=0;left=0;bottom=0;right=0;pointerEvents=1;fontSize=16;fontColor=#FF3399;" vertex="1" parent="aiIJosweRKsWauaOWvsQ-556">
          <mxGeometry x="90" width="30" height="40" as="geometry">
            <mxRectangle width="30" height="40" as="alternateBounds" />
          </mxGeometry>
        </mxCell>
        <mxCell id="aiIJosweRKsWauaOWvsQ-561" value="Y" style="shape=partialRectangle;html=1;whiteSpace=wrap;connectable=0;strokeColor=inherit;overflow=hidden;fillColor=none;top=0;left=0;bottom=0;right=0;pointerEvents=1;fontSize=16;fontColor=#FF3399;" vertex="1" parent="aiIJosweRKsWauaOWvsQ-556">
          <mxGeometry x="120" width="30" height="40" as="geometry">
            <mxRectangle width="30" height="40" as="alternateBounds" />
          </mxGeometry>
        </mxCell>
        <mxCell id="aiIJosweRKsWauaOWvsQ-562" value="F" style="shape=partialRectangle;html=1;whiteSpace=wrap;connectable=0;strokeColor=inherit;overflow=hidden;fillColor=none;top=0;left=0;bottom=0;right=0;pointerEvents=1;fontSize=16;fontColor=#FF3399;" vertex="1" parent="aiIJosweRKsWauaOWvsQ-556">
          <mxGeometry x="150" width="30" height="40" as="geometry">
            <mxRectangle width="30" height="40" as="alternateBounds" />
          </mxGeometry>
        </mxCell>
        <mxCell id="aiIJosweRKsWauaOWvsQ-563" value="Y" style="shape=partialRectangle;html=1;whiteSpace=wrap;connectable=0;strokeColor=inherit;overflow=hidden;fillColor=none;top=0;left=0;bottom=0;right=0;pointerEvents=1;fontSize=16;fontColor=#FF3399;" vertex="1" parent="aiIJosweRKsWauaOWvsQ-556">
          <mxGeometry x="180" width="30" height="40" as="geometry">
            <mxRectangle width="30" height="40" as="alternateBounds" />
          </mxGeometry>
        </mxCell>
        <mxCell id="aiIJosweRKsWauaOWvsQ-564" value="+" style="shape=partialRectangle;html=1;whiteSpace=wrap;connectable=0;strokeColor=inherit;overflow=hidden;fillColor=none;top=0;left=0;bottom=0;right=0;pointerEvents=1;fontSize=16;fontColor=#FF3399;" vertex="1" parent="aiIJosweRKsWauaOWvsQ-556">
          <mxGeometry x="210" width="30" height="40" as="geometry">
            <mxRectangle width="30" height="40" as="alternateBounds" />
          </mxGeometry>
        </mxCell>
        <mxCell id="aiIJosweRKsWauaOWvsQ-565" value="F" style="shape=partialRectangle;html=1;whiteSpace=wrap;connectable=0;strokeColor=inherit;overflow=hidden;fillColor=none;top=0;left=0;bottom=0;right=0;pointerEvents=1;fontSize=16;fontColor=#FF3399;" vertex="1" parent="aiIJosweRKsWauaOWvsQ-556">
          <mxGeometry x="240" width="30" height="40" as="geometry">
            <mxRectangle width="30" height="40" as="alternateBounds" />
          </mxGeometry>
        </mxCell>
        <mxCell id="aiIJosweRKsWauaOWvsQ-566" value="X" style="shape=partialRectangle;html=1;whiteSpace=wrap;connectable=0;strokeColor=inherit;overflow=hidden;fillColor=none;top=0;left=0;bottom=0;right=0;pointerEvents=1;fontSize=16;fontColor=#FF3399;" vertex="1" parent="aiIJosweRKsWauaOWvsQ-556">
          <mxGeometry x="270" width="30" height="40" as="geometry">
            <mxRectangle width="30" height="40" as="alternateBounds" />
          </mxGeometry>
        </mxCell>
        <mxCell id="aiIJosweRKsWauaOWvsQ-567" value="-" style="shape=partialRectangle;html=1;whiteSpace=wrap;connectable=0;strokeColor=inherit;overflow=hidden;fillColor=none;top=0;left=0;bottom=0;right=0;pointerEvents=1;fontSize=16;fontColor=#FF3399;" vertex="1" parent="aiIJosweRKsWauaOWvsQ-556">
          <mxGeometry x="300" width="30" height="40" as="geometry">
            <mxRectangle width="30" height="40" as="alternateBounds" />
          </mxGeometry>
        </mxCell>
        <mxCell id="aiIJosweRKsWauaOWvsQ-569" value="F" style="shape=partialRectangle;html=1;whiteSpace=wrap;connectable=0;strokeColor=inherit;overflow=hidden;fillColor=none;top=0;left=0;bottom=0;right=0;pointerEvents=1;fontSize=16;fontColor=#FF8000;fontStyle=1" vertex="1" parent="aiIJosweRKsWauaOWvsQ-556">
          <mxGeometry x="330" width="30" height="40" as="geometry">
            <mxRectangle width="30" height="40" as="alternateBounds" />
          </mxGeometry>
        </mxCell>
        <mxCell id="aiIJosweRKsWauaOWvsQ-568" value="-" style="shape=partialRectangle;html=1;whiteSpace=wrap;connectable=0;strokeColor=inherit;overflow=hidden;fillColor=none;top=0;left=0;bottom=0;right=0;pointerEvents=1;fontSize=16;fontColor=#FF8000;fontStyle=1" vertex="1" parent="aiIJosweRKsWauaOWvsQ-556">
          <mxGeometry x="360" width="30" height="40" as="geometry">
            <mxRectangle width="30" height="40" as="alternateBounds" />
          </mxGeometry>
        </mxCell>
        <mxCell id="aiIJosweRKsWauaOWvsQ-570" value="" style="shape=table;startSize=0;container=1;collapsible=0;childLayout=tableLayout;fontSize=16;strokeColor=#00FFFF;fontColor=#FF8000;fontStyle=1" vertex="1" parent="1">
          <mxGeometry x="2080" y="440" width="360" height="40" as="geometry" />
        </mxCell>
        <mxCell id="aiIJosweRKsWauaOWvsQ-571" value="" style="shape=tableRow;horizontal=0;startSize=0;swimlaneHead=0;swimlaneBody=0;strokeColor=inherit;top=0;left=0;bottom=0;right=0;collapsible=0;dropTarget=0;fillColor=none;points=[[0,0.5],[1,0.5]];portConstraint=eastwest;fontSize=16;enumerate=0;expand=1;part=0;" vertex="1" parent="aiIJosweRKsWauaOWvsQ-570">
          <mxGeometry width="360" height="40" as="geometry" />
        </mxCell>
        <mxCell id="aiIJosweRKsWauaOWvsQ-572" value="+" style="shape=partialRectangle;html=1;whiteSpace=wrap;connectable=0;strokeColor=inherit;overflow=hidden;fillColor=none;top=0;left=0;bottom=0;right=0;pointerEvents=1;fontSize=16;fontColor=#00FF00;" vertex="1" parent="aiIJosweRKsWauaOWvsQ-571">
          <mxGeometry width="30" height="40" as="geometry">
            <mxRectangle width="30" height="40" as="alternateBounds" />
          </mxGeometry>
        </mxCell>
        <mxCell id="aiIJosweRKsWauaOWvsQ-573" value="Y" style="shape=partialRectangle;html=1;whiteSpace=wrap;connectable=0;strokeColor=inherit;overflow=hidden;fillColor=none;top=0;left=0;bottom=0;right=0;pointerEvents=1;fontSize=16;fontColor=#00FF00;" vertex="1" parent="aiIJosweRKsWauaOWvsQ-571">
          <mxGeometry x="30" width="30" height="40" as="geometry">
            <mxRectangle width="30" height="40" as="alternateBounds" />
          </mxGeometry>
        </mxCell>
        <mxCell id="aiIJosweRKsWauaOWvsQ-574" value="F" style="shape=partialRectangle;html=1;whiteSpace=wrap;connectable=0;strokeColor=inherit;overflow=hidden;fillColor=none;top=0;left=0;bottom=0;right=0;pointerEvents=1;fontSize=16;fontColor=#00FF00;" vertex="1" parent="aiIJosweRKsWauaOWvsQ-571">
          <mxGeometry x="60" width="30" height="40" as="geometry">
            <mxRectangle width="30" height="40" as="alternateBounds" />
          </mxGeometry>
        </mxCell>
        <mxCell id="aiIJosweRKsWauaOWvsQ-575" value="-" style="shape=partialRectangle;html=1;whiteSpace=wrap;connectable=0;strokeColor=inherit;overflow=hidden;fillColor=none;top=0;left=0;bottom=0;right=0;pointerEvents=1;fontSize=16;fontColor=#00FF00;" vertex="1" parent="aiIJosweRKsWauaOWvsQ-571">
          <mxGeometry x="90" width="30" height="40" as="geometry">
            <mxRectangle width="30" height="40" as="alternateBounds" />
          </mxGeometry>
        </mxCell>
        <mxCell id="aiIJosweRKsWauaOWvsQ-576" value="X" style="shape=partialRectangle;html=1;whiteSpace=wrap;connectable=0;strokeColor=inherit;overflow=hidden;fillColor=none;top=0;left=0;bottom=0;right=0;pointerEvents=1;fontSize=16;fontColor=#00FF00;" vertex="1" parent="aiIJosweRKsWauaOWvsQ-571">
          <mxGeometry x="120" width="30" height="40" as="geometry">
            <mxRectangle width="30" height="40" as="alternateBounds" />
          </mxGeometry>
        </mxCell>
        <mxCell id="aiIJosweRKsWauaOWvsQ-577" value="F" style="shape=partialRectangle;html=1;whiteSpace=wrap;connectable=0;strokeColor=inherit;overflow=hidden;fillColor=none;top=0;left=0;bottom=0;right=0;pointerEvents=1;fontSize=16;fontColor=#00FF00;" vertex="1" parent="aiIJosweRKsWauaOWvsQ-571">
          <mxGeometry x="150" width="30" height="40" as="geometry">
            <mxRectangle width="30" height="40" as="alternateBounds" />
          </mxGeometry>
        </mxCell>
        <mxCell id="aiIJosweRKsWauaOWvsQ-578" value="X" style="shape=partialRectangle;html=1;whiteSpace=wrap;connectable=0;strokeColor=inherit;overflow=hidden;fillColor=none;top=0;left=0;bottom=0;right=0;pointerEvents=1;fontSize=16;fontColor=#00FF00;" vertex="1" parent="aiIJosweRKsWauaOWvsQ-571">
          <mxGeometry x="180" width="30" height="40" as="geometry">
            <mxRectangle width="30" height="40" as="alternateBounds" />
          </mxGeometry>
        </mxCell>
        <mxCell id="aiIJosweRKsWauaOWvsQ-579" value="-" style="shape=partialRectangle;html=1;whiteSpace=wrap;connectable=0;strokeColor=inherit;overflow=hidden;fillColor=none;top=0;left=0;bottom=0;right=0;pointerEvents=1;fontSize=16;fontColor=#00FF00;" vertex="1" parent="aiIJosweRKsWauaOWvsQ-571">
          <mxGeometry x="210" width="30" height="40" as="geometry">
            <mxRectangle width="30" height="40" as="alternateBounds" />
          </mxGeometry>
        </mxCell>
        <mxCell id="aiIJosweRKsWauaOWvsQ-580" value="F" style="shape=partialRectangle;html=1;whiteSpace=wrap;connectable=0;strokeColor=inherit;overflow=hidden;fillColor=none;top=0;left=0;bottom=0;right=0;pointerEvents=1;fontSize=16;fontColor=#00FF00;" vertex="1" parent="aiIJosweRKsWauaOWvsQ-571">
          <mxGeometry x="240" width="30" height="40" as="geometry">
            <mxRectangle width="30" height="40" as="alternateBounds" />
          </mxGeometry>
        </mxCell>
        <mxCell id="aiIJosweRKsWauaOWvsQ-581" value="Y" style="shape=partialRectangle;html=1;whiteSpace=wrap;connectable=0;strokeColor=inherit;overflow=hidden;fillColor=none;top=0;left=0;bottom=0;right=0;pointerEvents=1;fontSize=16;fontColor=#00FF00;" vertex="1" parent="aiIJosweRKsWauaOWvsQ-571">
          <mxGeometry x="270" width="30" height="40" as="geometry">
            <mxRectangle width="30" height="40" as="alternateBounds" />
          </mxGeometry>
        </mxCell>
        <mxCell id="aiIJosweRKsWauaOWvsQ-582" value="+" style="shape=partialRectangle;html=1;whiteSpace=wrap;connectable=0;strokeColor=inherit;overflow=hidden;fillColor=none;top=0;left=0;bottom=0;right=0;pointerEvents=1;fontSize=16;fontColor=#00FF00;" vertex="1" parent="aiIJosweRKsWauaOWvsQ-571">
          <mxGeometry x="300" width="30" height="40" as="geometry">
            <mxRectangle width="30" height="40" as="alternateBounds" />
          </mxGeometry>
        </mxCell>
        <mxCell id="aiIJosweRKsWauaOWvsQ-583" value="F" style="shape=partialRectangle;html=1;whiteSpace=wrap;connectable=0;strokeColor=inherit;overflow=hidden;fillColor=none;top=0;left=0;bottom=0;right=0;pointerEvents=1;fontSize=16;fontColor=#FF8000;" vertex="1" parent="aiIJosweRKsWauaOWvsQ-571">
          <mxGeometry x="330" width="30" height="40" as="geometry">
            <mxRectangle width="30" height="40" as="alternateBounds" />
          </mxGeometry>
        </mxCell>
        <mxCell id="aiIJosweRKsWauaOWvsQ-584" value="" style="shape=table;startSize=0;container=1;collapsible=0;childLayout=tableLayout;fontSize=16;strokeColor=#00FFFF;fontColor=#FF3399;" vertex="1" parent="1">
          <mxGeometry x="2440" y="440" width="390" height="40" as="geometry" />
        </mxCell>
        <mxCell id="aiIJosweRKsWauaOWvsQ-585" value="" style="shape=tableRow;horizontal=0;startSize=0;swimlaneHead=0;swimlaneBody=0;strokeColor=inherit;top=0;left=0;bottom=0;right=0;collapsible=0;dropTarget=0;fillColor=none;points=[[0,0.5],[1,0.5]];portConstraint=eastwest;fontSize=16;enumerate=0;expand=1;part=0;" vertex="1" parent="aiIJosweRKsWauaOWvsQ-584">
          <mxGeometry width="390" height="40" as="geometry" />
        </mxCell>
        <mxCell id="aiIJosweRKsWauaOWvsQ-586" value="+" style="shape=partialRectangle;html=1;whiteSpace=wrap;connectable=0;strokeColor=inherit;overflow=hidden;fillColor=none;top=0;left=0;bottom=0;right=0;pointerEvents=1;fontSize=16;fontColor=#00FF00;" vertex="1" parent="aiIJosweRKsWauaOWvsQ-585">
          <mxGeometry width="30" height="40" as="geometry">
            <mxRectangle width="30" height="40" as="alternateBounds" />
          </mxGeometry>
        </mxCell>
        <mxCell id="aiIJosweRKsWauaOWvsQ-587" value="Y" style="shape=partialRectangle;html=1;whiteSpace=wrap;connectable=0;strokeColor=inherit;overflow=hidden;fillColor=none;top=0;left=0;bottom=0;right=0;pointerEvents=1;fontSize=16;fontColor=#00FF00;" vertex="1" parent="aiIJosweRKsWauaOWvsQ-585">
          <mxGeometry x="30" width="30" height="40" as="geometry">
            <mxRectangle width="30" height="40" as="alternateBounds" />
          </mxGeometry>
        </mxCell>
        <mxCell id="aiIJosweRKsWauaOWvsQ-588" value="F" style="shape=partialRectangle;html=1;whiteSpace=wrap;connectable=0;strokeColor=inherit;overflow=hidden;fillColor=none;top=0;left=0;bottom=0;right=0;pointerEvents=1;fontSize=16;fontColor=#00FF00;" vertex="1" parent="aiIJosweRKsWauaOWvsQ-585">
          <mxGeometry x="60" width="30" height="40" as="geometry">
            <mxRectangle width="30" height="40" as="alternateBounds" />
          </mxGeometry>
        </mxCell>
        <mxCell id="aiIJosweRKsWauaOWvsQ-589" value="-" style="shape=partialRectangle;html=1;whiteSpace=wrap;connectable=0;strokeColor=inherit;overflow=hidden;fillColor=none;top=0;left=0;bottom=0;right=0;pointerEvents=1;fontSize=16;fontColor=#00FF00;" vertex="1" parent="aiIJosweRKsWauaOWvsQ-585">
          <mxGeometry x="90" width="30" height="40" as="geometry">
            <mxRectangle width="30" height="40" as="alternateBounds" />
          </mxGeometry>
        </mxCell>
        <mxCell id="aiIJosweRKsWauaOWvsQ-590" value="X" style="shape=partialRectangle;html=1;whiteSpace=wrap;connectable=0;strokeColor=inherit;overflow=hidden;fillColor=none;top=0;left=0;bottom=0;right=0;pointerEvents=1;fontSize=16;fontColor=#00FF00;" vertex="1" parent="aiIJosweRKsWauaOWvsQ-585">
          <mxGeometry x="120" width="30" height="40" as="geometry">
            <mxRectangle width="30" height="40" as="alternateBounds" />
          </mxGeometry>
        </mxCell>
        <mxCell id="aiIJosweRKsWauaOWvsQ-591" value="F" style="shape=partialRectangle;html=1;whiteSpace=wrap;connectable=0;strokeColor=inherit;overflow=hidden;fillColor=none;top=0;left=0;bottom=0;right=0;pointerEvents=1;fontSize=16;fontColor=#00FF00;" vertex="1" parent="aiIJosweRKsWauaOWvsQ-585">
          <mxGeometry x="150" width="30" height="40" as="geometry">
            <mxRectangle width="30" height="40" as="alternateBounds" />
          </mxGeometry>
        </mxCell>
        <mxCell id="aiIJosweRKsWauaOWvsQ-592" value="X" style="shape=partialRectangle;html=1;whiteSpace=wrap;connectable=0;strokeColor=inherit;overflow=hidden;fillColor=none;top=0;left=0;bottom=0;right=0;pointerEvents=1;fontSize=16;fontColor=#00FF00;" vertex="1" parent="aiIJosweRKsWauaOWvsQ-585">
          <mxGeometry x="180" width="30" height="40" as="geometry">
            <mxRectangle width="30" height="40" as="alternateBounds" />
          </mxGeometry>
        </mxCell>
        <mxCell id="aiIJosweRKsWauaOWvsQ-593" value="-" style="shape=partialRectangle;html=1;whiteSpace=wrap;connectable=0;strokeColor=inherit;overflow=hidden;fillColor=none;top=0;left=0;bottom=0;right=0;pointerEvents=1;fontSize=16;fontColor=#00FF00;" vertex="1" parent="aiIJosweRKsWauaOWvsQ-585">
          <mxGeometry x="210" width="30" height="40" as="geometry">
            <mxRectangle width="30" height="40" as="alternateBounds" />
          </mxGeometry>
        </mxCell>
        <mxCell id="aiIJosweRKsWauaOWvsQ-594" value="F" style="shape=partialRectangle;html=1;whiteSpace=wrap;connectable=0;strokeColor=inherit;overflow=hidden;fillColor=none;top=0;left=0;bottom=0;right=0;pointerEvents=1;fontSize=16;fontColor=#00FF00;" vertex="1" parent="aiIJosweRKsWauaOWvsQ-585">
          <mxGeometry x="240" width="30" height="40" as="geometry">
            <mxRectangle width="30" height="40" as="alternateBounds" />
          </mxGeometry>
        </mxCell>
        <mxCell id="aiIJosweRKsWauaOWvsQ-595" value="Y" style="shape=partialRectangle;html=1;whiteSpace=wrap;connectable=0;strokeColor=inherit;overflow=hidden;fillColor=none;top=0;left=0;bottom=0;right=0;pointerEvents=1;fontSize=16;fontColor=#00FF00;" vertex="1" parent="aiIJosweRKsWauaOWvsQ-585">
          <mxGeometry x="270" width="30" height="40" as="geometry">
            <mxRectangle width="30" height="40" as="alternateBounds" />
          </mxGeometry>
        </mxCell>
        <mxCell id="aiIJosweRKsWauaOWvsQ-596" value="+" style="shape=partialRectangle;html=1;whiteSpace=wrap;connectable=0;strokeColor=inherit;overflow=hidden;fillColor=none;top=0;left=0;bottom=0;right=0;pointerEvents=1;fontSize=16;fontColor=#00FF00;" vertex="1" parent="aiIJosweRKsWauaOWvsQ-585">
          <mxGeometry x="300" width="30" height="40" as="geometry">
            <mxRectangle width="30" height="40" as="alternateBounds" />
          </mxGeometry>
        </mxCell>
        <mxCell id="aiIJosweRKsWauaOWvsQ-597" value="-" style="shape=partialRectangle;html=1;whiteSpace=wrap;connectable=0;strokeColor=inherit;overflow=hidden;fillColor=none;top=0;left=0;bottom=0;right=0;pointerEvents=1;fontSize=16;fontColor=#FF8000;fontStyle=1" vertex="1" parent="aiIJosweRKsWauaOWvsQ-585">
          <mxGeometry x="330" width="30" height="40" as="geometry">
            <mxRectangle width="30" height="40" as="alternateBounds" />
          </mxGeometry>
        </mxCell>
        <mxCell id="aiIJosweRKsWauaOWvsQ-598" value="F" style="shape=partialRectangle;html=1;whiteSpace=wrap;connectable=0;strokeColor=inherit;overflow=hidden;fillColor=none;top=0;left=0;bottom=0;right=0;pointerEvents=1;fontSize=16;fontColor=#FF8000;fontStyle=1" vertex="1" parent="aiIJosweRKsWauaOWvsQ-585">
          <mxGeometry x="360" width="30" height="40" as="geometry">
            <mxRectangle width="30" height="40" as="alternateBounds" />
          </mxGeometry>
        </mxCell>
        <mxCell id="aiIJosweRKsWauaOWvsQ-611" value="" style="shape=table;startSize=0;container=1;collapsible=0;childLayout=tableLayout;fontSize=16;strokeColor=#00FFFF;fontColor=#FF3399;" vertex="1" parent="1">
          <mxGeometry x="2830" y="440" width="420" height="40" as="geometry" />
        </mxCell>
        <mxCell id="aiIJosweRKsWauaOWvsQ-612" value="" style="shape=tableRow;horizontal=0;startSize=0;swimlaneHead=0;swimlaneBody=0;strokeColor=inherit;top=0;left=0;bottom=0;right=0;collapsible=0;dropTarget=0;fillColor=none;points=[[0,0.5],[1,0.5]];portConstraint=eastwest;fontSize=16;enumerate=0;expand=1;part=0;" vertex="1" parent="aiIJosweRKsWauaOWvsQ-611">
          <mxGeometry width="420" height="40" as="geometry" />
        </mxCell>
        <mxCell id="aiIJosweRKsWauaOWvsQ-613" value="-" style="shape=partialRectangle;html=1;whiteSpace=wrap;connectable=0;strokeColor=inherit;overflow=hidden;fillColor=none;top=0;left=0;bottom=0;right=0;pointerEvents=1;fontSize=16;fontColor=#FF3399;" vertex="1" parent="aiIJosweRKsWauaOWvsQ-612">
          <mxGeometry width="30" height="40" as="geometry">
            <mxRectangle width="30" height="40" as="alternateBounds" />
          </mxGeometry>
        </mxCell>
        <mxCell id="aiIJosweRKsWauaOWvsQ-614" value="X" style="shape=partialRectangle;html=1;whiteSpace=wrap;connectable=0;strokeColor=inherit;overflow=hidden;fillColor=none;top=0;left=0;bottom=0;right=0;pointerEvents=1;fontSize=16;fontColor=#FF3399;" vertex="1" parent="aiIJosweRKsWauaOWvsQ-612">
          <mxGeometry x="30" width="30" height="40" as="geometry">
            <mxRectangle width="30" height="40" as="alternateBounds" />
          </mxGeometry>
        </mxCell>
        <mxCell id="aiIJosweRKsWauaOWvsQ-615" value="F" style="shape=partialRectangle;html=1;whiteSpace=wrap;connectable=0;strokeColor=inherit;overflow=hidden;fillColor=none;top=0;left=0;bottom=0;right=0;pointerEvents=1;fontSize=16;fontColor=#FF3399;" vertex="1" parent="aiIJosweRKsWauaOWvsQ-612">
          <mxGeometry x="60" width="30" height="40" as="geometry">
            <mxRectangle width="30" height="40" as="alternateBounds" />
          </mxGeometry>
        </mxCell>
        <mxCell id="aiIJosweRKsWauaOWvsQ-616" value="+" style="shape=partialRectangle;html=1;whiteSpace=wrap;connectable=0;strokeColor=inherit;overflow=hidden;fillColor=none;top=0;left=0;bottom=0;right=0;pointerEvents=1;fontSize=16;fontColor=#FF3399;" vertex="1" parent="aiIJosweRKsWauaOWvsQ-612">
          <mxGeometry x="90" width="30" height="40" as="geometry">
            <mxRectangle width="30" height="40" as="alternateBounds" />
          </mxGeometry>
        </mxCell>
        <mxCell id="aiIJosweRKsWauaOWvsQ-617" value="Y" style="shape=partialRectangle;html=1;whiteSpace=wrap;connectable=0;strokeColor=inherit;overflow=hidden;fillColor=none;top=0;left=0;bottom=0;right=0;pointerEvents=1;fontSize=16;fontColor=#FF3399;" vertex="1" parent="aiIJosweRKsWauaOWvsQ-612">
          <mxGeometry x="120" width="30" height="40" as="geometry">
            <mxRectangle width="30" height="40" as="alternateBounds" />
          </mxGeometry>
        </mxCell>
        <mxCell id="aiIJosweRKsWauaOWvsQ-618" value="F" style="shape=partialRectangle;html=1;whiteSpace=wrap;connectable=0;strokeColor=inherit;overflow=hidden;fillColor=none;top=0;left=0;bottom=0;right=0;pointerEvents=1;fontSize=16;fontColor=#FF3399;" vertex="1" parent="aiIJosweRKsWauaOWvsQ-612">
          <mxGeometry x="150" width="30" height="40" as="geometry">
            <mxRectangle width="30" height="40" as="alternateBounds" />
          </mxGeometry>
        </mxCell>
        <mxCell id="aiIJosweRKsWauaOWvsQ-619" value="Y" style="shape=partialRectangle;html=1;whiteSpace=wrap;connectable=0;strokeColor=inherit;overflow=hidden;fillColor=none;top=0;left=0;bottom=0;right=0;pointerEvents=1;fontSize=16;fontColor=#FF3399;" vertex="1" parent="aiIJosweRKsWauaOWvsQ-612">
          <mxGeometry x="180" width="30" height="40" as="geometry">
            <mxRectangle width="30" height="40" as="alternateBounds" />
          </mxGeometry>
        </mxCell>
        <mxCell id="aiIJosweRKsWauaOWvsQ-620" value="+" style="shape=partialRectangle;html=1;whiteSpace=wrap;connectable=0;strokeColor=inherit;overflow=hidden;fillColor=none;top=0;left=0;bottom=0;right=0;pointerEvents=1;fontSize=16;fontColor=#FF3399;" vertex="1" parent="aiIJosweRKsWauaOWvsQ-612">
          <mxGeometry x="210" width="30" height="40" as="geometry">
            <mxRectangle width="30" height="40" as="alternateBounds" />
          </mxGeometry>
        </mxCell>
        <mxCell id="aiIJosweRKsWauaOWvsQ-621" value="F" style="shape=partialRectangle;html=1;whiteSpace=wrap;connectable=0;strokeColor=inherit;overflow=hidden;fillColor=none;top=0;left=0;bottom=0;right=0;pointerEvents=1;fontSize=16;fontColor=#FF3399;" vertex="1" parent="aiIJosweRKsWauaOWvsQ-612">
          <mxGeometry x="240" width="30" height="40" as="geometry">
            <mxRectangle width="30" height="40" as="alternateBounds" />
          </mxGeometry>
        </mxCell>
        <mxCell id="aiIJosweRKsWauaOWvsQ-622" value="X" style="shape=partialRectangle;html=1;whiteSpace=wrap;connectable=0;strokeColor=inherit;overflow=hidden;fillColor=none;top=0;left=0;bottom=0;right=0;pointerEvents=1;fontSize=16;fontColor=#FF3399;" vertex="1" parent="aiIJosweRKsWauaOWvsQ-612">
          <mxGeometry x="270" width="30" height="40" as="geometry">
            <mxRectangle width="30" height="40" as="alternateBounds" />
          </mxGeometry>
        </mxCell>
        <mxCell id="aiIJosweRKsWauaOWvsQ-623" value="-" style="shape=partialRectangle;html=1;whiteSpace=wrap;connectable=0;strokeColor=inherit;overflow=hidden;fillColor=none;top=0;left=0;bottom=0;right=0;pointerEvents=1;fontSize=16;fontColor=#FF3399;" vertex="1" parent="aiIJosweRKsWauaOWvsQ-612">
          <mxGeometry x="300" width="30" height="40" as="geometry">
            <mxRectangle width="30" height="40" as="alternateBounds" />
          </mxGeometry>
        </mxCell>
        <mxCell id="aiIJosweRKsWauaOWvsQ-624" value="+" style="shape=partialRectangle;html=1;whiteSpace=wrap;connectable=0;strokeColor=inherit;overflow=hidden;fillColor=none;top=0;left=0;bottom=0;right=0;pointerEvents=1;fontSize=16;fontColor=#FF8000;fontStyle=1" vertex="1" parent="aiIJosweRKsWauaOWvsQ-612">
          <mxGeometry x="330" width="30" height="40" as="geometry">
            <mxRectangle width="30" height="40" as="alternateBounds" />
          </mxGeometry>
        </mxCell>
        <mxCell id="aiIJosweRKsWauaOWvsQ-625" value="F" style="shape=partialRectangle;html=1;whiteSpace=wrap;connectable=0;strokeColor=inherit;overflow=hidden;fillColor=none;top=0;left=0;bottom=0;right=0;pointerEvents=1;fontSize=16;fontColor=#FF8000;fontStyle=1" vertex="1" parent="aiIJosweRKsWauaOWvsQ-612">
          <mxGeometry x="360" width="30" height="40" as="geometry">
            <mxRectangle width="30" height="40" as="alternateBounds" />
          </mxGeometry>
        </mxCell>
        <mxCell id="aiIJosweRKsWauaOWvsQ-626" value="+" style="shape=partialRectangle;html=1;whiteSpace=wrap;connectable=0;strokeColor=inherit;overflow=hidden;fillColor=none;top=0;left=0;bottom=0;right=0;pointerEvents=1;fontSize=16;fontColor=#FF8000;fontStyle=1" vertex="1" parent="aiIJosweRKsWauaOWvsQ-612">
          <mxGeometry x="390" width="30" height="40" as="geometry">
            <mxRectangle width="30" height="40" as="alternateBounds" />
          </mxGeometry>
        </mxCell>
        <mxCell id="aiIJosweRKsWauaOWvsQ-627" value="" style="shape=table;startSize=0;container=1;collapsible=0;childLayout=tableLayout;fontSize=16;strokeColor=#00FFFF;fontColor=#FF3399;" vertex="1" parent="1">
          <mxGeometry x="3250" y="440" width="390" height="40" as="geometry" />
        </mxCell>
        <mxCell id="aiIJosweRKsWauaOWvsQ-628" value="" style="shape=tableRow;horizontal=0;startSize=0;swimlaneHead=0;swimlaneBody=0;strokeColor=inherit;top=0;left=0;bottom=0;right=0;collapsible=0;dropTarget=0;fillColor=none;points=[[0,0.5],[1,0.5]];portConstraint=eastwest;fontSize=16;enumerate=0;expand=1;part=0;" vertex="1" parent="aiIJosweRKsWauaOWvsQ-627">
          <mxGeometry width="390" height="40" as="geometry" />
        </mxCell>
        <mxCell id="aiIJosweRKsWauaOWvsQ-629" value="-" style="shape=partialRectangle;html=1;whiteSpace=wrap;connectable=0;strokeColor=inherit;overflow=hidden;fillColor=none;top=0;left=0;bottom=0;right=0;pointerEvents=1;fontSize=16;fontColor=#FF3399;" vertex="1" parent="aiIJosweRKsWauaOWvsQ-628">
          <mxGeometry width="30" height="40" as="geometry">
            <mxRectangle width="30" height="40" as="alternateBounds" />
          </mxGeometry>
        </mxCell>
        <mxCell id="aiIJosweRKsWauaOWvsQ-630" value="X" style="shape=partialRectangle;html=1;whiteSpace=wrap;connectable=0;strokeColor=inherit;overflow=hidden;fillColor=none;top=0;left=0;bottom=0;right=0;pointerEvents=1;fontSize=16;fontColor=#FF3399;" vertex="1" parent="aiIJosweRKsWauaOWvsQ-628">
          <mxGeometry x="30" width="30" height="40" as="geometry">
            <mxRectangle width="30" height="40" as="alternateBounds" />
          </mxGeometry>
        </mxCell>
        <mxCell id="aiIJosweRKsWauaOWvsQ-631" value="F" style="shape=partialRectangle;html=1;whiteSpace=wrap;connectable=0;strokeColor=inherit;overflow=hidden;fillColor=none;top=0;left=0;bottom=0;right=0;pointerEvents=1;fontSize=16;fontColor=#FF3399;" vertex="1" parent="aiIJosweRKsWauaOWvsQ-628">
          <mxGeometry x="60" width="30" height="40" as="geometry">
            <mxRectangle width="30" height="40" as="alternateBounds" />
          </mxGeometry>
        </mxCell>
        <mxCell id="aiIJosweRKsWauaOWvsQ-632" value="+" style="shape=partialRectangle;html=1;whiteSpace=wrap;connectable=0;strokeColor=inherit;overflow=hidden;fillColor=none;top=0;left=0;bottom=0;right=0;pointerEvents=1;fontSize=16;fontColor=#FF3399;" vertex="1" parent="aiIJosweRKsWauaOWvsQ-628">
          <mxGeometry x="90" width="30" height="40" as="geometry">
            <mxRectangle width="30" height="40" as="alternateBounds" />
          </mxGeometry>
        </mxCell>
        <mxCell id="aiIJosweRKsWauaOWvsQ-633" value="Y" style="shape=partialRectangle;html=1;whiteSpace=wrap;connectable=0;strokeColor=inherit;overflow=hidden;fillColor=none;top=0;left=0;bottom=0;right=0;pointerEvents=1;fontSize=16;fontColor=#FF3399;" vertex="1" parent="aiIJosweRKsWauaOWvsQ-628">
          <mxGeometry x="120" width="30" height="40" as="geometry">
            <mxRectangle width="30" height="40" as="alternateBounds" />
          </mxGeometry>
        </mxCell>
        <mxCell id="aiIJosweRKsWauaOWvsQ-634" value="F" style="shape=partialRectangle;html=1;whiteSpace=wrap;connectable=0;strokeColor=inherit;overflow=hidden;fillColor=none;top=0;left=0;bottom=0;right=0;pointerEvents=1;fontSize=16;fontColor=#FF3399;" vertex="1" parent="aiIJosweRKsWauaOWvsQ-628">
          <mxGeometry x="150" width="30" height="40" as="geometry">
            <mxRectangle width="30" height="40" as="alternateBounds" />
          </mxGeometry>
        </mxCell>
        <mxCell id="aiIJosweRKsWauaOWvsQ-635" value="Y" style="shape=partialRectangle;html=1;whiteSpace=wrap;connectable=0;strokeColor=inherit;overflow=hidden;fillColor=none;top=0;left=0;bottom=0;right=0;pointerEvents=1;fontSize=16;fontColor=#FF3399;" vertex="1" parent="aiIJosweRKsWauaOWvsQ-628">
          <mxGeometry x="180" width="30" height="40" as="geometry">
            <mxRectangle width="30" height="40" as="alternateBounds" />
          </mxGeometry>
        </mxCell>
        <mxCell id="aiIJosweRKsWauaOWvsQ-636" value="+" style="shape=partialRectangle;html=1;whiteSpace=wrap;connectable=0;strokeColor=inherit;overflow=hidden;fillColor=none;top=0;left=0;bottom=0;right=0;pointerEvents=1;fontSize=16;fontColor=#FF3399;" vertex="1" parent="aiIJosweRKsWauaOWvsQ-628">
          <mxGeometry x="210" width="30" height="40" as="geometry">
            <mxRectangle width="30" height="40" as="alternateBounds" />
          </mxGeometry>
        </mxCell>
        <mxCell id="aiIJosweRKsWauaOWvsQ-637" value="F" style="shape=partialRectangle;html=1;whiteSpace=wrap;connectable=0;strokeColor=inherit;overflow=hidden;fillColor=none;top=0;left=0;bottom=0;right=0;pointerEvents=1;fontSize=16;fontColor=#FF3399;" vertex="1" parent="aiIJosweRKsWauaOWvsQ-628">
          <mxGeometry x="240" width="30" height="40" as="geometry">
            <mxRectangle width="30" height="40" as="alternateBounds" />
          </mxGeometry>
        </mxCell>
        <mxCell id="aiIJosweRKsWauaOWvsQ-638" value="X" style="shape=partialRectangle;html=1;whiteSpace=wrap;connectable=0;strokeColor=inherit;overflow=hidden;fillColor=none;top=0;left=0;bottom=0;right=0;pointerEvents=1;fontSize=16;fontColor=#FF3399;" vertex="1" parent="aiIJosweRKsWauaOWvsQ-628">
          <mxGeometry x="270" width="30" height="40" as="geometry">
            <mxRectangle width="30" height="40" as="alternateBounds" />
          </mxGeometry>
        </mxCell>
        <mxCell id="aiIJosweRKsWauaOWvsQ-639" value="-" style="shape=partialRectangle;html=1;whiteSpace=wrap;connectable=0;strokeColor=inherit;overflow=hidden;fillColor=none;top=0;left=0;bottom=0;right=0;pointerEvents=1;fontSize=16;fontColor=#FF3399;" vertex="1" parent="aiIJosweRKsWauaOWvsQ-628">
          <mxGeometry x="300" width="30" height="40" as="geometry">
            <mxRectangle width="30" height="40" as="alternateBounds" />
          </mxGeometry>
        </mxCell>
        <mxCell id="aiIJosweRKsWauaOWvsQ-640" value="F" style="shape=partialRectangle;html=1;whiteSpace=wrap;connectable=0;strokeColor=inherit;overflow=hidden;fillColor=none;top=0;left=0;bottom=0;right=0;pointerEvents=1;fontSize=16;fontColor=#FF8000;fontStyle=1" vertex="1" parent="aiIJosweRKsWauaOWvsQ-628">
          <mxGeometry x="330" width="30" height="40" as="geometry">
            <mxRectangle width="30" height="40" as="alternateBounds" />
          </mxGeometry>
        </mxCell>
        <mxCell id="aiIJosweRKsWauaOWvsQ-641" value="-" style="shape=partialRectangle;html=1;whiteSpace=wrap;connectable=0;strokeColor=inherit;overflow=hidden;fillColor=none;top=0;left=0;bottom=0;right=0;pointerEvents=1;fontSize=16;fontColor=#FF8000;fontStyle=1" vertex="1" parent="aiIJosweRKsWauaOWvsQ-628">
          <mxGeometry x="360" width="30" height="40" as="geometry">
            <mxRectangle width="30" height="40" as="alternateBounds" />
          </mxGeometry>
        </mxCell>
        <mxCell id="aiIJosweRKsWauaOWvsQ-656" value="" style="shape=table;startSize=0;container=1;collapsible=0;childLayout=tableLayout;fontSize=16;strokeColor=#00FFFF;fontColor=#FF3399;" vertex="1" parent="1">
          <mxGeometry x="4000" y="440" width="390" height="40" as="geometry" />
        </mxCell>
        <mxCell id="aiIJosweRKsWauaOWvsQ-657" value="" style="shape=tableRow;horizontal=0;startSize=0;swimlaneHead=0;swimlaneBody=0;strokeColor=inherit;top=0;left=0;bottom=0;right=0;collapsible=0;dropTarget=0;fillColor=none;points=[[0,0.5],[1,0.5]];portConstraint=eastwest;fontSize=16;enumerate=0;expand=1;part=0;" vertex="1" parent="aiIJosweRKsWauaOWvsQ-656">
          <mxGeometry width="390" height="40" as="geometry" />
        </mxCell>
        <mxCell id="aiIJosweRKsWauaOWvsQ-658" value="+" style="shape=partialRectangle;html=1;whiteSpace=wrap;connectable=0;strokeColor=inherit;overflow=hidden;fillColor=none;top=0;left=0;bottom=0;right=0;pointerEvents=1;fontSize=16;fontColor=#00FF00;" vertex="1" parent="aiIJosweRKsWauaOWvsQ-657">
          <mxGeometry width="30" height="40" as="geometry">
            <mxRectangle width="30" height="40" as="alternateBounds" />
          </mxGeometry>
        </mxCell>
        <mxCell id="aiIJosweRKsWauaOWvsQ-659" value="Y" style="shape=partialRectangle;html=1;whiteSpace=wrap;connectable=0;strokeColor=inherit;overflow=hidden;fillColor=none;top=0;left=0;bottom=0;right=0;pointerEvents=1;fontSize=16;fontColor=#00FF00;" vertex="1" parent="aiIJosweRKsWauaOWvsQ-657">
          <mxGeometry x="30" width="30" height="40" as="geometry">
            <mxRectangle width="30" height="40" as="alternateBounds" />
          </mxGeometry>
        </mxCell>
        <mxCell id="aiIJosweRKsWauaOWvsQ-660" value="F" style="shape=partialRectangle;html=1;whiteSpace=wrap;connectable=0;strokeColor=inherit;overflow=hidden;fillColor=none;top=0;left=0;bottom=0;right=0;pointerEvents=1;fontSize=16;fontColor=#00FF00;" vertex="1" parent="aiIJosweRKsWauaOWvsQ-657">
          <mxGeometry x="60" width="30" height="40" as="geometry">
            <mxRectangle width="30" height="40" as="alternateBounds" />
          </mxGeometry>
        </mxCell>
        <mxCell id="aiIJosweRKsWauaOWvsQ-661" value="-" style="shape=partialRectangle;html=1;whiteSpace=wrap;connectable=0;strokeColor=inherit;overflow=hidden;fillColor=none;top=0;left=0;bottom=0;right=0;pointerEvents=1;fontSize=16;fontColor=#00FF00;" vertex="1" parent="aiIJosweRKsWauaOWvsQ-657">
          <mxGeometry x="90" width="30" height="40" as="geometry">
            <mxRectangle width="30" height="40" as="alternateBounds" />
          </mxGeometry>
        </mxCell>
        <mxCell id="aiIJosweRKsWauaOWvsQ-662" value="X" style="shape=partialRectangle;html=1;whiteSpace=wrap;connectable=0;strokeColor=inherit;overflow=hidden;fillColor=none;top=0;left=0;bottom=0;right=0;pointerEvents=1;fontSize=16;fontColor=#00FF00;" vertex="1" parent="aiIJosweRKsWauaOWvsQ-657">
          <mxGeometry x="120" width="30" height="40" as="geometry">
            <mxRectangle width="30" height="40" as="alternateBounds" />
          </mxGeometry>
        </mxCell>
        <mxCell id="aiIJosweRKsWauaOWvsQ-663" value="F" style="shape=partialRectangle;html=1;whiteSpace=wrap;connectable=0;strokeColor=inherit;overflow=hidden;fillColor=none;top=0;left=0;bottom=0;right=0;pointerEvents=1;fontSize=16;fontColor=#00FF00;" vertex="1" parent="aiIJosweRKsWauaOWvsQ-657">
          <mxGeometry x="150" width="30" height="40" as="geometry">
            <mxRectangle width="30" height="40" as="alternateBounds" />
          </mxGeometry>
        </mxCell>
        <mxCell id="aiIJosweRKsWauaOWvsQ-664" value="X" style="shape=partialRectangle;html=1;whiteSpace=wrap;connectable=0;strokeColor=inherit;overflow=hidden;fillColor=none;top=0;left=0;bottom=0;right=0;pointerEvents=1;fontSize=16;fontColor=#00FF00;" vertex="1" parent="aiIJosweRKsWauaOWvsQ-657">
          <mxGeometry x="180" width="30" height="40" as="geometry">
            <mxRectangle width="30" height="40" as="alternateBounds" />
          </mxGeometry>
        </mxCell>
        <mxCell id="aiIJosweRKsWauaOWvsQ-665" value="-" style="shape=partialRectangle;html=1;whiteSpace=wrap;connectable=0;strokeColor=inherit;overflow=hidden;fillColor=none;top=0;left=0;bottom=0;right=0;pointerEvents=1;fontSize=16;fontColor=#00FF00;" vertex="1" parent="aiIJosweRKsWauaOWvsQ-657">
          <mxGeometry x="210" width="30" height="40" as="geometry">
            <mxRectangle width="30" height="40" as="alternateBounds" />
          </mxGeometry>
        </mxCell>
        <mxCell id="aiIJosweRKsWauaOWvsQ-666" value="F" style="shape=partialRectangle;html=1;whiteSpace=wrap;connectable=0;strokeColor=inherit;overflow=hidden;fillColor=none;top=0;left=0;bottom=0;right=0;pointerEvents=1;fontSize=16;fontColor=#00FF00;" vertex="1" parent="aiIJosweRKsWauaOWvsQ-657">
          <mxGeometry x="240" width="30" height="40" as="geometry">
            <mxRectangle width="30" height="40" as="alternateBounds" />
          </mxGeometry>
        </mxCell>
        <mxCell id="aiIJosweRKsWauaOWvsQ-667" value="Y" style="shape=partialRectangle;html=1;whiteSpace=wrap;connectable=0;strokeColor=inherit;overflow=hidden;fillColor=none;top=0;left=0;bottom=0;right=0;pointerEvents=1;fontSize=16;fontColor=#00FF00;" vertex="1" parent="aiIJosweRKsWauaOWvsQ-657">
          <mxGeometry x="270" width="30" height="40" as="geometry">
            <mxRectangle width="30" height="40" as="alternateBounds" />
          </mxGeometry>
        </mxCell>
        <mxCell id="aiIJosweRKsWauaOWvsQ-668" value="+" style="shape=partialRectangle;html=1;whiteSpace=wrap;connectable=0;strokeColor=inherit;overflow=hidden;fillColor=none;top=0;left=0;bottom=0;right=0;pointerEvents=1;fontSize=16;fontColor=#00FF00;" vertex="1" parent="aiIJosweRKsWauaOWvsQ-657">
          <mxGeometry x="300" width="30" height="40" as="geometry">
            <mxRectangle width="30" height="40" as="alternateBounds" />
          </mxGeometry>
        </mxCell>
        <mxCell id="aiIJosweRKsWauaOWvsQ-669" value="-" style="shape=partialRectangle;html=1;whiteSpace=wrap;connectable=0;strokeColor=inherit;overflow=hidden;fillColor=none;top=0;left=0;bottom=0;right=0;pointerEvents=1;fontSize=16;fontColor=#FF8000;fontStyle=1" vertex="1" parent="aiIJosweRKsWauaOWvsQ-657">
          <mxGeometry x="330" width="30" height="40" as="geometry">
            <mxRectangle width="30" height="40" as="alternateBounds" />
          </mxGeometry>
        </mxCell>
        <mxCell id="aiIJosweRKsWauaOWvsQ-670" value="F" style="shape=partialRectangle;html=1;whiteSpace=wrap;connectable=0;strokeColor=inherit;overflow=hidden;fillColor=none;top=0;left=0;bottom=0;right=0;pointerEvents=1;fontSize=16;fontColor=#FF8000;fontStyle=1" vertex="1" parent="aiIJosweRKsWauaOWvsQ-657">
          <mxGeometry x="360" width="30" height="40" as="geometry">
            <mxRectangle width="30" height="40" as="alternateBounds" />
          </mxGeometry>
        </mxCell>
        <mxCell id="aiIJosweRKsWauaOWvsQ-642" value="" style="shape=table;startSize=0;container=1;collapsible=0;childLayout=tableLayout;fontSize=16;strokeColor=#00FFFF;fontColor=#FF8000;fontStyle=1" vertex="1" parent="1">
          <mxGeometry x="3640" y="440" width="360" height="40" as="geometry" />
        </mxCell>
        <mxCell id="aiIJosweRKsWauaOWvsQ-643" value="" style="shape=tableRow;horizontal=0;startSize=0;swimlaneHead=0;swimlaneBody=0;strokeColor=inherit;top=0;left=0;bottom=0;right=0;collapsible=0;dropTarget=0;fillColor=none;points=[[0,0.5],[1,0.5]];portConstraint=eastwest;fontSize=16;enumerate=0;expand=1;part=0;" vertex="1" parent="aiIJosweRKsWauaOWvsQ-642">
          <mxGeometry width="360" height="40" as="geometry" />
        </mxCell>
        <mxCell id="aiIJosweRKsWauaOWvsQ-644" value="+" style="shape=partialRectangle;html=1;whiteSpace=wrap;connectable=0;strokeColor=inherit;overflow=hidden;fillColor=none;top=0;left=0;bottom=0;right=0;pointerEvents=1;fontSize=16;fontColor=#00FF00;" vertex="1" parent="aiIJosweRKsWauaOWvsQ-643">
          <mxGeometry width="30" height="40" as="geometry">
            <mxRectangle width="30" height="40" as="alternateBounds" />
          </mxGeometry>
        </mxCell>
        <mxCell id="aiIJosweRKsWauaOWvsQ-645" value="Y" style="shape=partialRectangle;html=1;whiteSpace=wrap;connectable=0;strokeColor=inherit;overflow=hidden;fillColor=none;top=0;left=0;bottom=0;right=0;pointerEvents=1;fontSize=16;fontColor=#00FF00;" vertex="1" parent="aiIJosweRKsWauaOWvsQ-643">
          <mxGeometry x="30" width="30" height="40" as="geometry">
            <mxRectangle width="30" height="40" as="alternateBounds" />
          </mxGeometry>
        </mxCell>
        <mxCell id="aiIJosweRKsWauaOWvsQ-646" value="F" style="shape=partialRectangle;html=1;whiteSpace=wrap;connectable=0;strokeColor=inherit;overflow=hidden;fillColor=none;top=0;left=0;bottom=0;right=0;pointerEvents=1;fontSize=16;fontColor=#00FF00;" vertex="1" parent="aiIJosweRKsWauaOWvsQ-643">
          <mxGeometry x="60" width="30" height="40" as="geometry">
            <mxRectangle width="30" height="40" as="alternateBounds" />
          </mxGeometry>
        </mxCell>
        <mxCell id="aiIJosweRKsWauaOWvsQ-647" value="-" style="shape=partialRectangle;html=1;whiteSpace=wrap;connectable=0;strokeColor=inherit;overflow=hidden;fillColor=none;top=0;left=0;bottom=0;right=0;pointerEvents=1;fontSize=16;fontColor=#00FF00;" vertex="1" parent="aiIJosweRKsWauaOWvsQ-643">
          <mxGeometry x="90" width="30" height="40" as="geometry">
            <mxRectangle width="30" height="40" as="alternateBounds" />
          </mxGeometry>
        </mxCell>
        <mxCell id="aiIJosweRKsWauaOWvsQ-648" value="X" style="shape=partialRectangle;html=1;whiteSpace=wrap;connectable=0;strokeColor=inherit;overflow=hidden;fillColor=none;top=0;left=0;bottom=0;right=0;pointerEvents=1;fontSize=16;fontColor=#00FF00;" vertex="1" parent="aiIJosweRKsWauaOWvsQ-643">
          <mxGeometry x="120" width="30" height="40" as="geometry">
            <mxRectangle width="30" height="40" as="alternateBounds" />
          </mxGeometry>
        </mxCell>
        <mxCell id="aiIJosweRKsWauaOWvsQ-649" value="F" style="shape=partialRectangle;html=1;whiteSpace=wrap;connectable=0;strokeColor=inherit;overflow=hidden;fillColor=none;top=0;left=0;bottom=0;right=0;pointerEvents=1;fontSize=16;fontColor=#00FF00;" vertex="1" parent="aiIJosweRKsWauaOWvsQ-643">
          <mxGeometry x="150" width="30" height="40" as="geometry">
            <mxRectangle width="30" height="40" as="alternateBounds" />
          </mxGeometry>
        </mxCell>
        <mxCell id="aiIJosweRKsWauaOWvsQ-650" value="X" style="shape=partialRectangle;html=1;whiteSpace=wrap;connectable=0;strokeColor=inherit;overflow=hidden;fillColor=none;top=0;left=0;bottom=0;right=0;pointerEvents=1;fontSize=16;fontColor=#00FF00;" vertex="1" parent="aiIJosweRKsWauaOWvsQ-643">
          <mxGeometry x="180" width="30" height="40" as="geometry">
            <mxRectangle width="30" height="40" as="alternateBounds" />
          </mxGeometry>
        </mxCell>
        <mxCell id="aiIJosweRKsWauaOWvsQ-651" value="-" style="shape=partialRectangle;html=1;whiteSpace=wrap;connectable=0;strokeColor=inherit;overflow=hidden;fillColor=none;top=0;left=0;bottom=0;right=0;pointerEvents=1;fontSize=16;fontColor=#00FF00;" vertex="1" parent="aiIJosweRKsWauaOWvsQ-643">
          <mxGeometry x="210" width="30" height="40" as="geometry">
            <mxRectangle width="30" height="40" as="alternateBounds" />
          </mxGeometry>
        </mxCell>
        <mxCell id="aiIJosweRKsWauaOWvsQ-652" value="F" style="shape=partialRectangle;html=1;whiteSpace=wrap;connectable=0;strokeColor=inherit;overflow=hidden;fillColor=none;top=0;left=0;bottom=0;right=0;pointerEvents=1;fontSize=16;fontColor=#00FF00;" vertex="1" parent="aiIJosweRKsWauaOWvsQ-643">
          <mxGeometry x="240" width="30" height="40" as="geometry">
            <mxRectangle width="30" height="40" as="alternateBounds" />
          </mxGeometry>
        </mxCell>
        <mxCell id="aiIJosweRKsWauaOWvsQ-653" value="Y" style="shape=partialRectangle;html=1;whiteSpace=wrap;connectable=0;strokeColor=inherit;overflow=hidden;fillColor=none;top=0;left=0;bottom=0;right=0;pointerEvents=1;fontSize=16;fontColor=#00FF00;" vertex="1" parent="aiIJosweRKsWauaOWvsQ-643">
          <mxGeometry x="270" width="30" height="40" as="geometry">
            <mxRectangle width="30" height="40" as="alternateBounds" />
          </mxGeometry>
        </mxCell>
        <mxCell id="aiIJosweRKsWauaOWvsQ-654" value="+" style="shape=partialRectangle;html=1;whiteSpace=wrap;connectable=0;strokeColor=inherit;overflow=hidden;fillColor=none;top=0;left=0;bottom=0;right=0;pointerEvents=1;fontSize=16;fontColor=#00FF00;" vertex="1" parent="aiIJosweRKsWauaOWvsQ-643">
          <mxGeometry x="300" width="30" height="40" as="geometry">
            <mxRectangle width="30" height="40" as="alternateBounds" />
          </mxGeometry>
        </mxCell>
        <mxCell id="aiIJosweRKsWauaOWvsQ-655" value="F" style="shape=partialRectangle;html=1;whiteSpace=wrap;connectable=0;strokeColor=inherit;overflow=hidden;fillColor=none;top=0;left=0;bottom=0;right=0;pointerEvents=1;fontSize=16;fontColor=#FF8000;" vertex="1" parent="aiIJosweRKsWauaOWvsQ-643">
          <mxGeometry x="330" width="30" height="40" as="geometry">
            <mxRectangle width="30" height="40" as="alternateBounds" />
          </mxGeometry>
        </mxCell>
        <mxCell id="aiIJosweRKsWauaOWvsQ-671" value="" style="shape=table;startSize=0;container=1;collapsible=0;childLayout=tableLayout;fontSize=16;strokeColor=#00FFFF;fontColor=#FF3399;" vertex="1" parent="1">
          <mxGeometry x="4390" y="440" width="450" height="40" as="geometry" />
        </mxCell>
        <mxCell id="aiIJosweRKsWauaOWvsQ-672" value="" style="shape=tableRow;horizontal=0;startSize=0;swimlaneHead=0;swimlaneBody=0;strokeColor=inherit;top=0;left=0;bottom=0;right=0;collapsible=0;dropTarget=0;fillColor=none;points=[[0,0.5],[1,0.5]];portConstraint=eastwest;fontSize=16;enumerate=0;expand=1;part=0;" vertex="1" parent="aiIJosweRKsWauaOWvsQ-671">
          <mxGeometry width="450" height="40" as="geometry" />
        </mxCell>
        <mxCell id="aiIJosweRKsWauaOWvsQ-673" value="-" style="shape=partialRectangle;html=1;whiteSpace=wrap;connectable=0;strokeColor=inherit;overflow=hidden;fillColor=none;top=0;left=0;bottom=0;right=0;pointerEvents=1;fontSize=16;fontColor=#FF3399;" vertex="1" parent="aiIJosweRKsWauaOWvsQ-672">
          <mxGeometry width="30" height="40" as="geometry">
            <mxRectangle width="30" height="40" as="alternateBounds" />
          </mxGeometry>
        </mxCell>
        <mxCell id="aiIJosweRKsWauaOWvsQ-674" value="X" style="shape=partialRectangle;html=1;whiteSpace=wrap;connectable=0;strokeColor=inherit;overflow=hidden;fillColor=none;top=0;left=0;bottom=0;right=0;pointerEvents=1;fontSize=16;fontColor=#FF3399;" vertex="1" parent="aiIJosweRKsWauaOWvsQ-672">
          <mxGeometry x="30" width="30" height="40" as="geometry">
            <mxRectangle width="30" height="40" as="alternateBounds" />
          </mxGeometry>
        </mxCell>
        <mxCell id="aiIJosweRKsWauaOWvsQ-675" value="F" style="shape=partialRectangle;html=1;whiteSpace=wrap;connectable=0;strokeColor=inherit;overflow=hidden;fillColor=none;top=0;left=0;bottom=0;right=0;pointerEvents=1;fontSize=16;fontColor=#FF3399;" vertex="1" parent="aiIJosweRKsWauaOWvsQ-672">
          <mxGeometry x="60" width="30" height="40" as="geometry">
            <mxRectangle width="30" height="40" as="alternateBounds" />
          </mxGeometry>
        </mxCell>
        <mxCell id="aiIJosweRKsWauaOWvsQ-676" value="+" style="shape=partialRectangle;html=1;whiteSpace=wrap;connectable=0;strokeColor=inherit;overflow=hidden;fillColor=none;top=0;left=0;bottom=0;right=0;pointerEvents=1;fontSize=16;fontColor=#FF3399;" vertex="1" parent="aiIJosweRKsWauaOWvsQ-672">
          <mxGeometry x="90" width="30" height="40" as="geometry">
            <mxRectangle width="30" height="40" as="alternateBounds" />
          </mxGeometry>
        </mxCell>
        <mxCell id="aiIJosweRKsWauaOWvsQ-677" value="Y" style="shape=partialRectangle;html=1;whiteSpace=wrap;connectable=0;strokeColor=inherit;overflow=hidden;fillColor=none;top=0;left=0;bottom=0;right=0;pointerEvents=1;fontSize=16;fontColor=#FF3399;" vertex="1" parent="aiIJosweRKsWauaOWvsQ-672">
          <mxGeometry x="120" width="30" height="40" as="geometry">
            <mxRectangle width="30" height="40" as="alternateBounds" />
          </mxGeometry>
        </mxCell>
        <mxCell id="aiIJosweRKsWauaOWvsQ-678" value="F" style="shape=partialRectangle;html=1;whiteSpace=wrap;connectable=0;strokeColor=inherit;overflow=hidden;fillColor=none;top=0;left=0;bottom=0;right=0;pointerEvents=1;fontSize=16;fontColor=#FF3399;" vertex="1" parent="aiIJosweRKsWauaOWvsQ-672">
          <mxGeometry x="150" width="30" height="40" as="geometry">
            <mxRectangle width="30" height="40" as="alternateBounds" />
          </mxGeometry>
        </mxCell>
        <mxCell id="aiIJosweRKsWauaOWvsQ-679" value="Y" style="shape=partialRectangle;html=1;whiteSpace=wrap;connectable=0;strokeColor=inherit;overflow=hidden;fillColor=none;top=0;left=0;bottom=0;right=0;pointerEvents=1;fontSize=16;fontColor=#FF3399;" vertex="1" parent="aiIJosweRKsWauaOWvsQ-672">
          <mxGeometry x="180" width="30" height="40" as="geometry">
            <mxRectangle width="30" height="40" as="alternateBounds" />
          </mxGeometry>
        </mxCell>
        <mxCell id="aiIJosweRKsWauaOWvsQ-680" value="+" style="shape=partialRectangle;html=1;whiteSpace=wrap;connectable=0;strokeColor=inherit;overflow=hidden;fillColor=none;top=0;left=0;bottom=0;right=0;pointerEvents=1;fontSize=16;fontColor=#FF3399;" vertex="1" parent="aiIJosweRKsWauaOWvsQ-672">
          <mxGeometry x="210" width="30" height="40" as="geometry">
            <mxRectangle width="30" height="40" as="alternateBounds" />
          </mxGeometry>
        </mxCell>
        <mxCell id="aiIJosweRKsWauaOWvsQ-681" value="F" style="shape=partialRectangle;html=1;whiteSpace=wrap;connectable=0;strokeColor=inherit;overflow=hidden;fillColor=none;top=0;left=0;bottom=0;right=0;pointerEvents=1;fontSize=16;fontColor=#FF3399;" vertex="1" parent="aiIJosweRKsWauaOWvsQ-672">
          <mxGeometry x="240" width="30" height="40" as="geometry">
            <mxRectangle width="30" height="40" as="alternateBounds" />
          </mxGeometry>
        </mxCell>
        <mxCell id="aiIJosweRKsWauaOWvsQ-682" value="X" style="shape=partialRectangle;html=1;whiteSpace=wrap;connectable=0;strokeColor=inherit;overflow=hidden;fillColor=none;top=0;left=0;bottom=0;right=0;pointerEvents=1;fontSize=16;fontColor=#FF3399;" vertex="1" parent="aiIJosweRKsWauaOWvsQ-672">
          <mxGeometry x="270" width="30" height="40" as="geometry">
            <mxRectangle width="30" height="40" as="alternateBounds" />
          </mxGeometry>
        </mxCell>
        <mxCell id="aiIJosweRKsWauaOWvsQ-683" value="-" style="shape=partialRectangle;html=1;whiteSpace=wrap;connectable=0;strokeColor=inherit;overflow=hidden;fillColor=none;top=0;left=0;bottom=0;right=0;pointerEvents=1;fontSize=16;fontColor=#FF3399;" vertex="1" parent="aiIJosweRKsWauaOWvsQ-672">
          <mxGeometry x="300" width="30" height="40" as="geometry">
            <mxRectangle width="30" height="40" as="alternateBounds" />
          </mxGeometry>
        </mxCell>
        <mxCell id="aiIJosweRKsWauaOWvsQ-684" value="+" style="shape=partialRectangle;html=1;whiteSpace=wrap;connectable=0;strokeColor=inherit;overflow=hidden;fillColor=none;top=0;left=0;bottom=0;right=0;pointerEvents=1;fontSize=16;fontColor=#FF8000;labelBackgroundColor=none;fontStyle=1" vertex="1" parent="aiIJosweRKsWauaOWvsQ-672">
          <mxGeometry x="330" width="30" height="40" as="geometry">
            <mxRectangle width="30" height="40" as="alternateBounds" />
          </mxGeometry>
        </mxCell>
        <mxCell id="aiIJosweRKsWauaOWvsQ-685" value="-" style="shape=partialRectangle;html=1;whiteSpace=wrap;connectable=0;strokeColor=inherit;overflow=hidden;fillColor=none;top=0;left=0;bottom=0;right=0;pointerEvents=1;fontSize=16;fontColor=#FF8000;labelBackgroundColor=none;fontStyle=1" vertex="1" parent="aiIJosweRKsWauaOWvsQ-672">
          <mxGeometry x="360" width="30" height="40" as="geometry">
            <mxRectangle width="30" height="40" as="alternateBounds" />
          </mxGeometry>
        </mxCell>
        <mxCell id="aiIJosweRKsWauaOWvsQ-686" value="F" style="shape=partialRectangle;html=1;whiteSpace=wrap;connectable=0;strokeColor=inherit;overflow=hidden;fillColor=none;top=0;left=0;bottom=0;right=0;pointerEvents=1;fontSize=16;fontColor=#FF8000;labelBackgroundColor=none;fontStyle=1" vertex="1" parent="aiIJosweRKsWauaOWvsQ-672">
          <mxGeometry x="390" width="30" height="40" as="geometry">
            <mxRectangle width="30" height="40" as="alternateBounds" />
          </mxGeometry>
        </mxCell>
        <mxCell id="aiIJosweRKsWauaOWvsQ-687" value="-" style="shape=partialRectangle;html=1;whiteSpace=wrap;connectable=0;strokeColor=inherit;overflow=hidden;fillColor=none;top=0;left=0;bottom=0;right=0;pointerEvents=1;fontSize=16;fontColor=#FF8000;labelBackgroundColor=none;fontStyle=1" vertex="1" parent="aiIJosweRKsWauaOWvsQ-672">
          <mxGeometry x="420" width="30" height="40" as="geometry">
            <mxRectangle width="30" height="40" as="alternateBounds" />
          </mxGeometry>
        </mxCell>
        <mxCell id="aiIJosweRKsWauaOWvsQ-688" value="" style="shape=table;startSize=0;container=1;collapsible=0;childLayout=tableLayout;fontSize=16;strokeColor=#00FFFF;fontColor=#FF3399;" vertex="1" parent="1">
          <mxGeometry x="4840" y="440" width="390" height="40" as="geometry" />
        </mxCell>
        <mxCell id="aiIJosweRKsWauaOWvsQ-689" value="" style="shape=tableRow;horizontal=0;startSize=0;swimlaneHead=0;swimlaneBody=0;strokeColor=inherit;top=0;left=0;bottom=0;right=0;collapsible=0;dropTarget=0;fillColor=none;points=[[0,0.5],[1,0.5]];portConstraint=eastwest;fontSize=16;enumerate=0;expand=1;part=0;" vertex="1" parent="aiIJosweRKsWauaOWvsQ-688">
          <mxGeometry width="390" height="40" as="geometry" />
        </mxCell>
        <mxCell id="aiIJosweRKsWauaOWvsQ-690" value="+" style="shape=partialRectangle;html=1;whiteSpace=wrap;connectable=0;strokeColor=inherit;overflow=hidden;fillColor=none;top=0;left=0;bottom=0;right=0;pointerEvents=1;fontSize=16;fontColor=#00FF00;" vertex="1" parent="aiIJosweRKsWauaOWvsQ-689">
          <mxGeometry width="30" height="40" as="geometry">
            <mxRectangle width="30" height="40" as="alternateBounds" />
          </mxGeometry>
        </mxCell>
        <mxCell id="aiIJosweRKsWauaOWvsQ-691" value="Y" style="shape=partialRectangle;html=1;whiteSpace=wrap;connectable=0;strokeColor=inherit;overflow=hidden;fillColor=none;top=0;left=0;bottom=0;right=0;pointerEvents=1;fontSize=16;fontColor=#00FF00;" vertex="1" parent="aiIJosweRKsWauaOWvsQ-689">
          <mxGeometry x="30" width="30" height="40" as="geometry">
            <mxRectangle width="30" height="40" as="alternateBounds" />
          </mxGeometry>
        </mxCell>
        <mxCell id="aiIJosweRKsWauaOWvsQ-692" value="F" style="shape=partialRectangle;html=1;whiteSpace=wrap;connectable=0;strokeColor=inherit;overflow=hidden;fillColor=none;top=0;left=0;bottom=0;right=0;pointerEvents=1;fontSize=16;fontColor=#00FF00;" vertex="1" parent="aiIJosweRKsWauaOWvsQ-689">
          <mxGeometry x="60" width="30" height="40" as="geometry">
            <mxRectangle width="30" height="40" as="alternateBounds" />
          </mxGeometry>
        </mxCell>
        <mxCell id="aiIJosweRKsWauaOWvsQ-693" value="-" style="shape=partialRectangle;html=1;whiteSpace=wrap;connectable=0;strokeColor=inherit;overflow=hidden;fillColor=none;top=0;left=0;bottom=0;right=0;pointerEvents=1;fontSize=16;fontColor=#00FF00;" vertex="1" parent="aiIJosweRKsWauaOWvsQ-689">
          <mxGeometry x="90" width="30" height="40" as="geometry">
            <mxRectangle width="30" height="40" as="alternateBounds" />
          </mxGeometry>
        </mxCell>
        <mxCell id="aiIJosweRKsWauaOWvsQ-694" value="X" style="shape=partialRectangle;html=1;whiteSpace=wrap;connectable=0;strokeColor=inherit;overflow=hidden;fillColor=none;top=0;left=0;bottom=0;right=0;pointerEvents=1;fontSize=16;fontColor=#00FF00;" vertex="1" parent="aiIJosweRKsWauaOWvsQ-689">
          <mxGeometry x="120" width="30" height="40" as="geometry">
            <mxRectangle width="30" height="40" as="alternateBounds" />
          </mxGeometry>
        </mxCell>
        <mxCell id="aiIJosweRKsWauaOWvsQ-695" value="F" style="shape=partialRectangle;html=1;whiteSpace=wrap;connectable=0;strokeColor=inherit;overflow=hidden;fillColor=none;top=0;left=0;bottom=0;right=0;pointerEvents=1;fontSize=16;fontColor=#00FF00;" vertex="1" parent="aiIJosweRKsWauaOWvsQ-689">
          <mxGeometry x="150" width="30" height="40" as="geometry">
            <mxRectangle width="30" height="40" as="alternateBounds" />
          </mxGeometry>
        </mxCell>
        <mxCell id="aiIJosweRKsWauaOWvsQ-696" value="X" style="shape=partialRectangle;html=1;whiteSpace=wrap;connectable=0;strokeColor=inherit;overflow=hidden;fillColor=none;top=0;left=0;bottom=0;right=0;pointerEvents=1;fontSize=16;fontColor=#00FF00;" vertex="1" parent="aiIJosweRKsWauaOWvsQ-689">
          <mxGeometry x="180" width="30" height="40" as="geometry">
            <mxRectangle width="30" height="40" as="alternateBounds" />
          </mxGeometry>
        </mxCell>
        <mxCell id="aiIJosweRKsWauaOWvsQ-697" value="-" style="shape=partialRectangle;html=1;whiteSpace=wrap;connectable=0;strokeColor=inherit;overflow=hidden;fillColor=none;top=0;left=0;bottom=0;right=0;pointerEvents=1;fontSize=16;fontColor=#00FF00;" vertex="1" parent="aiIJosweRKsWauaOWvsQ-689">
          <mxGeometry x="210" width="30" height="40" as="geometry">
            <mxRectangle width="30" height="40" as="alternateBounds" />
          </mxGeometry>
        </mxCell>
        <mxCell id="aiIJosweRKsWauaOWvsQ-698" value="F" style="shape=partialRectangle;html=1;whiteSpace=wrap;connectable=0;strokeColor=inherit;overflow=hidden;fillColor=none;top=0;left=0;bottom=0;right=0;pointerEvents=1;fontSize=16;fontColor=#00FF00;" vertex="1" parent="aiIJosweRKsWauaOWvsQ-689">
          <mxGeometry x="240" width="30" height="40" as="geometry">
            <mxRectangle width="30" height="40" as="alternateBounds" />
          </mxGeometry>
        </mxCell>
        <mxCell id="aiIJosweRKsWauaOWvsQ-699" value="Y" style="shape=partialRectangle;html=1;whiteSpace=wrap;connectable=0;strokeColor=inherit;overflow=hidden;fillColor=none;top=0;left=0;bottom=0;right=0;pointerEvents=1;fontSize=16;fontColor=#00FF00;" vertex="1" parent="aiIJosweRKsWauaOWvsQ-689">
          <mxGeometry x="270" width="30" height="40" as="geometry">
            <mxRectangle width="30" height="40" as="alternateBounds" />
          </mxGeometry>
        </mxCell>
        <mxCell id="aiIJosweRKsWauaOWvsQ-700" value="+" style="shape=partialRectangle;html=1;whiteSpace=wrap;connectable=0;strokeColor=inherit;overflow=hidden;fillColor=none;top=0;left=0;bottom=0;right=0;pointerEvents=1;fontSize=16;fontColor=#00FF00;" vertex="1" parent="aiIJosweRKsWauaOWvsQ-689">
          <mxGeometry x="300" width="30" height="40" as="geometry">
            <mxRectangle width="30" height="40" as="alternateBounds" />
          </mxGeometry>
        </mxCell>
        <mxCell id="aiIJosweRKsWauaOWvsQ-701" value="F" style="shape=partialRectangle;html=1;whiteSpace=wrap;connectable=0;strokeColor=inherit;overflow=hidden;fillColor=none;top=0;left=0;bottom=0;right=0;pointerEvents=1;fontSize=16;fontColor=#FF8000;fontStyle=1" vertex="1" parent="aiIJosweRKsWauaOWvsQ-689">
          <mxGeometry x="330" width="30" height="40" as="geometry">
            <mxRectangle width="30" height="40" as="alternateBounds" />
          </mxGeometry>
        </mxCell>
        <mxCell id="aiIJosweRKsWauaOWvsQ-702" value="+" style="shape=partialRectangle;html=1;whiteSpace=wrap;connectable=0;strokeColor=inherit;overflow=hidden;fillColor=none;top=0;left=0;bottom=0;right=0;pointerEvents=1;fontSize=16;fontColor=#FF8000;fontStyle=1" vertex="1" parent="aiIJosweRKsWauaOWvsQ-689">
          <mxGeometry x="360" width="30" height="40" as="geometry">
            <mxRectangle width="30" height="40" as="alternateBounds" />
          </mxGeometry>
        </mxCell>
        <mxCell id="aiIJosweRKsWauaOWvsQ-703" value="" style="shape=table;startSize=0;container=1;collapsible=0;childLayout=tableLayout;fontSize=16;strokeColor=#00FFFF;fontColor=#FF3399;" vertex="1" parent="1">
          <mxGeometry x="5230" y="440" width="360" height="40" as="geometry" />
        </mxCell>
        <mxCell id="aiIJosweRKsWauaOWvsQ-704" value="" style="shape=tableRow;horizontal=0;startSize=0;swimlaneHead=0;swimlaneBody=0;strokeColor=inherit;top=0;left=0;bottom=0;right=0;collapsible=0;dropTarget=0;fillColor=none;points=[[0,0.5],[1,0.5]];portConstraint=eastwest;fontSize=16;enumerate=0;expand=1;part=0;" vertex="1" parent="aiIJosweRKsWauaOWvsQ-703">
          <mxGeometry width="360" height="40" as="geometry" />
        </mxCell>
        <mxCell id="aiIJosweRKsWauaOWvsQ-705" value="-" style="shape=partialRectangle;html=1;whiteSpace=wrap;connectable=0;strokeColor=inherit;overflow=hidden;fillColor=none;top=0;left=0;bottom=0;right=0;pointerEvents=1;fontSize=16;fontColor=#FF3399;" vertex="1" parent="aiIJosweRKsWauaOWvsQ-704">
          <mxGeometry width="30" height="40" as="geometry">
            <mxRectangle width="30" height="40" as="alternateBounds" />
          </mxGeometry>
        </mxCell>
        <mxCell id="aiIJosweRKsWauaOWvsQ-706" value="X" style="shape=partialRectangle;html=1;whiteSpace=wrap;connectable=0;strokeColor=inherit;overflow=hidden;fillColor=none;top=0;left=0;bottom=0;right=0;pointerEvents=1;fontSize=16;fontColor=#FF3399;" vertex="1" parent="aiIJosweRKsWauaOWvsQ-704">
          <mxGeometry x="30" width="30" height="40" as="geometry">
            <mxRectangle width="30" height="40" as="alternateBounds" />
          </mxGeometry>
        </mxCell>
        <mxCell id="aiIJosweRKsWauaOWvsQ-707" value="F" style="shape=partialRectangle;html=1;whiteSpace=wrap;connectable=0;strokeColor=inherit;overflow=hidden;fillColor=none;top=0;left=0;bottom=0;right=0;pointerEvents=1;fontSize=16;fontColor=#FF3399;" vertex="1" parent="aiIJosweRKsWauaOWvsQ-704">
          <mxGeometry x="60" width="30" height="40" as="geometry">
            <mxRectangle width="30" height="40" as="alternateBounds" />
          </mxGeometry>
        </mxCell>
        <mxCell id="aiIJosweRKsWauaOWvsQ-708" value="+" style="shape=partialRectangle;html=1;whiteSpace=wrap;connectable=0;strokeColor=inherit;overflow=hidden;fillColor=none;top=0;left=0;bottom=0;right=0;pointerEvents=1;fontSize=16;fontColor=#FF3399;" vertex="1" parent="aiIJosweRKsWauaOWvsQ-704">
          <mxGeometry x="90" width="30" height="40" as="geometry">
            <mxRectangle width="30" height="40" as="alternateBounds" />
          </mxGeometry>
        </mxCell>
        <mxCell id="aiIJosweRKsWauaOWvsQ-709" value="Y" style="shape=partialRectangle;html=1;whiteSpace=wrap;connectable=0;strokeColor=inherit;overflow=hidden;fillColor=none;top=0;left=0;bottom=0;right=0;pointerEvents=1;fontSize=16;fontColor=#FF3399;" vertex="1" parent="aiIJosweRKsWauaOWvsQ-704">
          <mxGeometry x="120" width="30" height="40" as="geometry">
            <mxRectangle width="30" height="40" as="alternateBounds" />
          </mxGeometry>
        </mxCell>
        <mxCell id="aiIJosweRKsWauaOWvsQ-710" value="F" style="shape=partialRectangle;html=1;whiteSpace=wrap;connectable=0;strokeColor=inherit;overflow=hidden;fillColor=none;top=0;left=0;bottom=0;right=0;pointerEvents=1;fontSize=16;fontColor=#FF3399;" vertex="1" parent="aiIJosweRKsWauaOWvsQ-704">
          <mxGeometry x="150" width="30" height="40" as="geometry">
            <mxRectangle width="30" height="40" as="alternateBounds" />
          </mxGeometry>
        </mxCell>
        <mxCell id="aiIJosweRKsWauaOWvsQ-711" value="Y" style="shape=partialRectangle;html=1;whiteSpace=wrap;connectable=0;strokeColor=inherit;overflow=hidden;fillColor=none;top=0;left=0;bottom=0;right=0;pointerEvents=1;fontSize=16;fontColor=#FF3399;" vertex="1" parent="aiIJosweRKsWauaOWvsQ-704">
          <mxGeometry x="180" width="30" height="40" as="geometry">
            <mxRectangle width="30" height="40" as="alternateBounds" />
          </mxGeometry>
        </mxCell>
        <mxCell id="aiIJosweRKsWauaOWvsQ-712" value="+" style="shape=partialRectangle;html=1;whiteSpace=wrap;connectable=0;strokeColor=inherit;overflow=hidden;fillColor=none;top=0;left=0;bottom=0;right=0;pointerEvents=1;fontSize=16;fontColor=#FF3399;" vertex="1" parent="aiIJosweRKsWauaOWvsQ-704">
          <mxGeometry x="210" width="30" height="40" as="geometry">
            <mxRectangle width="30" height="40" as="alternateBounds" />
          </mxGeometry>
        </mxCell>
        <mxCell id="aiIJosweRKsWauaOWvsQ-713" value="F" style="shape=partialRectangle;html=1;whiteSpace=wrap;connectable=0;strokeColor=inherit;overflow=hidden;fillColor=none;top=0;left=0;bottom=0;right=0;pointerEvents=1;fontSize=16;fontColor=#FF3399;" vertex="1" parent="aiIJosweRKsWauaOWvsQ-704">
          <mxGeometry x="240" width="30" height="40" as="geometry">
            <mxRectangle width="30" height="40" as="alternateBounds" />
          </mxGeometry>
        </mxCell>
        <mxCell id="aiIJosweRKsWauaOWvsQ-714" value="X" style="shape=partialRectangle;html=1;whiteSpace=wrap;connectable=0;strokeColor=inherit;overflow=hidden;fillColor=none;top=0;left=0;bottom=0;right=0;pointerEvents=1;fontSize=16;fontColor=#FF3399;" vertex="1" parent="aiIJosweRKsWauaOWvsQ-704">
          <mxGeometry x="270" width="30" height="40" as="geometry">
            <mxRectangle width="30" height="40" as="alternateBounds" />
          </mxGeometry>
        </mxCell>
        <mxCell id="aiIJosweRKsWauaOWvsQ-715" value="-" style="shape=partialRectangle;html=1;whiteSpace=wrap;connectable=0;strokeColor=inherit;overflow=hidden;fillColor=none;top=0;left=0;bottom=0;right=0;pointerEvents=1;fontSize=16;fontColor=#FF3399;" vertex="1" parent="aiIJosweRKsWauaOWvsQ-704">
          <mxGeometry x="300" width="30" height="40" as="geometry">
            <mxRectangle width="30" height="40" as="alternateBounds" />
          </mxGeometry>
        </mxCell>
        <mxCell id="aiIJosweRKsWauaOWvsQ-716" value="F" style="shape=partialRectangle;html=1;whiteSpace=wrap;connectable=0;strokeColor=inherit;overflow=hidden;fillColor=none;top=0;left=0;bottom=0;right=0;pointerEvents=1;fontSize=16;fontColor=#FF8000;fontStyle=1" vertex="1" parent="aiIJosweRKsWauaOWvsQ-704">
          <mxGeometry x="330" width="30" height="40" as="geometry">
            <mxRectangle width="30" height="40" as="alternateBounds" />
          </mxGeometry>
        </mxCell>
        <mxCell id="aiIJosweRKsWauaOWvsQ-717" value="" style="shape=table;startSize=0;container=1;collapsible=0;childLayout=tableLayout;fontSize=16;strokeColor=#00FFFF;fontColor=#FF3399;" vertex="1" parent="1">
          <mxGeometry x="5590" y="440" width="390" height="40" as="geometry" />
        </mxCell>
        <mxCell id="aiIJosweRKsWauaOWvsQ-718" value="" style="shape=tableRow;horizontal=0;startSize=0;swimlaneHead=0;swimlaneBody=0;strokeColor=inherit;top=0;left=0;bottom=0;right=0;collapsible=0;dropTarget=0;fillColor=none;points=[[0,0.5],[1,0.5]];portConstraint=eastwest;fontSize=16;enumerate=0;expand=1;part=0;" vertex="1" parent="aiIJosweRKsWauaOWvsQ-717">
          <mxGeometry width="390" height="40" as="geometry" />
        </mxCell>
        <mxCell id="aiIJosweRKsWauaOWvsQ-719" value="-" style="shape=partialRectangle;html=1;whiteSpace=wrap;connectable=0;strokeColor=inherit;overflow=hidden;fillColor=none;top=0;left=0;bottom=0;right=0;pointerEvents=1;fontSize=16;fontColor=#FF3399;" vertex="1" parent="aiIJosweRKsWauaOWvsQ-718">
          <mxGeometry width="30" height="40" as="geometry">
            <mxRectangle width="30" height="40" as="alternateBounds" />
          </mxGeometry>
        </mxCell>
        <mxCell id="aiIJosweRKsWauaOWvsQ-720" value="X" style="shape=partialRectangle;html=1;whiteSpace=wrap;connectable=0;strokeColor=inherit;overflow=hidden;fillColor=none;top=0;left=0;bottom=0;right=0;pointerEvents=1;fontSize=16;fontColor=#FF3399;" vertex="1" parent="aiIJosweRKsWauaOWvsQ-718">
          <mxGeometry x="30" width="30" height="40" as="geometry">
            <mxRectangle width="30" height="40" as="alternateBounds" />
          </mxGeometry>
        </mxCell>
        <mxCell id="aiIJosweRKsWauaOWvsQ-721" value="F" style="shape=partialRectangle;html=1;whiteSpace=wrap;connectable=0;strokeColor=inherit;overflow=hidden;fillColor=none;top=0;left=0;bottom=0;right=0;pointerEvents=1;fontSize=16;fontColor=#FF3399;" vertex="1" parent="aiIJosweRKsWauaOWvsQ-718">
          <mxGeometry x="60" width="30" height="40" as="geometry">
            <mxRectangle width="30" height="40" as="alternateBounds" />
          </mxGeometry>
        </mxCell>
        <mxCell id="aiIJosweRKsWauaOWvsQ-722" value="+" style="shape=partialRectangle;html=1;whiteSpace=wrap;connectable=0;strokeColor=inherit;overflow=hidden;fillColor=none;top=0;left=0;bottom=0;right=0;pointerEvents=1;fontSize=16;fontColor=#FF3399;" vertex="1" parent="aiIJosweRKsWauaOWvsQ-718">
          <mxGeometry x="90" width="30" height="40" as="geometry">
            <mxRectangle width="30" height="40" as="alternateBounds" />
          </mxGeometry>
        </mxCell>
        <mxCell id="aiIJosweRKsWauaOWvsQ-723" value="Y" style="shape=partialRectangle;html=1;whiteSpace=wrap;connectable=0;strokeColor=inherit;overflow=hidden;fillColor=none;top=0;left=0;bottom=0;right=0;pointerEvents=1;fontSize=16;fontColor=#FF3399;" vertex="1" parent="aiIJosweRKsWauaOWvsQ-718">
          <mxGeometry x="120" width="30" height="40" as="geometry">
            <mxRectangle width="30" height="40" as="alternateBounds" />
          </mxGeometry>
        </mxCell>
        <mxCell id="aiIJosweRKsWauaOWvsQ-724" value="F" style="shape=partialRectangle;html=1;whiteSpace=wrap;connectable=0;strokeColor=inherit;overflow=hidden;fillColor=none;top=0;left=0;bottom=0;right=0;pointerEvents=1;fontSize=16;fontColor=#FF3399;" vertex="1" parent="aiIJosweRKsWauaOWvsQ-718">
          <mxGeometry x="150" width="30" height="40" as="geometry">
            <mxRectangle width="30" height="40" as="alternateBounds" />
          </mxGeometry>
        </mxCell>
        <mxCell id="aiIJosweRKsWauaOWvsQ-725" value="Y" style="shape=partialRectangle;html=1;whiteSpace=wrap;connectable=0;strokeColor=inherit;overflow=hidden;fillColor=none;top=0;left=0;bottom=0;right=0;pointerEvents=1;fontSize=16;fontColor=#FF3399;" vertex="1" parent="aiIJosweRKsWauaOWvsQ-718">
          <mxGeometry x="180" width="30" height="40" as="geometry">
            <mxRectangle width="30" height="40" as="alternateBounds" />
          </mxGeometry>
        </mxCell>
        <mxCell id="aiIJosweRKsWauaOWvsQ-726" value="+" style="shape=partialRectangle;html=1;whiteSpace=wrap;connectable=0;strokeColor=inherit;overflow=hidden;fillColor=none;top=0;left=0;bottom=0;right=0;pointerEvents=1;fontSize=16;fontColor=#FF3399;" vertex="1" parent="aiIJosweRKsWauaOWvsQ-718">
          <mxGeometry x="210" width="30" height="40" as="geometry">
            <mxRectangle width="30" height="40" as="alternateBounds" />
          </mxGeometry>
        </mxCell>
        <mxCell id="aiIJosweRKsWauaOWvsQ-727" value="F" style="shape=partialRectangle;html=1;whiteSpace=wrap;connectable=0;strokeColor=inherit;overflow=hidden;fillColor=none;top=0;left=0;bottom=0;right=0;pointerEvents=1;fontSize=16;fontColor=#FF3399;" vertex="1" parent="aiIJosweRKsWauaOWvsQ-718">
          <mxGeometry x="240" width="30" height="40" as="geometry">
            <mxRectangle width="30" height="40" as="alternateBounds" />
          </mxGeometry>
        </mxCell>
        <mxCell id="aiIJosweRKsWauaOWvsQ-728" value="X" style="shape=partialRectangle;html=1;whiteSpace=wrap;connectable=0;strokeColor=inherit;overflow=hidden;fillColor=none;top=0;left=0;bottom=0;right=0;pointerEvents=1;fontSize=16;fontColor=#FF3399;" vertex="1" parent="aiIJosweRKsWauaOWvsQ-718">
          <mxGeometry x="270" width="30" height="40" as="geometry">
            <mxRectangle width="30" height="40" as="alternateBounds" />
          </mxGeometry>
        </mxCell>
        <mxCell id="aiIJosweRKsWauaOWvsQ-729" value="-" style="shape=partialRectangle;html=1;whiteSpace=wrap;connectable=0;strokeColor=inherit;overflow=hidden;fillColor=none;top=0;left=0;bottom=0;right=0;pointerEvents=1;fontSize=16;fontColor=#FF3399;" vertex="1" parent="aiIJosweRKsWauaOWvsQ-718">
          <mxGeometry x="300" width="30" height="40" as="geometry">
            <mxRectangle width="30" height="40" as="alternateBounds" />
          </mxGeometry>
        </mxCell>
        <mxCell id="aiIJosweRKsWauaOWvsQ-730" value="+" style="shape=partialRectangle;html=1;whiteSpace=wrap;connectable=0;strokeColor=inherit;overflow=hidden;fillColor=none;top=0;left=0;bottom=0;right=0;pointerEvents=1;fontSize=16;fontColor=#FF8000;fontStyle=1" vertex="1" parent="aiIJosweRKsWauaOWvsQ-718">
          <mxGeometry x="330" width="30" height="40" as="geometry">
            <mxRectangle width="30" height="40" as="alternateBounds" />
          </mxGeometry>
        </mxCell>
        <mxCell id="aiIJosweRKsWauaOWvsQ-731" value="F" style="shape=partialRectangle;html=1;whiteSpace=wrap;connectable=0;strokeColor=inherit;overflow=hidden;fillColor=none;top=0;left=0;bottom=0;right=0;pointerEvents=1;fontSize=16;fontColor=#FF8000;fontStyle=1" vertex="1" parent="aiIJosweRKsWauaOWvsQ-718">
          <mxGeometry x="360" width="30" height="40" as="geometry">
            <mxRectangle width="30" height="40" as="alternateBounds" />
          </mxGeometry>
        </mxCell>
        <mxCell id="aiIJosweRKsWauaOWvsQ-732" value="" style="shape=table;startSize=0;container=1;collapsible=0;childLayout=tableLayout;fontSize=16;strokeColor=#00FFFF;fontColor=#FF3399;" vertex="1" parent="1">
          <mxGeometry x="5980" y="440" width="390" height="40" as="geometry" />
        </mxCell>
        <mxCell id="aiIJosweRKsWauaOWvsQ-733" value="" style="shape=tableRow;horizontal=0;startSize=0;swimlaneHead=0;swimlaneBody=0;strokeColor=inherit;top=0;left=0;bottom=0;right=0;collapsible=0;dropTarget=0;fillColor=none;points=[[0,0.5],[1,0.5]];portConstraint=eastwest;fontSize=16;enumerate=0;expand=1;part=0;" vertex="1" parent="aiIJosweRKsWauaOWvsQ-732">
          <mxGeometry width="390" height="40" as="geometry" />
        </mxCell>
        <mxCell id="aiIJosweRKsWauaOWvsQ-734" value="+" style="shape=partialRectangle;html=1;whiteSpace=wrap;connectable=0;strokeColor=inherit;overflow=hidden;fillColor=none;top=0;left=0;bottom=0;right=0;pointerEvents=1;fontSize=16;fontColor=#00FF00;" vertex="1" parent="aiIJosweRKsWauaOWvsQ-733">
          <mxGeometry width="30" height="40" as="geometry">
            <mxRectangle width="30" height="40" as="alternateBounds" />
          </mxGeometry>
        </mxCell>
        <mxCell id="aiIJosweRKsWauaOWvsQ-735" value="Y" style="shape=partialRectangle;html=1;whiteSpace=wrap;connectable=0;strokeColor=inherit;overflow=hidden;fillColor=none;top=0;left=0;bottom=0;right=0;pointerEvents=1;fontSize=16;fontColor=#00FF00;" vertex="1" parent="aiIJosweRKsWauaOWvsQ-733">
          <mxGeometry x="30" width="30" height="40" as="geometry">
            <mxRectangle width="30" height="40" as="alternateBounds" />
          </mxGeometry>
        </mxCell>
        <mxCell id="aiIJosweRKsWauaOWvsQ-736" value="F" style="shape=partialRectangle;html=1;whiteSpace=wrap;connectable=0;strokeColor=inherit;overflow=hidden;fillColor=none;top=0;left=0;bottom=0;right=0;pointerEvents=1;fontSize=16;fontColor=#00FF00;" vertex="1" parent="aiIJosweRKsWauaOWvsQ-733">
          <mxGeometry x="60" width="30" height="40" as="geometry">
            <mxRectangle width="30" height="40" as="alternateBounds" />
          </mxGeometry>
        </mxCell>
        <mxCell id="aiIJosweRKsWauaOWvsQ-737" value="-" style="shape=partialRectangle;html=1;whiteSpace=wrap;connectable=0;strokeColor=inherit;overflow=hidden;fillColor=none;top=0;left=0;bottom=0;right=0;pointerEvents=1;fontSize=16;fontColor=#00FF00;" vertex="1" parent="aiIJosweRKsWauaOWvsQ-733">
          <mxGeometry x="90" width="30" height="40" as="geometry">
            <mxRectangle width="30" height="40" as="alternateBounds" />
          </mxGeometry>
        </mxCell>
        <mxCell id="aiIJosweRKsWauaOWvsQ-738" value="X" style="shape=partialRectangle;html=1;whiteSpace=wrap;connectable=0;strokeColor=inherit;overflow=hidden;fillColor=none;top=0;left=0;bottom=0;right=0;pointerEvents=1;fontSize=16;fontColor=#00FF00;" vertex="1" parent="aiIJosweRKsWauaOWvsQ-733">
          <mxGeometry x="120" width="30" height="40" as="geometry">
            <mxRectangle width="30" height="40" as="alternateBounds" />
          </mxGeometry>
        </mxCell>
        <mxCell id="aiIJosweRKsWauaOWvsQ-739" value="F" style="shape=partialRectangle;html=1;whiteSpace=wrap;connectable=0;strokeColor=inherit;overflow=hidden;fillColor=none;top=0;left=0;bottom=0;right=0;pointerEvents=1;fontSize=16;fontColor=#00FF00;" vertex="1" parent="aiIJosweRKsWauaOWvsQ-733">
          <mxGeometry x="150" width="30" height="40" as="geometry">
            <mxRectangle width="30" height="40" as="alternateBounds" />
          </mxGeometry>
        </mxCell>
        <mxCell id="aiIJosweRKsWauaOWvsQ-740" value="X" style="shape=partialRectangle;html=1;whiteSpace=wrap;connectable=0;strokeColor=inherit;overflow=hidden;fillColor=none;top=0;left=0;bottom=0;right=0;pointerEvents=1;fontSize=16;fontColor=#00FF00;" vertex="1" parent="aiIJosweRKsWauaOWvsQ-733">
          <mxGeometry x="180" width="30" height="40" as="geometry">
            <mxRectangle width="30" height="40" as="alternateBounds" />
          </mxGeometry>
        </mxCell>
        <mxCell id="aiIJosweRKsWauaOWvsQ-741" value="-" style="shape=partialRectangle;html=1;whiteSpace=wrap;connectable=0;strokeColor=inherit;overflow=hidden;fillColor=none;top=0;left=0;bottom=0;right=0;pointerEvents=1;fontSize=16;fontColor=#00FF00;" vertex="1" parent="aiIJosweRKsWauaOWvsQ-733">
          <mxGeometry x="210" width="30" height="40" as="geometry">
            <mxRectangle width="30" height="40" as="alternateBounds" />
          </mxGeometry>
        </mxCell>
        <mxCell id="aiIJosweRKsWauaOWvsQ-742" value="F" style="shape=partialRectangle;html=1;whiteSpace=wrap;connectable=0;strokeColor=inherit;overflow=hidden;fillColor=none;top=0;left=0;bottom=0;right=0;pointerEvents=1;fontSize=16;fontColor=#00FF00;" vertex="1" parent="aiIJosweRKsWauaOWvsQ-733">
          <mxGeometry x="240" width="30" height="40" as="geometry">
            <mxRectangle width="30" height="40" as="alternateBounds" />
          </mxGeometry>
        </mxCell>
        <mxCell id="aiIJosweRKsWauaOWvsQ-743" value="Y" style="shape=partialRectangle;html=1;whiteSpace=wrap;connectable=0;strokeColor=inherit;overflow=hidden;fillColor=none;top=0;left=0;bottom=0;right=0;pointerEvents=1;fontSize=16;fontColor=#00FF00;" vertex="1" parent="aiIJosweRKsWauaOWvsQ-733">
          <mxGeometry x="270" width="30" height="40" as="geometry">
            <mxRectangle width="30" height="40" as="alternateBounds" />
          </mxGeometry>
        </mxCell>
        <mxCell id="aiIJosweRKsWauaOWvsQ-744" value="+" style="shape=partialRectangle;html=1;whiteSpace=wrap;connectable=0;strokeColor=inherit;overflow=hidden;fillColor=none;top=0;left=0;bottom=0;right=0;pointerEvents=1;fontSize=16;fontColor=#00FF00;" vertex="1" parent="aiIJosweRKsWauaOWvsQ-733">
          <mxGeometry x="300" width="30" height="40" as="geometry">
            <mxRectangle width="30" height="40" as="alternateBounds" />
          </mxGeometry>
        </mxCell>
        <mxCell id="aiIJosweRKsWauaOWvsQ-745" value="-" style="shape=partialRectangle;html=1;whiteSpace=wrap;connectable=0;strokeColor=inherit;overflow=hidden;fillColor=none;top=0;left=0;bottom=0;right=0;pointerEvents=1;fontSize=16;fontColor=#FF8000;fontStyle=1" vertex="1" parent="aiIJosweRKsWauaOWvsQ-733">
          <mxGeometry x="330" width="30" height="40" as="geometry">
            <mxRectangle width="30" height="40" as="alternateBounds" />
          </mxGeometry>
        </mxCell>
        <mxCell id="aiIJosweRKsWauaOWvsQ-746" value="+" style="shape=partialRectangle;html=1;whiteSpace=wrap;connectable=0;strokeColor=inherit;overflow=hidden;fillColor=none;top=0;left=0;bottom=0;right=0;pointerEvents=1;fontSize=16;fontColor=#FF8000;fontStyle=1" vertex="1" parent="aiIJosweRKsWauaOWvsQ-733">
          <mxGeometry x="360" width="30" height="40" as="geometry">
            <mxRectangle width="30" height="40" as="alternateBounds" />
          </mxGeometry>
        </mxCell>
        <mxCell id="aiIJosweRKsWauaOWvsQ-529" value="" style="shape=table;startSize=0;container=1;collapsible=0;childLayout=tableLayout;fontSize=16;strokeColor=#00FFFF;fontColor=#FF3399;" vertex="1" parent="1">
          <mxGeometry x="4410" y="260" width="330" height="40" as="geometry" />
        </mxCell>
        <mxCell id="aiIJosweRKsWauaOWvsQ-530" value="" style="shape=tableRow;horizontal=0;startSize=0;swimlaneHead=0;swimlaneBody=0;strokeColor=inherit;top=0;left=0;bottom=0;right=0;collapsible=0;dropTarget=0;fillColor=none;points=[[0,0.5],[1,0.5]];portConstraint=eastwest;fontSize=16;enumerate=0;expand=1;part=0;" vertex="1" parent="aiIJosweRKsWauaOWvsQ-529">
          <mxGeometry width="330" height="40" as="geometry" />
        </mxCell>
        <mxCell id="aiIJosweRKsWauaOWvsQ-531" value="-" style="shape=partialRectangle;html=1;whiteSpace=wrap;connectable=0;strokeColor=inherit;overflow=hidden;fillColor=none;top=0;left=0;bottom=0;right=0;pointerEvents=1;fontSize=16;fontColor=#FF3399;" vertex="1" parent="aiIJosweRKsWauaOWvsQ-530">
          <mxGeometry width="30" height="40" as="geometry">
            <mxRectangle width="30" height="40" as="alternateBounds" />
          </mxGeometry>
        </mxCell>
        <mxCell id="aiIJosweRKsWauaOWvsQ-532" value="X" style="shape=partialRectangle;html=1;whiteSpace=wrap;connectable=0;strokeColor=inherit;overflow=hidden;fillColor=none;top=0;left=0;bottom=0;right=0;pointerEvents=1;fontSize=16;fontColor=#FF3399;" vertex="1" parent="aiIJosweRKsWauaOWvsQ-530">
          <mxGeometry x="30" width="30" height="40" as="geometry">
            <mxRectangle width="30" height="40" as="alternateBounds" />
          </mxGeometry>
        </mxCell>
        <mxCell id="aiIJosweRKsWauaOWvsQ-533" value="F" style="shape=partialRectangle;html=1;whiteSpace=wrap;connectable=0;strokeColor=inherit;overflow=hidden;fillColor=none;top=0;left=0;bottom=0;right=0;pointerEvents=1;fontSize=16;fontColor=#FF3399;" vertex="1" parent="aiIJosweRKsWauaOWvsQ-530">
          <mxGeometry x="60" width="30" height="40" as="geometry">
            <mxRectangle width="30" height="40" as="alternateBounds" />
          </mxGeometry>
        </mxCell>
        <mxCell id="aiIJosweRKsWauaOWvsQ-534" value="+" style="shape=partialRectangle;html=1;whiteSpace=wrap;connectable=0;strokeColor=inherit;overflow=hidden;fillColor=none;top=0;left=0;bottom=0;right=0;pointerEvents=1;fontSize=16;fontColor=#FF3399;" vertex="1" parent="aiIJosweRKsWauaOWvsQ-530">
          <mxGeometry x="90" width="30" height="40" as="geometry">
            <mxRectangle width="30" height="40" as="alternateBounds" />
          </mxGeometry>
        </mxCell>
        <mxCell id="aiIJosweRKsWauaOWvsQ-535" value="Y" style="shape=partialRectangle;html=1;whiteSpace=wrap;connectable=0;strokeColor=inherit;overflow=hidden;fillColor=none;top=0;left=0;bottom=0;right=0;pointerEvents=1;fontSize=16;fontColor=#FF3399;" vertex="1" parent="aiIJosweRKsWauaOWvsQ-530">
          <mxGeometry x="120" width="30" height="40" as="geometry">
            <mxRectangle width="30" height="40" as="alternateBounds" />
          </mxGeometry>
        </mxCell>
        <mxCell id="aiIJosweRKsWauaOWvsQ-536" value="F" style="shape=partialRectangle;html=1;whiteSpace=wrap;connectable=0;strokeColor=inherit;overflow=hidden;fillColor=none;top=0;left=0;bottom=0;right=0;pointerEvents=1;fontSize=16;fontColor=#FF3399;" vertex="1" parent="aiIJosweRKsWauaOWvsQ-530">
          <mxGeometry x="150" width="30" height="40" as="geometry">
            <mxRectangle width="30" height="40" as="alternateBounds" />
          </mxGeometry>
        </mxCell>
        <mxCell id="aiIJosweRKsWauaOWvsQ-537" value="Y" style="shape=partialRectangle;html=1;whiteSpace=wrap;connectable=0;strokeColor=inherit;overflow=hidden;fillColor=none;top=0;left=0;bottom=0;right=0;pointerEvents=1;fontSize=16;fontColor=#FF3399;" vertex="1" parent="aiIJosweRKsWauaOWvsQ-530">
          <mxGeometry x="180" width="30" height="40" as="geometry">
            <mxRectangle width="30" height="40" as="alternateBounds" />
          </mxGeometry>
        </mxCell>
        <mxCell id="aiIJosweRKsWauaOWvsQ-538" value="+" style="shape=partialRectangle;html=1;whiteSpace=wrap;connectable=0;strokeColor=inherit;overflow=hidden;fillColor=none;top=0;left=0;bottom=0;right=0;pointerEvents=1;fontSize=16;fontColor=#FF3399;" vertex="1" parent="aiIJosweRKsWauaOWvsQ-530">
          <mxGeometry x="210" width="30" height="40" as="geometry">
            <mxRectangle width="30" height="40" as="alternateBounds" />
          </mxGeometry>
        </mxCell>
        <mxCell id="aiIJosweRKsWauaOWvsQ-539" value="F" style="shape=partialRectangle;html=1;whiteSpace=wrap;connectable=0;strokeColor=inherit;overflow=hidden;fillColor=none;top=0;left=0;bottom=0;right=0;pointerEvents=1;fontSize=16;fontColor=#FF3399;" vertex="1" parent="aiIJosweRKsWauaOWvsQ-530">
          <mxGeometry x="240" width="30" height="40" as="geometry">
            <mxRectangle width="30" height="40" as="alternateBounds" />
          </mxGeometry>
        </mxCell>
        <mxCell id="aiIJosweRKsWauaOWvsQ-540" value="X" style="shape=partialRectangle;html=1;whiteSpace=wrap;connectable=0;strokeColor=inherit;overflow=hidden;fillColor=none;top=0;left=0;bottom=0;right=0;pointerEvents=1;fontSize=16;fontColor=#FF3399;" vertex="1" parent="aiIJosweRKsWauaOWvsQ-530">
          <mxGeometry x="270" width="30" height="40" as="geometry">
            <mxRectangle width="30" height="40" as="alternateBounds" />
          </mxGeometry>
        </mxCell>
        <mxCell id="aiIJosweRKsWauaOWvsQ-541" value="-" style="shape=partialRectangle;html=1;whiteSpace=wrap;connectable=0;strokeColor=inherit;overflow=hidden;fillColor=none;top=0;left=0;bottom=0;right=0;pointerEvents=1;fontSize=16;fontColor=#FF3399;" vertex="1" parent="aiIJosweRKsWauaOWvsQ-530">
          <mxGeometry x="300" width="30" height="40" as="geometry">
            <mxRectangle width="30" height="40" as="alternateBounds" />
          </mxGeometry>
        </mxCell>
        <mxCell id="aiIJosweRKsWauaOWvsQ-747" value="0 Iteraciones - NIVEL 0" style="text;html=1;strokeColor=none;fillColor=none;align=center;verticalAlign=middle;whiteSpace=wrap;rounded=0;fontSize=28;fontStyle=1" vertex="1" parent="1">
          <mxGeometry x="2270" y="160" width="325" height="30" as="geometry" />
        </mxCell>
        <mxCell id="aiIJosweRKsWauaOWvsQ-748" value="1 Iteracion - NIVEL 1" style="text;html=1;strokeColor=none;fillColor=none;align=center;verticalAlign=middle;whiteSpace=wrap;rounded=0;fontSize=28;fontStyle=1" vertex="1" parent="1">
          <mxGeometry x="2170" y="275" width="305" height="30" as="geometry" />
        </mxCell>
        <mxCell id="aiIJosweRKsWauaOWvsQ-749" value="2 Iteracion - NIVEL 2" style="text;html=1;strokeColor=none;fillColor=none;align=center;verticalAlign=middle;whiteSpace=wrap;rounded=0;fontSize=28;fontStyle=1" vertex="1" parent="1">
          <mxGeometry x="1860" y="380" width="305" height="30" as="geometry" />
        </mxCell>
      </root>
    </mxGraphModel>
  </diagram>
</mxfile>
